<?xml version="1.0" encoding="utf-8"?>
<!-- Generator: Adobe Illustrator 22.0.0, SVG Export Plug-In . SVG Version: 6.00 Build 0)  -->
<svg version="1.1" id="Capa_1" xmlns="http://www.w3.org/2000/svg" xmlns:xlink="http://www.w3.org/1999/xlink" x="0px" y="0px"
	 viewBox="0 0 299.1 62" style="enable-background:new 0 0 299.1 62;" xml:space="preserve">
<g>
	<path fill="#fff" d="M16,60.5c-0.2-0.1-0.2-0.3-0.2-0.4c0.4-0.3,0.8-0.5,1.2-0.5v-0.2c0-0.2-0.1-0.3-0.3-0.3h-0.2l-1.2,0.7h-0.7v-0.3
		c0.7,0,1.4-0.4,1.9-1.2v-0.9l-0.6-0.7v-0.2l0.2-0.9h-0.2c-0.1,0-0.5,0.5-1.4,1.4l-0.2-0.4v-0.3l0.5-0.9l-0.3-1.1
		c0.1-0.2,0.2-0.4,0.2-0.5l-0.3-0.2c-0.3,0.3-0.5,1.4-0.7,3.5h-0.3v-0.3l0.2-2.1c-0.3-0.1-0.5-0.2-0.5-0.3c0.2-0.5,0.3-0.7,0.5-0.7
		l-0.2-0.3v-0.9c-0.1,0-0.3-0.1-0.5-0.2v0.2c0.1,0.2,0.2,0.4,0.2,0.5l-0.7,0.6h-0.5l0.2-1.2V52c-0.5,0.3-0.8,0.5-1,0.5
		c0,0.4-0.1,0.8-0.1,1.1L10,52.5c-0.1-0.7-0.3-1-0.5-1c-0.1,0.2-0.2,0.8-0.3,1.6c0.2,0,0.3,0.1,0.3,0.3v0.2c0,0.1-0.1,0.3-0.4,0.4
		l-0.7-0.8c0.3-0.3,0.4-0.9,0.6-1.8l-0.3-0.2c-0.6,0.2-1,0.5-1.1,0.9c0.3,0,0.5,0.1,0.5,0.3v0.2l-0.9-0.2v0.2L5.4,52
		c-0.1-0.5-0.2-1.1-0.2-1.9h0.3L6,50.2v-0.2c0-0.2-0.3-0.4-1-0.5c-0.2-0.6-0.4-0.9-0.6-0.9L4.2,49v1.8c0,0.2-0.2,0.4-0.5,0.6H3.5
		v-0.2c0-2,0.2-3,0.3-3c-0.1-0.2-0.2-0.9-0.3-2.1h0.2c-0.1-0.2-0.2-0.4-0.2-0.5l-0.3,0.2H2.8v-0.2c0-1,0.1-2.1,0.2-3.2V42H2.8
		c0,0.7-0.1,1-0.3,1H2.3c0-0.4,0.1-1,0.2-1.6c0-0.2-0.1-1-0.2-2.4c0.1-1.5,0.2-2.4,0.5-2.6v-1.1c-0.3,0-0.5,0.6-0.9,1.9H1.6v-0.2
		c0.1-1.7,0.2-2.6,0.2-2.8c-0.3,0.2-0.5,0.3-0.7,0.3v0.5c0,0.8-0.1,1.6-0.4,2.4H0.3v-0.9L0,36.2h0.3l-0.2-0.9v-2.8
		c0-0.9-0.1-1.7-0.2-2.5c0.1-0.6,0.2-1.3,0.2-2.3V26c0.6,0,0.9-0.9,0.9-2.8v-0.3H0.9c0,0.7-0.2,1-0.5,1H0.2v-1
		c0-0.1,0.1-0.2,0.2-0.2l-0.2-0.4v-3c0-0.3-0.1-0.5-0.2-0.7c0.2-2.5,1.3-5.5,3.3-9.1h0.3v0.5h0.2c0.2,0,0.5-0.5,0.9-1.6
		c0.8,0,1.4-0.6,1.7-1.9h0.2C6.9,6.5,7,6.8,7,7.2c0.5-0.6,0.8-0.9,1-0.9l0.3,0.2c0.2,0,0.4-0.2,0.7-0.7C9.7,5.9,10,6,10,6.2l1.4-0.3
		V6c0.9-0.2,1.4-0.7,1.4-1.4h0.9C13.9,4.6,14,4.8,14,5c0,0.2-0.2,0.3-0.5,0.3v0.2c0,0.2,0.2,0.4,0.7,0.7h0.2l0.7-0.7
		c0.1,0,0.2,0.1,0.2,0.2c0.2-0.1,0.4-0.2,0.5-0.2l0.9,0.2c0-0.4,0.1-0.6,0.3-0.6L17.7,6h0.4c0-0.6,0.1-0.9,0.3-0.9
		c0,0.2,0.2,0.4,0.7,0.6c0.2-0.1,0.4-0.2,0.7-0.2c0,0.2,0.5,0.4,1.4,0.7l0.2-0.3c0.4,0.1,0.7,0.4,1.1,0.7c0.2-0.1,0.4-0.2,0.5-0.2
		c1.3,0.6,2.8,1.3,4.4,2.3c0.3,0,0.8,0.9,1.6,2.7l0.3-0.2c0.7,1,1.2,2,1.4,3c0,0.1-0.1,0.3-0.2,0.7c0,0.4,0.4,1.2,1.1,2.3
		c0,0-0.1,0.8-0.2,2.3c0,0.3,0.1,1.5,0.2,3.5c0,1-0.4,1.7-1.1,1.9h-0.2l-0.9-0.7c0,0.4-0.1,0.6-0.4,0.6h-0.2c-0.6,0-1.4,0.1-2.6,0.2
		c0,0.3-0.1,0.5-0.3,0.5l-0.7-1.1h-0.3c0,0.4-0.1,0.6-0.3,0.6s-0.3-0.2-0.3-0.6h-0.3l-0.6,0.4l-0.7-0.7c-0.1,0.5-0.4,0.9-0.9,1.1
		v0.3h-0.3c-0.5-0.5-0.8-0.7-0.9-0.7c-0.2,0-0.6,0.3-1.2,0.9L18.9,25c0.2,0,0.3-0.1,0.3-0.3c0-0.2-0.3-0.6-1-1.2
		c0.2,0,0.3-0.1,0.3-0.3c-0.2,0-0.3-0.1-0.3-0.3c0-0.3,0.1-0.4,0.3-0.4c0-0.1-0.1-0.2-0.2-0.2l0.2-0.9V19c0-0.3-0.1-0.5-0.2-0.7
		c0.1-0.2,0.2-0.4,0.2-0.7v-0.5h-0.2v0.3h-0.2c-0.3,0-0.4-0.5-0.6-1.4h-0.3c0,0.5-0.1,0.7-0.3,0.7l-1.1-0.9c-0.7,0.1-1,0.3-1,0.5
		L14,16.2h-0.2c-0.7,0-1.1,3.7-1.2,11.2c-0.2,0-0.4,0.2-0.6,0.5v1.4h0.7v1.4h-0.3v-0.5h-0.4v3.5c0.3,0,0.5-0.6,0.6-1.9H13V32
		c0,2.1-0.3,3.2-0.9,3.2v1.4c0.3,0,0.4,0.1,0.4,0.2l0.3-0.2H13v1h0.5c0.2,0,0.3-0.1,0.3-0.3h-0.5v-0.5h0.3c0.2,0,0.3,0.2,0.3,0.7
		h0.7c0.1,0,0.3-0.2,0.5-0.5v-2.6h0.5c-0.1-1.1-0.3-1.6-0.7-1.6v-3.5l0.2-0.9h0.3l0.3,0.2c0-0.2,0.2-0.4,0.6-0.6l-0.2-1.2v-0.2
		c0-0.9,0.3-1.5,0.9-1.8c0.2,0,0.3,0.1,0.3,0.3c-0.2,0-0.4,0.2-0.7,0.7v0.7c0,0.2,0.2,0.3,0.5,0.5l1.2-0.3v0.2
		c-0.2,0.8-0.3,1.3-0.3,1.4l0.3,0.2c0-0.5,0.1-0.7,0.3-0.7h0.2l0.9,0.2c0-0.3,0.1-0.5,0.3-0.5l1,0.2c0-0.2,0.2-0.3,0.3-0.3h0.2v1.1
		h0.2v-0.7h0.2l0.3,0.2c0-0.3,0.1-0.5,0.3-0.5l0.9,1.2c0.7,0,1.2-0.3,1.6-0.9c0.3,0,0.4,0.2,0.4,0.5h0.3l1.2-0.7
		c0.3,0,0.4,0.2,0.4,0.7h0.7c0-0.5,0.1-0.7,0.3-0.7l0.7,1.1v-0.4H30c0,0,0.3,0.3,0.9,0.9H31c0-0.6,0.1-0.9,0.4-0.9
		c0.2,0.6,0.3,2,0.3,4.1v2.1c0,0.9-0.1,1.7-0.2,2.4c0.1,0.6,0.2,1.3,0.2,2.1c0,0.6-0.1,1.3-0.2,2.1c0.1,0.8,0.2,1.4,0.2,1.9
		c0,2.2-0.2,3.3-0.7,3.3h-0.3V46c0-0.6,0.1-1.8,0.3-3.5h-0.7v1.4c0,0.4-0.1,0.7-0.2,0.9l0.2,1.1V48c0,0.7-0.2,1-0.7,1v0.2
		c0,0.7-0.1,1.5-0.2,2.3l0.2,0.7c-0.1,0.8-0.2,1.5-0.2,2.3h-0.2c-0.2,0-0.3-0.1-0.3-0.3v-0.2c0-0.7,0.1-1.1,0.2-1.2
		c-0.1-0.6-0.2-0.9-0.2-1c0.1-1.6,0.2-2.8,0.2-3.5c0.3,0,0.4-0.1,0.4-0.3v-1.1l0.2-1.8c-0.2,0-0.4,0.2-0.6,0.6V46h-0.2v0.9l-0.5,0.7
		V48c0,2.7-0.3,4-0.9,4h-0.2l0.2-0.9v-0.6c0-0.2-0.1-0.3-0.4-0.3c0,0.3-0.1,0.5-0.2,0.5c-0.5-0.1-0.7-0.5-0.7-1.4v-1.1
		c0-0.2-0.1-0.3-0.3-0.3h-0.2c-0.1,1.6-0.2,3-0.2,4.2h0.2v0.3c0,1.5-0.2,2.3-0.6,2.3c-0.2,0-0.3-0.1-0.3-0.3v-0.5
		c0-0.1,0.1-0.2,0.2-0.2c0-0.1-0.1-0.2-0.2-0.2l0.2-0.9v-0.3c0-0.5-0.1-1-0.3-1.4c0.1-1.3,0.2-2.1,0.3-2.3h-0.2
		c-0.2,0.1-0.4,0.2-0.5,0.2l0.2,1.6c-0.1,1.2-0.2,1.9-0.3,2.1c0.2,0,0.3,0.2,0.3,0.3v0.4c0,0.2-0.2,0.3-0.5,0.5
		c-0.1-0.2-0.2-0.5-0.2-0.9l-0.4,0.2v-0.2l0.4-0.7L23.5,52c-0.2,0-0.3,0.3-0.5,0.9l0.2,0.4c0,0.2-0.1,0.3-0.3,0.3h-0.2l-0.2-0.9
		c0-0.8,0.1-2.1,0.2-3.9v-0.3h-0.2c0,0.7-0.2,1.1-0.5,1.1v0.9c0,0.5,0.1,1.1,0.2,1.9c-0.4,1.5-0.7,2.3-0.9,2.3H21v-1.2l0.2-0.3
		l-0.7-0.2c-0.3,0.9-0.6,1.4-0.7,1.4l0.2,1.1c0,1.6-0.2,2.4-0.6,2.4c-0.1-0.2-0.2-0.4-0.2-0.5c0-0.1,0.1-0.6,0.2-1.4h-0.2
		c-0.2,0-0.3,0.2-0.5,0.5v0.6l0.2,0.9c-0.2,0.1-0.4,0.2-0.5,0.2l0.2,0.3v0.2l-0.2,0.4l-0.3-0.2h-0.2c-0.3,0.2-0.4,0.3-0.5,0.3
		l0.2,0.3c-0.1,0.2-0.2,0.4-0.2,0.7L16,60.5z M10.3,43.8v0.3h0.2c0.2,0,0.3-0.1,0.3-0.3v-0.4h-0.2C10.5,43.4,10.3,43.5,10.3,43.8z
		 M10.7,29.5v0.7h0.2v-0.7H10.7z M13,39c0,0.2-0.1,0.3-0.2,0.3l0.2,0.9v0.7c-0.7,0-1.1,0.9-1.4,2.7v0.5h0.3c0-0.4,0.2-1.3,0.7-2.7
		h0.2l0.3,0.2c0-0.5,0.4-1,1.1-1.6v-0.3c0-0.2-0.3-0.4-0.9-0.7H13z M12.3,40.2l0.4,0.2v-0.5C12.4,39.9,12.3,40,12.3,40.2z
		 M14.9,40.9l-0.3-0.2h-0.3c-0.9,1.1-1.4,2.2-1.4,3.2c0.8,0,1.2,0.6,1.2,1.8h0.4v-0.2l-0.2-0.4c0-0.2,0.3-0.7,0.9-1.4l-0.3-0.6
		c0-0.1,0.6-0.4,1.8-0.9V42c0-0.2-0.1-0.3-0.3-0.3h-0.2V42h-0.3v-0.2c0.2-0.4,0.3-0.7,0.3-1.1l-0.5-0.3
		C15.3,40.4,15.1,40.6,14.9,40.9z M13.3,20.4h0.3V22h-0.3V20.4z M15.1,38.1v0.2h0.7v-0.2H15.1z M15.9,20.8c1.2,0.2,1.8,0.4,1.8,0.7
		v0.2h-0.2c-0.1,0-0.7-0.2-1.6-0.5V20.8z M16.3,43.2v1.2h0.3v-1.2H16.3z M16.7,48.3v0.5H17v-0.5H16.7z M17.9,43.8v0.2h0.4v-0.6
		C18,43.4,17.9,43.5,17.9,43.8z M18.3,42.3l0.3,0.2V42C18.4,42,18.3,42.1,18.3,42.3z M19.6,26.7l0.4,0.5l-0.4,0.2
		c-0.2,0-0.3-0.1-0.3-0.3C19.3,26.8,19.4,26.7,19.6,26.7z M23.3,26.4h0.4c0.1,0,0.3,0.2,0.5,0.6v0.5h-0.3
		C23.6,27.4,23.4,27.1,23.3,26.4z"/>
	<path fill="#fff" d="M41.2,52.9c-0.3-0.3-0.5-1.1-0.5-2.3v-0.9c0.2-0.9,0.4-1.3,0.8-1.3h0.2l-0.2,1.9l0.2,2.2c0.4,0,0.6-0.8,0.6-2.4L42,48.7
		l0.2-0.9c0-0.1-0.1-0.5-0.2-1.1v-1.1h-0.6c-0.2,1-0.4,1.5-0.8,1.5c-0.3-0.3-0.5-0.4-0.6-0.4c0,0.1-0.1,0.2-0.2,0.2l0.2,0.9
		c-0.1,1.2-0.3,1.9-0.6,1.9h-0.2c0-0.4-0.1-0.7-0.2-0.9c0.1-0.4,0.2-0.7,0.2-0.7c-0.1-1.9-0.2-3.1-0.2-3.7c0.3-0.8,0.4-1.4,0.4-1.7
		v-1.1H40c0-0.1-0.1-0.3-0.2-0.6c0.1-0.7,0.2-1.3,0.2-1.7c-0.2,0.1-0.4,0.2-0.6,0.2v1.3l-0.6,0.8v1.1c0,1.1-0.1,2.2-0.2,3.2
		c0.1,0.6,0.2,1.3,0.2,1.9l-0.2,1.7c0.1,0.7,0.2,1.2,0.2,1.7l-0.2,0.9l0.4,0.7c-0.2,1.6-0.3,2.5-0.4,2.6c0.1,0.2,0.2,0.4,0.2,0.7
		c-0.3,0.3-0.9,0.5-1.7,0.8L37,56.4c0.8-1.8,1.3-3.1,1.3-3.9h-0.4l0.2-1.3c-0.1-1.1-0.2-1.9-0.2-2.6h-0.6v0.7h-0.2
		c-0.3,0-0.4-0.1-0.4-0.3c0.4-0.5,0.6-1,0.6-1.5L37,47.6l-0.9-0.4c-0.2,1.4-0.4,2.3-0.8,2.6v0.8c0,1.5-0.2,2.9-0.6,4.1h-0.4
		c0.3-4,0.6-6.3,0.9-6.9l-0.2-0.4c0.1-1,0.3-1.5,0.6-1.5h0.4c0,0.3,0.1,0.4,0.2,0.4c0.3-0.1,0.4-0.2,0.6-0.2c0,0.1,0.1,0.2,0.2,0.2
		c0-0.1,0.1-0.2,0.2-0.2c0.1,0.2,0.2,0.4,0.2,0.6h0.2c0-0.7,0.1-1.4,0.2-2.1v-0.2h-0.2v0.4h-0.4c-0.5-1-0.8-2.1-0.8-3.3h-0.3
		c0,2.6-0.3,3.9-0.8,3.9L35,44.6c0-0.3,0.1-1.2,0.4-2.6l-0.6,0.4h-0.4v-0.2l5-24.3c0.2,0,0.7-2.1,1.5-6.3c0.8-3.9,1.4-6.1,1.7-6.3
		H43v0.2l0.4-0.2c0.3,0,0.4,0.3,0.4,0.8h0.3c0.3,0,0.4-0.2,0.4-0.6h0.2c0.2,0,0.3,0.2,0.3,0.7h0.8c0-0.6,0.1-0.9,0.4-0.9h1.3L48,5.7
		h0.6c0-0.6,0.1-0.9,0.4-0.9c0,0.2,0.2,0.4,0.6,0.6l0.9-0.2c0,0.3,0.2,0.4,0.4,0.4h1.1V4.9c1.5,0,2.2,0.3,2.2,0.9h0.6
		c0-0.5,0.1-0.7,0.4-0.7h1.3c0.5,0.6,1.1,1.1,1.7,1.3c0.6,1,0.9,2.1,0.9,3.1h-0.2c0,0.8,0.4,2.2,1.1,4.3l0.2,0.9
		c-0.1,1.3-0.3,2.4-0.6,3.3v0.8H60l0.2-1.9h0.3c0,0.5,0.1,1,0.2,1.5c0,0.1-0.1,0.3-0.2,0.8c0.2,1.4,0.6,2.6,1.1,3.7
		c0,0.1,0.1,0.3,0.2,0.6l-0.2,1.1v0.2c0.4,1,0.8,3.1,1.3,6.1c0,0.8-0.3,1.1-0.8,1.1c-0.1,1.5-0.2,2.5-0.2,2.8v0.3h0.2
		c0.5-1,0.8-2.2,0.8-3.5h0.2c0.2,0,0.4,0.2,0.6,0.6v0.6c0,0.7,0.1,1.7,0.2,3c0,0.5-0.3,0.7-0.9,0.7v1.1c0.5,0,0.7,0.7,0.7,2h0.2
		l0.2-0.9v-2.4h0.2c0.2,0,0.5,1,0.9,3.1c0.2,0,0.3,0.3,0.4,0.8l-0.2,1.1c0.1,0.7,0.2,1.3,0.2,1.9c-0.2,0-0.4,0.3-0.8,0.8l0.9,1.1
		c0,0.8-0.3,1.1-0.7,1.1v0.6c0,0.1,0.1,0.2,0.2,0.2l-0.4,1.7l0.2,1.1c0,0.2-0.1,1.1-0.2,2.6h0.8V53c0,0.8-0.3,1.1-0.8,1.1v1.5
		c0,0.2-0.1,0.3-0.3,0.3h-0.2l-0.4-0.2l0.4-1.7c-0.1-1.3-0.2-2.3-0.2-3c0.1-0.4,0.2-0.7,0.2-0.7c-0.1-0.9-0.3-1.3-0.6-1.3
		c-0.1,1.4-0.3,2.3-0.7,2.6c0,2.2-0.3,4-0.9,5.2c0,0.5-0.1,0.8-0.4,0.8h-0.6L61,56.7v-2.2c0-0.3-0.1-0.5-0.2-0.7
		c0-0.1,0.1-0.2,0.2-0.2l-0.2-2.2v-1.7c-0.4,0-0.7,1-0.9,3h-0.4l-0.2-0.9c0-2.1,0.2-3.1,0.7-3.1v-1.1c0-0.5,0.1-1.2,0.2-2
		c0-0.1-0.1-0.2-0.2-0.2l0.2-0.9v-1.5c-0.4,0-0.7-0.1-0.9-0.2c-0.4,1.2-0.6,1.9-0.6,2l0.4-0.2h0.4c0,1.1-0.3,3.2-0.9,6.3
		c0.1,0.2,0.2,0.8,0.4,1.9c-0.3,1.7-0.4,2.8-0.4,3.3c-0.2,0-0.3-0.3-0.6-0.9l0.2-1.3V51c-0.2,0-0.3-0.3-0.3-0.8
		c-1.1,0.9-1.9,1.3-2.2,1.3l-1.3-0.4v-0.9c0-0.1,0.1-0.2,0.2-0.2c-0.2-0.5-0.3-1.2-0.3-2c-0.4,0-0.8-0.1-1.3-0.2
		c-0.1,0.5-0.4,0.8-0.8,0.8l-0.7-0.4c-1.7,0.7-2.9,1.6-3.7,2.8L41.2,52.9z M48,47.4c0,0.3-0.2,0.8-0.6,1.3c0.2,0.3,0.3,0.6,0.3,0.8
		H48c0.5-0.5,0.8-0.8,1.1-0.8v-0.4l-0.6,0.4l-0.2-0.4c0.3,0,0.4-0.1,0.4-0.3L48,47.4z M49.1,27.8c0.1,0,0.2,0.6,0.2,1.9h-0.3
		c0,1-0.1,2-0.4,3c0.1,0.8,0.2,1.5,0.2,2v2.2c0.1,0.3,0.2,0.4,0.4,0.4h0.4v-2.6l0.2-0.9h0.2c0,1,0.4,2.3,1.1,4.1c0.6,0,0.9-1,0.9-3
		v-3.5c0.3-0.3,0.4-0.5,0.4-0.6v-0.9h-0.4l-0.2,1.9h-0.2c-0.3,0-0.5-1-0.7-3l-0.4-0.2c0.1-0.2,0.2-0.4,0.2-0.6
		c0-0.5-0.1-1.1-0.4-1.9C49.8,26.1,49.4,26.6,49.1,27.8z M49.6,47.6V48h0.6v-0.4H49.6z M51.9,41.7v0.6c0.2,0,0.4-0.2,0.6-0.6v-0.2
		C52.2,41.6,52,41.7,51.9,41.7z M62.1,41.7c0,0.4-0.2,0.7-0.6,0.9c0,0.9-0.2,2.1-0.7,3.7l0.2,0.9c-0.1,0.9-0.2,1.4-0.2,1.5v0.8H61
		c0.3-3.2,0.7-4.9,1.1-4.9h0.2v0.2c0,2.2-0.3,3.5-0.8,3.9c0,1.1-0.1,2.2-0.2,3.2l0.2,1.3c-0.1,0.8-0.2,1.5-0.2,2v0.2h0.2
		c0.5-0.8,0.8-1.7,0.8-2.6c-0.2-0.9-0.3-1.3-0.6-1.3c0.4-2.8,0.7-4.3,0.9-4.3c0.4-1.1,0.6-1.7,0.7-1.7c0,0.1,0.1,0.2,0.2,0.2
		c0.5-2.3,0.7-3.6,0.7-3.9h-0.6v0.9c-0.5,0.3-0.7,0.6-0.7,0.9c-0.4,0.1-0.7,0.2-0.8,0.2v-2.2H62.1z"/>
	<path fill="#fff" d="M84.4,49.5c0.5-0.5,0.7-1,0.7-1.5v-2c0-0.2-0.1-0.3-0.4-0.3c0,2.2-0.2,3.3-0.7,3.3h-0.4c0-0.3-0.1-0.5-0.2-0.7
		c0.2-0.7,0.4-1.6,0.6-2.8c-0.3-0.6-0.5-0.9-0.8-0.9c0,0.2-0.1,0.5-0.4,0.9l-0.4-0.2h-0.2v0.4l0.9,1.3v0.2c0,0.3-0.1,0.4-0.4,0.4
		h-0.2c-0.6-1.1-0.9-1.8-0.9-2.2l0.2-1.8l-0.4,0.2c-0.4-1-0.6-2.1-0.6-3.3l0.2-0.9l-0.4,0.2L80.5,39v-1.3c0.4-0.5,0.6-0.9,0.6-1.3
		v-2l-0.2-0.9h-0.3v0.9l-0.2,2.2H80c0-0.6-0.1-0.9-0.4-0.9v-2.8c0-0.1,0.1-0.2,0.2-0.2l-0.2-0.3c0.1-0.3,0.2-0.5,0.2-0.6l-0.9-1.1
		c0-0.1,0.1-0.9,0.2-2.4c-0.1-0.2-0.2-0.4-0.2-0.5h-0.3c0,0.6-0.2,2.3-0.6,5.3c0,0.7,0.1,1.9,0.4,3.7c-0.2,0.7-0.4,1.1-0.6,1.1h-0.2
		v-0.6h-0.2c-0.3,0-0.4,0.1-0.4,0.4v1.7h0.2V39h0.2c0.2,0,0.3,0.2,0.3,0.4c0,0.2-0.2,0.3-0.5,0.3v1.5h0.3v0.4H77v1.1
		c0,0.1-0.2,0.3-0.6,0.6c0,2.8-0.2,4.2-0.6,4.2h-0.3v-0.2c0-1,0.1-2.1,0.2-3.3v-0.3h-0.2c0,0.7-0.1,1.1-0.3,1.1H75
		c0-0.4,0.1-1,0.2-1.7c0-0.2-0.1-1-0.2-2.5c0.1-1.6,0.3-2.5,0.6-2.8v-1.1c-0.3,0-0.6,0.7-0.9,2h-0.3v-0.2c0.1-1.8,0.2-2.8,0.2-2.9
		c-0.3,0.2-0.6,0.3-0.8,0.3v0.6c0,0.8-0.1,1.7-0.3,2.6H73v-1.1c-0.3,0.2-0.5,0.3-0.6,0.3c-0.1-0.2-0.2-0.5-0.2-1.1l-0.4,0.2h-0.4
		v-0.6c0.6-1.9,0.9-3.5,0.9-4.8c-0.1,0-0.2,0.1-0.2,0.2L71.9,32h-0.2v1.1c0,0.3-0.3,0.4-0.8,0.4V34h0.4v0.4h-0.4v0.3
		c0,2-0.4,3.8-1.1,5.3h-0.3c0-0.5,0.3-2.1,0.9-5V35h-0.2c-0.5,0.6-0.7,1.2-0.7,1.7l-0.4-0.2h-0.2v0.2h0.4v0.2
		c-0.3,0.4-0.6,1.3-0.7,2.6c-0.4,0-0.6,0.6-0.6,1.8v0.4h-0.5c0.1-2.1,0.2-3.1,0.3-3.1c0.1,0,0.2-0.2,0.4-0.6c-0.1-0.8-0.2-1.5-0.2-2
		v-0.8l-0.3,0.2c0-0.1-0.1-0.2-0.2-0.2c0,0.5-0.3,1.1-0.8,1.9c0.1,0.2,0.2,0.5,0.2,0.9h0.4c0-0.3,0.1-0.6,0.2-0.8h-0.6v-0.3H67
		c0.3,0.1,0.5,0.2,0.6,0.2v0.4c0,0.5-0.3,0.9-0.8,1.1l-0.2,0.9l0.2,0.9c-0.2,0.5-0.3,0.7-0.5,0.7c-0.3,0-0.4-0.1-0.4-0.4V39h0.6
		v-0.2c-0.2,0-0.5-0.3-0.8-0.8c0-0.1,0.1-0.3,0.2-0.6l-0.2-1.1v-0.7c0.2,0,0.4-0.3,0.8-0.9c0.2,0,0.3-0.6,0.3-1.9v-0.2h-0.2
		c-0.3,0.6-0.5,1.2-0.5,1.7h-0.4v-0.2c0-0.7,0.1-1.1,0.2-1.3c-0.1-0.7-0.2-1.2-0.2-1.7c0-0.8,0.1-2.4,0.2-4.8l-0.2-1.1
		c0.1-0.2,0.2-0.4,0.2-0.5l-0.2-0.3c0.1-0.7,0.2-1.3,0.2-1.7V22c0-0.3-0.1-0.5-0.2-0.5l0.2-0.9v-2.2c0-0.2-0.1-0.3-0.3-0.3
		c0.1-1.4,0.2-2.5,0.2-3.1V14c0-0.5-0.1-1-0.2-1.5c0.1-0.5,0.2-0.9,0.2-1.3L65.6,9c0-1.5,0.4-2.4,1.3-2.8c0.1-0.5,0.3-0.8,0.6-0.8
		c0,0.3,0.1,0.4,0.3,0.4l0.9-0.2c0.1,0.2,0.2,0.5,0.2,1.1h0.6c0.4-0.4,0.8-0.6,1.3-0.6c0.6,0.3,0.9,0.6,0.9,0.8h0.4L72.8,6
		C72.9,6.2,73,6.5,73,6.8c1.8-0.6,3.2-0.9,4.1-0.9c2,0.1,3,0.4,3,0.9h0.2c0-0.4,0.2-0.7,0.7-0.9c0.3,0,0.4,0.2,0.4,0.5h0.2
		c0.1,0,0.4-0.3,0.9-0.9c0.7,0.9,1.4,2.1,2,3.5c0.2,0,0.4,0.7,0.6,2.2c0.5,0,0.7,1,0.7,3.1l-0.2,0.4c0.2,1.1,0.4,1.6,0.8,1.6
		l-0.2,0.9v0.4c0.4,0,0.7,0.7,0.9,2c-0.1,0.7-0.2,1.2-0.2,1.7V22c0,0.6,0.3,1.1,0.9,1.7v0.5c0,0.7,0.1,1.7,0.2,3.2
		c0.6,0,0.9,0.7,0.9,2l-0.2,0.9h0.8c0.4-1.2,1-4.2,2-9C93,13.1,94.2,8,94.9,6.2l1.8-0.8c0.1,0.5,0.6,0.8,1.5,0.8
		c0.1-0.6,0.3-0.9,0.5-0.9C98.9,5.5,99,5.8,99,6.2h0.2c0.3,0,0.6-0.1,0.8-0.2c0.2,0.1,0.4,0.2,0.6,0.2c0.4-0.4,0.6-0.8,0.6-1.1h0.6
		c0.2,0,0.4,0.3,0.7,0.8l0.4-0.2c0.5,0,1,0.1,1.5,0.2c0.5-0.1,0.9-0.2,1.4-0.2l0.9,0.2c0-0.4,0.1-0.6,0.4-0.6h0.6
		c0.4,0,0.6,0.4,0.6,1.1h1.3c0-0.3,0.1-0.5,0.3-0.5c0.9,0.2,1.5,0.3,1.7,0.3V6c0.4,0.1,0.6,0.2,0.6,0.3l0.3-0.2
		c0.1,0,0.4,0.3,0.8,0.8c-0.1,1.7-0.2,2.9-0.2,3.7V11c0,1.8,0.1,3.1,0.2,3.9c-0.1,1.1-0.2,2.4-0.2,4.1v0.7c0,2,0.1,3.4,0.2,4.2
		c-0.1,1.2-0.2,2.8-0.2,4.6v3.9c0,1.1,0.1,2.6,0.2,4.2c-0.3,1.6-0.4,3.8-0.6,6.8h0.4c-0.1,1.8-0.2,3.2-0.2,4v1.3l-0.6,0.7h0.2
		c-0.2,0.9-0.7,1.5-1.4,1.9c0,0.5-0.1,0.7-0.2,0.7l0.2,0.7c-0.1,1.5-0.2,2.5-0.2,2.8c0.1,0.2,0.2,0.4,0.2,0.6
		c-0.5,0.1-0.7,0.2-0.8,0.2c-0.1-0.3-0.2-0.5-0.2-0.6h-0.4c-0.5,0.7-0.8,1.1-0.9,1.1h-0.2l0.2-0.9v-1.4c0-0.3-0.1-0.4-0.3-0.4
		l0.3-2.4c-0.1-0.8-0.2-1.6-0.2-2.4v-1.9H108v5.2c0,0.3-0.1,0.6-0.2,0.8c0.1,0.2,0.2,0.4,0.2,0.7v0.4c0,0.2-0.2,0.4-0.7,0.8h-0.2
		c0-0.5-0.3-1-0.8-1.5v-0.2l0.3,0.2c0.3,0,0.4-0.1,0.4-0.3c0-0.3-0.1-0.4-0.2-0.4c0.1-0.6,0.2-1.1,0.2-1.4l-0.2-1.9
		c0.1-0.4,0.2-0.9,0.2-1.4h-0.6v1.7c-0.1,2.2-0.5,3.3-1.1,3.3c-0.2,0-0.3,0.2-0.3,0.7h-0.8l0.2-0.9v-1.3c0.4-0.8,0.8-1.3,1.1-1.3
		l-0.3-0.6v-0.8l0.8-0.7c-0.1-0.3-0.2-0.4-0.2-0.6l-0.4,0.2h-0.5v-0.2c0-0.6,0.1-1.9,0.3-3.7h-0.8v1.5c0,0.4-0.1,0.7-0.2,0.9
		l0.2,1.1v1.8c0,1-0.2,1.5-0.7,1.5v0.2c0,0.8-0.1,1.6-0.2,2.4l0.2,0.8c-0.1,0.8-0.2,1.6-0.2,2.4h-0.2c-0.2,0-0.3-0.1-0.3-0.3v-0.9
		c0-0.4,0.1-0.6,0.2-0.6c-0.1-0.4-0.2-0.7-0.2-0.8c0.1-2.1,0.2-3.5,0.2-4c0.2,0,0.3-0.1,0.3-0.4v-1.7H103c0,0.7-0.2,1.2-0.6,1.5v0.4
		c0,2.3-0.2,3.6-0.6,4.1l-0.3-0.1v-1.4h-0.4v0.3h-0.3v-0.3c-0.3,0.2-0.5,0.3-0.6,0.3h-0.6v-0.2c0.4-0.6,0.6-1.1,0.6-1.5v-0.7
		l-0.3-0.6v-1.9L99,48.3h-1.1c-0.2,0-0.4-0.2-0.6-0.6v-0.4c0-0.2,0.8-1,2.4-2.2c0.2,0,0.4-1.8,0.6-5.3c-0.2,0-0.4-0.2-0.6-0.6
		c0.2,0,0.4-0.2,0.6-0.6v-0.7l-0.2-0.9h0.2c-0.2-0.6-0.6-0.9-1.1-0.9c-0.6,1-1.1,3.2-1.5,6.6l-0.5,0.3l0.2,0.4
		c-0.2,2.2-0.7,3.3-1.5,3.3v-0.4h-0.2c0,0.6-0.1,1.2-0.2,1.7l0.8,0.9c-0.1,1.3-1.5,1.6-4.1,0.8C90.1,51,87.6,50.9,84.4,49.5z
		 M101.9,54c-0.1,0.1-0.2,0.1-0.3,0.1v-0.2L101.9,54z"/>
	<path fill="#fff" d="M123.9,51.8l0.1-0.2h-0.2c-0.1,0-0.2,0.1-0.2,0.1l-0.3-0.1v-1.1h-0.2c0,0.6-0.1,0.9-0.2,0.9l-0.4-0.1v-2.1
		c0-0.1,0.1-0.2,0.2-0.2c-0.1-0.3-0.2-0.4-0.2-0.6l0.2-0.9c-0.5,0-0.8-0.8-0.9-2.4l-0.6-0.4l-0.2,1.9l0.2,1.7
		c-0.1,1.6-0.3,2.4-0.6,2.4h-0.2v-0.6c0-0.7,0.1-1.2,0.2-1.7c-0.1-0.7-0.2-1.2-0.2-1.5c0.1-1.2,0.2-1.9,0.4-1.9l-0.2-0.4
		c0.3-0.5,0.4-1,0.4-1.5V40c0-0.3-0.1-0.4-0.4-0.4c0,0.3-0.1,0.4-0.2,0.4l0.2,0.4c-0.1,2.4-0.2,4-0.2,4.9c-0.2,0-0.6,0.5-1.3,1.5
		h-0.4c-0.3-0.5-0.4-0.9-0.4-1.3c0.1-1.1,0.2-1.8,0.2-2.1c0.6,0,1.1-0.6,1.3-1.7c-0.1-0.9-0.2-1.6-0.2-2.1v-0.9
		c0-0.3-0.1-0.4-0.4-0.4h-0.2c-0.5,3.4-0.9,5.1-1.1,5.1c-0.4,0.8-0.6,1.1-0.7,1.1l-0.2-0.4V43h0.4l-0.2-0.9c-0.3,0-0.4,0.6-0.6,1.9
		l-0.6,0.4v-0.4c0-1,0.3-2.6,0.9-5v-1l0.6-0.7V37l-0.3,0.2v-0.8c-0.3,0-0.4-0.1-0.4-0.4v-4.9c0-0.5,0.1-1,0.2-1.7
		c-0.1-0.1-0.2-0.6-0.2-1.3c0.1-1.3,0.2-2.1,0.2-2.2l-0.4-0.2h-0.2c-0.3,0-0.4,0.1-0.4,0.3c0.1,0.2,0.2,0.5,0.2,0.8h-0.6
		c0.1-2.3,0.3-3.4,0.6-3.4v-0.6c-0.3-0.9-0.4-1.4-0.4-1.5v-0.2c0-1.3,0.1-2.4,0.2-3.2c-0.1-0.9-0.2-2-0.2-3.4v-1.1
		c0-0.3,0.1-0.5,0.2-0.8l-0.4-3.2c0-2.5,0.6-3.8,1.7-3.8c0.3,0,0.4,0.4,0.4,1.1h0.8c0-0.7,0.1-1.1,0.4-1.1h0.7
		c0.1,0,0.2,0.1,0.2,0.2l0.4-0.2l0.3,0.2c0-0.6,0.1-0.9,0.4-0.9c0.2,0.9,0.4,1.3,0.8,1.3c0-0.3,0.4-0.7,1.3-1.3l0.2,0.4v0.9h0.6
		c0.1-1,0.3-1.5,0.6-1.5c0.3,0.3,0.4,0.5,0.4,0.7c0.6,0,1.5-0.2,2.6-0.7c0.1,0.2,0.2,0.5,0.2,0.9h0.2l0.8-1.1l0.8,1.1h0.4V4.7
		c0-0.3,0.1-0.4,0.4-0.4h0.6l0.4,0.2c0-0.3,0.1-0.4,0.4-0.4h0.4c0.2,0,0.3,0.1,0.3,0.4h-0.7v0.2c0,0.2,0.2,0.4,0.6,0.6l0.6-0.4h0.2
		l1.3,0.9h0.2l0.8-1.1l0.8,0.6c0-0.4,0.2-0.6,0.6-0.6c0.6,0,0.9,0.1,0.9,0.4l0.4-0.2c0.3,0,0.4,0.2,0.4,0.7l0.6-0.3
		c0,0.1,0.1,0.2,0.2,0.2c0-0.4,0.1-0.6,0.4-0.6c0.1,0,0.2,0.1,0.2,0.2l0.4-0.2c0.6,0,0.9,0.4,0.9,1.1c0.9-0.6,1.8-0.9,2.4-0.9h0.4
		c0.3,0,0.5,0.4,0.8,1.1l0.4-0.2h0.2v0.4c0,0.1-0.1,0.2-0.2,0.2c0.2,0,0.4,2.7,0.6,8.1c0,1.6-0.5,2.8-1.5,3.7H143
		c-0.3,0-0.4-0.4-0.4-1.1l-0.4,0.2c-0.1,0-0.2-0.1-0.2-0.2c-0.3,0-0.7,0.3-1.1,0.9c-0.3,0-0.4-0.5-0.6-1.5h-0.2
		c-0.1,0.8-0.3,1.1-0.6,1.1h-0.4c-0.1,0-0.2-0.1-0.2-0.2c-0.2,0-0.5,0.3-0.9,0.9c-0.3,0-0.4-0.4-0.4-1.1c-0.4,0-0.6,0.3-0.6,0.9
		h-0.4c-0.2,0-0.3-0.3-0.3-0.9c-0.5,0-0.8,0.3-0.8,0.8h-0.2c-0.3,0-0.4-0.2-0.4-0.6c-0.3,0.3-0.5,0.4-0.6,0.4l-0.8-0.4l-0.7,0.4
		c0-0.3-0.1-0.4-0.4-0.4h-0.2c-0.3,0.3-0.5,0.4-0.6,0.4c-0.3,0-0.4-0.3-0.4-0.8H131c-1,0-1.5,1.9-1.5,5.8c0.5,0.8,0.9,1.1,1.3,1.1
		V24c1.1,0.5,1.7,0.8,1.7,0.9l0.9-0.2h0.2v0.4h0.6c0.3,0,0.4-0.2,0.4-0.7l2.8,0.3c0-0.5,0.4-0.7,1.1-0.7l0.2,0.4l0.4-0.2
		c0.7,0.3,1.1,0.6,1.1,0.8v0.9h0.4c0-1,0.5-1.5,1.5-1.5c0.2,0.6,0.6,1.1,1.1,1.7c0.3,0,0.4-0.2,0.4-0.6h0.2c0,0.3,0.3,0.8,0.9,1.7
		c-0.3,6.4-0.6,9.6-1.1,9.6c-0.1,0-0.2,0.1-0.2,0.2c-0.6-0.2-1.2-0.5-1.9-0.9v-1.3h-0.2c0,1-0.1,1.5-0.4,1.5c-0.3,0-0.4-0.1-0.4-0.4
		v-1.7l-0.2-0.9h-0.2c0,2.8-0.2,4.1-0.7,4.1c-0.1-0.2-0.2-0.6-0.2-1.1l-0.4,0.2l-0.4-0.2c0,0.5-0.1,0.8-0.3,0.8H138
		c-0.3,0-0.4-0.3-0.4-0.9h-0.4c0,0.6-0.1,0.9-0.4,0.9c-0.2,0-0.4-0.4-0.6-1.1l-0.4-0.2c0,0.1-0.4,0.7-1.1,1.9
		c-0.3,0-0.4-0.2-0.4-0.6c0.1-1.1,0.2-1.8,0.2-2.1h-0.8c-0.1,1.1-0.3,1.7-0.6,1.7h-0.4v-0.2c0-1.1,0.3-2.6,0.8-4.5
		c0-0.1-0.1-0.5-0.2-1.1c0.1-0.2,0.2-0.5,0.2-0.8c-0.2-0.5-0.4-0.8-0.6-0.8V30c0,3.7-0.6,5.8-1.9,6.5c-0.1-0.2-0.2-0.5-0.2-0.9h-0.2
		c0,1.1-0.2,1.7-0.6,1.7c0-0.1-0.1-0.2-0.2-0.2l0.2-1V36c-0.3,0.1-0.4,0.2-0.6,0.2v1l-0.2,1.3h0.9c0.3,0,0.4,0.1,0.4,0.4
		c-0.2,0.1-0.4,0.2-0.7,0.2c0,0.1,0.6,0.4,1.7,0.8v0.4l1.3-0.2v-0.4l-0.8-0.7l0.4-0.2c1.6,1.5,2.4,3.2,2.4,4.9
		c0.1,0.2,0.8,1,2.3,2.2V48h0.4l0.2-1.9v-0.6l-0.2-0.9c0.5-0.6,0.8-0.9,0.9-0.9h0.4c0.2,0,0.5,0.4,0.9,1.1V45c0,0.2-0.3,0.4-0.9,0.6
		c0-0.2-0.1-0.3-0.4-0.3v0.2c0.4,1.1,0.6,1.7,0.6,1.9h0.2c0-0.6,0.1-0.9,0.3-0.9h0.2c0.3,0.6,0.6,0.9,0.8,0.9
		c0.3,0.5,0.5,0.8,0.7,0.8c-0.4,2.2-1,3.7-2,4.5c-0.3-0.3-0.5-0.4-0.6-0.4h-0.2V53l-2.4,1.5c-0.1-0.2-0.4-0.4-0.9-0.5l-0.2,0.4
		l-0.3-0.2h-0.2v0.4l0.6,0.6l-0.3,0.1h-0.3v0.2l-1.5,0.9c0.1-0.4,0.2-0.7,0.2-0.8c-0.1-0.3-0.2-0.4-0.2-0.6l-0.4,0.2
		c-0.3,0-0.4-0.4-0.4-1.1H132c-0.3,0-0.4,0.1-0.4,0.4V55l-4.7-2v-0.7h-0.2c0,0.1-0.1,0.3-0.3,0.5l-1-0.4v-0.1c0-0.3-0.1-0.4-0.4-0.4
		h-0.2l0.1,0.3L123.9,51.8z M127.4,36v0.8h0.2V36H127.4z M135.7,2.1h0.4v0.8h-0.4V2.1z M143.9,45.6h0.4c0,0.4-0.1,0.7-0.2,1l0.2,1.1
		c-0.1,0.8-0.3,1.1-0.6,1.1h-0.4V48C143.4,46.4,143.6,45.6,143.9,45.6z"/>
	<path fill="#fff" d="M178,52.4v-0.4c0-0.2-0.5-0.6-1.5-1.3V52l-0.8-0.2v-0.2c-0.2-0.3-0.3-0.5-0.3-0.6v-0.4h0.6v-0.3c0-0.3-0.1-0.4-0.4-0.4
		h-0.2c-0.1,1.1-0.3,1.7-0.6,1.7h-0.4v-2.8H174v0.7h-0.2c-0.2,0-0.3-0.1-0.3-0.4c-0.4,0-0.6,0.2-0.6,0.6c-0.3,0-0.4-0.1-0.4-0.3
		l0.2-0.4c-0.3-0.8-0.5-1.3-0.7-1.3l-0.2,0.3l0.2,2.2c-0.1,1.6-0.3,2.4-0.8,2.4c-0.6-1.2-1-1.8-1.3-1.8c0.2-0.8,0.3-1.1,0.6-1.1
		c0.4,0.9,0.6,1.5,0.6,1.9h0.2l0.2-1.7c-0.2,0-0.5-0.4-0.9-1.1l0.2-0.8v-0.2h-0.2c0,0.5-0.2,0.7-0.6,0.7c0,0.7-0.1,1.6-0.4,2.8
		c0.3,0,0.4,0.1,0.4,0.3v0.2c-0.4,0.1-0.7,0.2-0.7,0.2c-1-0.7-1.5-1.3-1.5-1.7l0.2-1.1c-0.3,0-0.4-0.1-0.4-0.4v-1.8
		c0-0.3-0.1-0.4-0.3-0.4H167l0.2,1.3L167,49l0.2,0.9l-0.4,3.1h-0.4c0-0.6,0.1-1.9,0.2-4.1l-0.2-1.7c0-0.1,0.3-1.5,0.8-4.2
		c0.5,0,0.7-0.9,0.7-2.6v-0.9c0.4,0,0.6-0.1,0.6-0.4v-0.9l-0.4,0.2c-0.2,0-0.3-0.1-0.3-0.4v-4.6c0-0.6,0.1-1.2,0.2-1.8
		c-0.1-0.5-0.2-1-0.2-1.5c0.1-1.1,0.2-1.8,0.2-2l-0.4-0.2h-0.2l-0.4,0.2l0.2,0.4v0.9c0,0.1-0.1,0.2-0.2,0.2c0,0.1,0.1,0.2,0.2,0.2
		c0,0.1-0.1,0.3-0.2,0.6l0.2,1.3c0,0.6-0.2,1.1-0.6,1.7V35l-0.2,1.3c0.5,0,0.8,0.2,0.8,0.6c0,0.3-0.1,0.8-0.2,1.4
		c0.1,1.3,0.2,2,0.2,2.2c0,0.9-0.4,2.7-1.3,5.3c-0.1,1-0.3,1.5-0.6,1.5h-0.4v-0.8c0-2.2,0.2-3.3,0.6-3.3c0,0.1,0.1,0.2,0.2,0.2
		c0-1.5,0.3-2.2,0.9-2.2v-0.4c0-0.6-0.1-1-0.4-1.4c0.3-1,0.4-1.7,0.4-2.2v-0.7h-0.2c0,0.8-0.2,1.3-0.6,1.7v0.8
		c0,0.1,0.1,0.2,0.2,0.2c-0.3,1.2-0.6,2.3-0.9,3.3v0.2h-0.4l0.9-7v-0.9c0-0.6-0.1-1.2-0.2-1.8l0.3-3.1l-0.6-0.4h-0.2v4.2
		c0,1.7-0.2,2.7-0.6,3.1v0.6c0,2.6-0.3,4.2-0.8,4.6h-0.3c0.2-2.2,0.3-4,0.3-5.3c-0.3,0.3-0.5,0.4-0.7,0.4l0.2,0.3
		c-0.2,0.6-0.6,0.9-1.1,0.9v0.2l0.2,0.9c-0.4,0.1-0.6,0.6-0.6,1.5V42c0,0.2-0.1,0.3-0.3,0.3l-0.2-0.3v-2l0.6-3.7v-0.4h-0.2v0.6h-0.4
		c0-0.5-0.1-1.2-0.2-2c0.1-2.1,0.2-4.1,0.2-6.1c0-0.1,0.1-0.2,0.2-0.2c-0.1-0.3-0.2-0.4-0.2-0.6c0.1-0.4,0.2-0.7,0.2-0.7
		c-0.1-0.3-0.2-0.4-0.2-0.6c0-0.1,0.1-0.2,0.2-0.2l-0.2-1.3v-5.9c0-1.9,0.7-4.3,2.2-7.2c1.8-2,2.8-3,2.8-3.1h0.4v0.6h0.6
		c0-0.3,0.3-0.7,0.9-0.9h0.2c0.3,0,0.4,0.2,0.4,0.6h0.2c0-0.4,0.6-1.3,1.7-2.8c0.1,0.4,0.2,0.6,0.4,0.6c0.6-0.3,1.6-0.7,3.1-0.9
		c0-0.4,0.1-0.6,0.4-0.6l0.7,0.7h0.4c0-0.4,0.1-0.6,0.3-0.6c0.3,0,0.4,0.2,0.4,0.7h0.2c0.8-0.5,1.2-0.9,1.3-1.3h0.7
		c0.3,0,0.4,0.2,0.4,0.7l1.3-0.2c0,0.4,0.3,0.6,0.9,0.6c0-0.3,0.1-0.5,0.2-0.7l2.2,0.9c0.2-0.1,0.4-0.2,0.7-0.2c0,0.4,0.7,0.7,2,0.9
		c0.6,0.7,1.4,1.1,2.2,1.1V9c0.3,0,0.5,0.1,0.8,0.2V8.6h0.2c0.7,0.5,1.2,1.2,1.5,2.2c1.1,0.5,1.7,1.4,1.7,2.8l0.4-0.2
		c0.5,0.5,0.8,1.3,1.1,2.6c-0.1,0.5-0.2,0.9-0.2,1.3l0.3-0.2h0.2l0.2,1.7c0,0.9-0.1,1.8-0.2,2.6c0.1,1.3,0.2,2.7,0.2,4.2v1.7
		c0,0.1-0.1,0.2-0.2,0.2l0.2,0.3v0.4c0,0.1-0.1,0.2-0.2,0.2c0,0.1,0.1,0.2,0.2,0.2l-0.2,2.2v2.2c0,0.3,0.1,0.5,0.2,0.8
		c-0.1,0.2-0.2,0.4-0.2,0.7c0,0.6,0.1,1.2,0.2,1.9c-0.1,2.2-0.3,3.4-0.6,3.7c0.3,0,0.4,0.2,0.4,0.6c0,0.4-0.1,0.8-0.2,1.3
		c0.1,0.6,0.2,1.3,0.2,1.9V44c0,0.1-0.1,0.2-0.2,0.2c0,0.1,0.1,0.2,0.2,0.2c-0.3,3-0.6,4.4-1.1,4.4c-0.1,1.4-0.3,2-0.6,2h-0.2V49
		h-0.7v-0.7l0.2-0.4c-0.3,0-0.4-0.7-0.6-2.2c0.3,0,0.5-0.8,0.8-2.4c0.2,0,0.4-0.6,0.6-1.7v-0.6h-0.2c0,0.7-0.2,1.1-0.6,1.1
		c0,0.1,0.1,0.2,0.2,0.2c-0.3,0.8-0.7,1.4-1.5,1.9c0,0.5-0.1,0.7-0.2,0.7c0,0.1,0.1,0.3,0.2,0.8c-0.1,1.5-0.2,2.4-0.2,2.6l0.2,0.9
		c-0.5,0-0.8,0.5-0.8,1.5c0.3,0,0.4,0.4,0.4,1.1h-0.6v0.9c-0.5,0.5-0.7,0.9-0.7,1.1l0.2,0.9c0,0.9-0.4,1.7-1.1,2.6
		c-1.1-0.3-1.7-0.6-1.7-0.9v-1.3c0-1.1-0.4-1.8-1.1-2.2c0.3-0.8,0.5-1.3,0.8-1.3c0,0.1,0.1,0.2,0.2,0.2c0.1-0.2,0.2-0.4,0.2-0.6
		v-1.3h-0.2V51h-0.4c0-0.5-0.2-0.7-0.6-0.7H185l-0.4,2c0,0.3,0.3,0.8,0.9,1.5l-0.4,0.2l-0.3-0.2c0,0.2-0.1,0.3-0.2,0.3l-0.3-0.1
		c-0.1-0.2-0.1-0.6-0.1-1.2h-0.2c0,0.4-0.2,0.6-0.6,0.6v0.4L178,52.4z M173.4,35.1v1.7c0.2,0,0.3-0.1,0.3-0.4v-1.3H173.4z
		 M178.2,17.3c-0.3-0.4-0.4-0.7-0.4-0.9h-0.2c-0.5,0.6-0.8,0.9-0.9,0.9c-0.1-0.3-0.2-0.4-0.2-0.6h-0.2c-1.2,1.6-1.8,3.4-1.8,5.3v0.6
		c0,1.1,0.2,1.9,0.7,2.4v0.2c-0.3,0.9-0.6,1.5-0.9,1.7c0.1,0.4,0.2,0.6,0.3,0.6l-0.2,0.7c0,0.3,0.1,0.5,0.2,0.7
		c-0.2,1.9-0.3,4.4-0.3,7.6v1.7l0.2,1.1c-0.1,0.2-0.2,0.5-0.2,0.9v0.6H174v0.8c0,0.2,0.1,0.3,0.4,0.3c-0.1,0.3-0.2,0.4-0.2,0.6
		l0.2,0.9c-0.3,0-0.4,0.1-0.4,0.4v2c0,0.2,0.6,0.6,1.8,1.1l0.4-0.2c0.2,0.1,0.4,0.2,0.7,0.2h0.2c0.2,0,0.4-0.5,0.7-1.5l-0.6-0.4
		c-0.1,0.2-0.2,0.5-0.2,0.8h-0.6v-0.2c0-0.4,0.2-0.6,0.6-0.6v-0.6h-0.4v0.4h-0.4v-0.2c0.3-1.2,0.4-1.9,0.4-2c-0.3,0-0.4-0.2-0.4-0.6
		c0.8-1.1,1.1-1.9,1.1-2.2h-0.6v0.4h-0.3v-0.7c0.5,0,1-0.7,1.7-2.2c-0.3,0-0.5-0.4-0.7-1.3h-0.2c0,0.4-0.1,0.7-0.2,0.9l0.4,0.7
		c-0.3,0.6-0.5,0.9-0.8,0.9h-0.2l0.2-1.1c-0.1-1.1-0.2-2-0.2-2.8v-0.3c0.4-0.7,0.6-1.1,0.7-1.1c-0.4-1.2-0.6-2-0.6-2.2
		c0.3-0.3,0.4-0.7,0.4-1.3c-0.3-0.1-0.4-0.2-0.6-0.2c-0.2,0.6-0.4,0.9-0.6,0.9h-0.2v-0.7c0.2-0.5,0.6-0.8,1.3-0.8
		c0.3,0,0.4,0.2,0.4,0.4c0.3,0,1-0.2,2.2-0.6c0.1,0.1,0.4,0.2,0.9,0.2c0.1-0.2,0.2-0.4,0.2-0.7v-1.5c0-1.4,0.1-3.7,0.2-6.8
		c-0.2,0-0.4-0.7-0.7-2c-0.7-0.4-1.1-1-1.1-1.8h-0.2L178.2,17.3z M174.5,44.7h0.4v0.7h-0.4V44.7z M175.5,34.4h0.2l0.2,0.9
		c0,0.6-0.1,1.5-0.2,2.8c0.1,0,0.2,0.1,0.2,0.2h-0.2c-0.3,0-0.5-0.2-0.6-0.7C175.3,35.9,175.5,34.9,175.5,34.4z M176,26.1
		c0,0.2,0.7,1,2,2.4l-0.4,0.2c-0.7-0.3-1.5-1-2.4-2v-0.4C175.5,26.3,175.8,26.2,176,26.1z M177.8,29.6v0.9h0.4V30
		C178.2,29.8,178.1,29.6,177.8,29.6z M178.8,40.5v0.2c0.1,0.3,0.2,0.4,0.2,0.6c-0.3,0.3-0.6,0.4-0.9,0.4v0.2c0,0.3,0.1,0.4,0.3,0.4
		c0.5-0.2,0.9-0.5,1.1-0.9c-0.2,0-0.3-0.2-0.3-0.7H178.8z M178.9,44.2l-0.3-0.2c-0.4,0.1-0.6,0.3-0.6,0.4l0.2,0.9h0.2
		c1.1-0.7,1.7-1.2,1.7-1.3v-0.2c0-0.3-0.1-0.4-0.4-0.4L178.9,44.2z M178.4,32.2c0.3,1.1,0.6,1.7,0.9,1.7c0.3,0,0.4-0.1,0.4-0.4
		c-0.6-0.6-0.9-1.1-0.9-1.7C178.5,31.9,178.4,32,178.4,32.2z M178.6,30.4v0.2c0,0.2,0.1,0.3,0.3,0.3v-0.6H178.6z M178.6,46.4h0.2
		c0.2-0.1,0.4-0.2,0.7-0.2l0.6,0.3h0.3c-0.1-0.2-0.2-0.4-0.2-0.6c0-0.1,0.1-0.6,0.2-1.4C179.9,44.6,179.3,45.2,178.6,46.4z
		 M179.3,30v0.2l0.9-0.2c0,0.8,0.2,1.3,0.6,1.3h0.2l-0.3-1.9h-0.8C179.7,29.4,179.5,29.6,179.3,30z M179.3,32c0.6,1,1,1.6,1.1,1.9
		h0.2l0.3-0.2c0-0.1-0.1-0.2-0.2-0.2l0.2-0.9v-0.9h-0.6C180.1,31.7,179.7,31.8,179.3,32z M179.7,36.4v0.4l0.4,1.3
		c0.4-0.1,0.6-0.5,0.6-1.1c0-0.2-0.2-0.4-0.6-0.6H179.7z"/>
	<path fill="#fff" d="M206.4,54.9c0.1-0.3,0.2-0.8,0.2-1.3l-0.3-0.2c-0.7,0.2-1.1,0.5-1.4,0.9l-0.8-0.3v-1.3l-0.2-0.9c0.5,0.1,0.7,0.4,0.7,0.7
		h0.2c0-0.4,0.2-0.9,0.6-1.5v-0.2c-0.3,0.3-0.5,0.4-0.6,0.4V51l-0.7,0.4c0-0.2-0.2-0.3-0.6-0.6c0,0.2-0.2,0.4-0.7,0.7
		c-0.5-0.6-0.7-1-0.7-1.3c0.1-0.2,0.2-0.4,0.2-0.6c-0.3,0-0.5-0.7-0.6-2c0.8,0,1.4-0.8,1.8-2.5c-0.8-0.3-1.3-0.5-1.3-0.8
		c0.5-0.6,0.8-1.7,1.1-3.3h0.2c0.3,0,0.4,0.2,0.4,0.7h0.2c0.3,0,0.4-0.1,0.4-0.3c0-0.8,0.1-2,0.2-3.7c-0.5,0.2-0.7,0.5-0.7,0.9h-0.4
		v-0.7c0-0.1,0.1-0.2,0.2-0.2c0-0.1-0.1-0.2-0.2-0.2l0.4-3.3v-0.2h-0.2c0,0.6-0.2,0.9-0.6,0.9c0,2-0.2,2.9-0.7,2.9
		c-0.1-1.1-0.4-1.8-0.7-2.2c0.1-0.8,0.2-1.5,0.2-2v-0.4c-0.2,0-0.3-0.1-0.3-0.2v-0.9H201v0.2h-0.4l0.2-1.3l-0.2-1.9
		c0.3,0,0.4-0.1,0.4-0.3v-0.6c-0.3,0.3-0.5,0.4-0.6,0.4l-0.7-1.8h-0.2v-0.6c0-0.6-0.1-2.1-0.3-4.4h-0.2c0,0.4-0.1,0.6-0.3,0.6
		l-0.2-0.3v-2.6c-0.6,0-0.9-0.5-0.9-1.4c0.1-0.6,0.2-1.2,0.2-1.7c-0.4-0.7-0.6-1.5-0.6-2.4l-0.3,0.2h-0.2V13
		c-0.5-1.4-0.8-2.5-0.8-3.3c-0.1,0-0.2-0.2-0.2-0.6v-2c0.1-0.2,0.2-0.3,0.4-0.3h0.3v0.3h0.4l0.7-1.1c0.1,0.2,0.2,0.6,0.2,1.1h0.6
		c0.1-1.1,0.3-1.6,0.6-1.6h1.1v0.7l1.8-0.2h1.1l0.9-0.9c0.3,0.6,0.6,1.1,1.1,1.4h0.2c0.1-0.7,0.3-1.1,0.5-1.1c0.3,0,0.4,0.2,0.4,0.7
		h0.7c0-0.6,0.1-0.9,0.4-0.9c1,1,1.6,2.2,2,3.5c0.3,0.6,0.4,1.5,0.6,2.5c0.1,0,0.2,0.1,0.2,0.2v0.3c0,0.1-0.1,0.2-0.2,0.2
		c0.3,0.3,0.4,1.1,0.6,2.2l-0.2,1.8c0.5,0.7,1,1.8,1.7,3.4h0.2l-0.2,0.9c0,0.2,0.1,0.7,0.3,1.4l-0.3,0.2c0.1,0.4,0.2,0.6,0.3,0.6
		c0,0.1-0.1,0.3-0.2,0.5c0.6,3.9,0.9,6.1,0.9,6.4l0.6,0.7c0,0.4-0.1,0.6-0.2,0.6c0.3,1.4,0.4,2.3,0.4,2.9h0.2c0.2,0,0.3-0.1,0.3-0.3
		v-0.6c0-0.3-0.1-0.5-0.2-0.8c0.3,0,0.6-1.8,0.9-5.3c-0.3-0.8-0.4-1.4-0.4-1.7c0-0.5,0.4-1.1,1.3-2c-0.2-0.3-0.3-0.5-0.3-0.5
		c0.4-0.1,0.6-0.5,0.6-1.1v-1.1c-0.3,0-0.9-0.2-1.9-0.6v-0.4c1,0.2,1.6,0.4,2,0.8c1.2-5,2-9.1,2.4-12.4c0.7-1.3,1.2-2,1.4-2.2h1.3
		c0.3,0,0.4,0.2,0.4,0.7h0.4c0.2,0,0.3-0.1,0.3-0.4l0.4,0.2l0.7-0.9c0.1,0.2,0.2,0.6,0.2,1.1h1.8c0.2,0,0.4-0.4,0.6-1.1l0.9,0.2h0.2
		l1.1-0.2l0.7,0.4c0.3-0.1,0.4-0.2,0.6-0.2c0.3,0,0.9,0.2,1.7,0.7V5.9h0.6c0.3,0,0.5,0.4,0.6,1.3c0,1.5-2.4,12.6-7.1,33.3
		c-1.2,6.1-2,9.1-2.4,9.1c0,0.3-0.1,0.4-0.4,0.4l0.2,0.3v1.3c-0.8,3.3-1.3,5-1.4,5c0-0.4-0.2-0.6-0.7-0.6c-0.1,0.7-0.2,1.2-0.2,1.6
		h-0.4c-0.3,0-0.4-0.1-0.4-0.3v-1.7l0.2-0.4l-0.8-0.2c-0.3,0.8-0.6,1.3-0.7,1.3l0.2,0.9c0,2-0.2,2.9-0.5,2.9
		c-0.1-0.2-0.2-0.4-0.2-0.6c0-0.1,0.1-0.6,0.2-1.5h-0.2c-0.2,0-0.4,0.4-0.7,1.1c0.3,0.4,0.4,0.7,0.4,0.9c-0.2,0.1-0.4,0.2-0.6,0.2
		l0.2,0.4l-1.8,0.8c0,0-0.1,0-0.2,0h-0.2l-1.3,0.7h-0.7v-0.4c0.8,0,1.5-0.4,2-1.3V60c0-0.6-0.2-0.9-0.6-0.9v-0.2
		c0-0.1,0.1-0.6,0.4-1.5l-1.8,1.7l-0.2-0.4v-0.2c0.5-0.5,0.7-1,0.7-1.5v-0.7h-0.2v0.4h-0.4v-0.2c0.1-0.2,0.2-0.4,0.2-0.6l-0.3-0.2
		c-0.4,0.6-0.6,1-0.8,1.1l-0.4-0.1l-0.2-0.2c0.2-0.5,0.4-0.8,0.6-0.8l-0.2-0.3v-0.9c-0.1,0-0.3-0.1-0.6-0.2v0.2
		c0.1,0.3,0.2,0.4,0.2,0.6l-0.7,0.6h-0.2l-0.4-0.2l0.2-0.9v-0.3c-0.7,0.4-1.1,0.7-1.1,0.7c0,0.3,0,0.6-0.1,0.9l-1-0.4l-0.8-0.3
		L206.4,54.9z M201.1,13.6v0.9h0.7l-0.2-0.9H201.1z M205.9,2.8h0.4v0.7h-0.4V2.8z M214.8,24.8v0.9c0.3,0,0.4-0.1,0.4-0.4v-0.9
		C215,24.5,214.8,24.7,214.8,24.8z M220.7,46.6l-0.2,0.9v0.6h0.2l0.2-0.9v-0.6H220.7z M222,46.8c-0.5,1.1-0.7,2.2-0.7,3.5v0.2h0.2
		c0-0.4,0.2-0.6,0.6-0.6c0-0.7,0.1-1.7,0.2-2.9v-0.2H222z M222.7,45.2v0.9h0.2v-0.9H222.7z M224.2,37.3v1.4l-0.2,0.9h0.6l0.4-2.2
		L224.2,37.3z"/>
	<path fill="#fff" d="M241.8,51.8l0.1-0.2h-0.2c-0.1,0-0.2,0.1-0.2,0.1l-0.3-0.1v-1.1H241c0,0.6-0.1,0.9-0.2,0.9l-0.4-0.1v-2.1
		c0-0.1,0.1-0.2,0.2-0.2c-0.1-0.3-0.2-0.4-0.2-0.6l0.2-0.9c-0.5,0-0.8-0.8-0.9-2.4l-0.6-0.4l-0.2,1.9l0.2,1.7
		c-0.1,1.6-0.3,2.4-0.6,2.4h-0.2v-0.6c0-0.7,0.1-1.2,0.2-1.7c-0.1-0.7-0.2-1.2-0.2-1.5c0.1-1.2,0.2-1.9,0.4-1.9l-0.2-0.4
		c0.3-0.5,0.4-1,0.4-1.5V40c0-0.3-0.1-0.4-0.4-0.4c0,0.3-0.1,0.4-0.2,0.4l0.2,0.4c-0.1,2.4-0.2,4-0.2,4.9c-0.2,0-0.6,0.5-1.3,1.5
		h-0.4c-0.3-0.5-0.4-0.9-0.4-1.3c0.1-1.1,0.2-1.8,0.2-2.1c0.6,0,1.1-0.6,1.3-1.7c-0.1-0.9-0.2-1.6-0.2-2.1v-0.9
		c0-0.3-0.1-0.4-0.4-0.4h-0.2c-0.5,3.4-0.9,5.1-1.1,5.1c-0.4,0.8-0.6,1.1-0.7,1.1l-0.2-0.4V43h0.4l-0.2-0.9c-0.3,0-0.4,0.6-0.6,1.9
		l-0.6,0.4v-0.4c0-1,0.3-2.6,0.9-5v-1l0.6-0.7V37l-0.3,0.2v-0.8c-0.3,0-0.4-0.1-0.4-0.4v-4.9c0-0.5,0.1-1,0.2-1.7
		c-0.1-0.1-0.2-0.6-0.2-1.3c0.1-1.3,0.2-2.1,0.2-2.2l-0.4-0.2h-0.2c-0.3,0-0.4,0.1-0.4,0.3c0.1,0.2,0.2,0.5,0.2,0.8h-0.6
		c0.1-2.3,0.3-3.4,0.6-3.4v-0.6c-0.3-0.9-0.4-1.4-0.4-1.5v-0.2c0-1.3,0.1-2.4,0.2-3.2c-0.1-0.9-0.2-2-0.2-3.4v-1.1
		c0-0.3,0.1-0.5,0.2-0.8l-0.4-3.2c0-2.5,0.6-3.8,1.7-3.8c0.3,0,0.4,0.4,0.4,1.1h0.8c0-0.7,0.1-1.1,0.4-1.1h0.7
		c0.1,0,0.2,0.1,0.2,0.2l0.4-0.2l0.3,0.2c0-0.6,0.1-0.9,0.4-0.9c0.2,0.9,0.4,1.3,0.8,1.3c0-0.3,0.4-0.7,1.3-1.3l0.2,0.4v0.9h0.6
		c0.1-1,0.3-1.5,0.6-1.5c0.3,0.3,0.4,0.5,0.4,0.7c0.6,0,1.5-0.2,2.6-0.7c0.1,0.2,0.2,0.5,0.2,0.9h0.2l0.8-1.1l0.8,1.1h0.4V4.7
		c0-0.3,0.1-0.4,0.4-0.4h0.6l0.4,0.2c0-0.3,0.1-0.4,0.4-0.4h0.4c0.2,0,0.3,0.1,0.3,0.4h-0.7v0.2c0,0.2,0.2,0.4,0.6,0.6l0.6-0.4h0.2
		l1.3,0.9h0.2l0.8-1.1l0.8,0.6c0-0.4,0.2-0.6,0.6-0.6c0.6,0,0.9,0.1,0.9,0.4l0.4-0.2c0.3,0,0.4,0.2,0.4,0.7l0.6-0.3
		c0,0.1,0.1,0.2,0.2,0.2c0-0.4,0.1-0.6,0.4-0.6c0.1,0,0.2,0.1,0.2,0.2l0.4-0.2c0.6,0,0.9,0.4,0.9,1.1c0.9-0.6,1.8-0.9,2.4-0.9h0.4
		c0.3,0,0.5,0.4,0.8,1.1l0.4-0.2h0.2v0.4c0,0.1-0.1,0.2-0.2,0.2c0.2,0,0.4,2.7,0.6,8.1c0,1.6-0.5,2.8-1.5,3.7h-0.6
		c-0.3,0-0.4-0.4-0.4-1.1l-0.4,0.2c-0.1,0-0.2-0.1-0.2-0.2c-0.3,0-0.7,0.3-1.1,0.9c-0.3,0-0.4-0.5-0.6-1.5h-0.2
		c-0.1,0.8-0.3,1.1-0.6,1.1h-0.4c-0.1,0-0.2-0.1-0.2-0.2c-0.2,0-0.5,0.3-0.9,0.9c-0.3,0-0.4-0.4-0.4-1.1c-0.4,0-0.6,0.3-0.6,0.9
		h-0.4c-0.2,0-0.3-0.3-0.3-0.9c-0.5,0-0.8,0.3-0.8,0.8h-0.2c-0.3,0-0.4-0.2-0.4-0.6c-0.3,0.3-0.5,0.4-0.6,0.4l-0.8-0.4l-0.7,0.4
		c0-0.3-0.1-0.4-0.4-0.4h-0.2c-0.3,0.3-0.5,0.4-0.6,0.4c-0.3,0-0.4-0.3-0.4-0.8h-0.6c-1,0-1.5,1.9-1.5,5.8c0.5,0.8,0.9,1.1,1.3,1.1
		V24c1.1,0.5,1.7,0.8,1.7,0.9l0.9-0.2h0.2v0.4h0.6c0.3,0,0.4-0.2,0.4-0.7l2.8,0.3c0-0.5,0.4-0.7,1.1-0.7l0.2,0.4l0.4-0.2
		c0.7,0.3,1.1,0.6,1.1,0.8v0.9h0.4c0-1,0.5-1.5,1.5-1.5c0.2,0.6,0.6,1.1,1.1,1.7c0.3,0,0.4-0.2,0.4-0.6h0.2c0,0.3,0.3,0.8,0.9,1.7
		c-0.3,6.4-0.6,9.6-1.1,9.6c-0.1,0-0.2,0.1-0.2,0.2c-0.6-0.2-1.2-0.5-1.9-0.9v-1.3h-0.2c0,1-0.1,1.5-0.4,1.5c-0.3,0-0.4-0.1-0.4-0.4
		v-1.7l-0.2-0.9h-0.2c0,2.8-0.2,4.1-0.7,4.1c-0.1-0.2-0.2-0.6-0.2-1.1l-0.4,0.2l-0.4-0.2c0,0.5-0.1,0.8-0.3,0.8h-0.2
		c-0.3,0-0.4-0.3-0.4-0.9h-0.4c0,0.6-0.1,0.9-0.4,0.9c-0.2,0-0.4-0.4-0.6-1.1l-0.4-0.2c0,0.1-0.4,0.7-1.1,1.9
		c-0.3,0-0.4-0.2-0.4-0.6c0.1-1.1,0.2-1.8,0.2-2.1h-0.8c-0.1,1.1-0.3,1.7-0.6,1.7h-0.4v-0.2c0-1.1,0.3-2.6,0.8-4.5
		c0-0.1-0.1-0.5-0.2-1.1c0.1-0.2,0.2-0.5,0.2-0.8c-0.2-0.5-0.4-0.8-0.6-0.8V30c0,3.7-0.6,5.8-1.9,6.5c-0.1-0.2-0.2-0.5-0.2-0.9h-0.2
		c0,1.1-0.2,1.7-0.6,1.7c0-0.1-0.1-0.2-0.2-0.2l0.2-1V36c-0.3,0.1-0.4,0.2-0.6,0.2v1l-0.2,1.3h0.9c0.3,0,0.4,0.1,0.4,0.4
		c-0.2,0.1-0.4,0.2-0.7,0.2c0,0.1,0.6,0.4,1.7,0.8v0.4L251,40v-0.4l-0.8-0.7l0.4-0.2c1.6,1.5,2.4,3.2,2.4,4.9c0.1,0.2,0.8,1,2.3,2.2
		V48h0.4l0.2-1.9v-0.6l-0.2-0.9c0.5-0.6,0.8-0.9,0.9-0.9h0.4c0.2,0,0.5,0.4,0.9,1.1V45c0,0.2-0.3,0.4-0.9,0.6c0-0.2-0.1-0.3-0.4-0.3
		v0.2c0.4,1.1,0.6,1.7,0.6,1.9h0.2c0-0.6,0.1-0.9,0.3-0.9h0.2c0.3,0.6,0.6,0.9,0.8,0.9c0.3,0.5,0.5,0.8,0.7,0.8
		c-0.4,2.2-1,3.7-2,4.5c-0.3-0.3-0.5-0.4-0.6-0.4h-0.2V53l-2.4,1.5c-0.1-0.2-0.4-0.4-0.9-0.5l-0.2,0.4l-0.3-0.2h-0.2v0.4l0.6,0.6
		l-0.3,0.1h-0.3v0.2l-1.5,0.9c0.1-0.4,0.2-0.7,0.2-0.8c-0.1-0.3-0.2-0.4-0.2-0.6l-0.4,0.2c-0.3,0-0.4-0.4-0.4-1.1h-0.4
		c-0.3,0-0.4,0.1-0.4,0.4V55l-4.7-2v-0.7h-0.2c0,0.1-0.1,0.3-0.3,0.5l-1-0.4v-0.1c0-0.3-0.1-0.4-0.4-0.4h-0.2l0.1,0.3L241.8,51.8z
		 M245.3,36v0.8h0.2V36H245.3z M253.6,2.1h0.4v0.8h-0.4V2.1z M261.8,45.6h0.4c0,0.4-0.1,0.7-0.2,1l0.2,1.1c-0.1,0.8-0.3,1.1-0.6,1.1
		h-0.4V48C261.3,46.4,261.5,45.6,261.8,45.6z"/>
	<path fill="#fff" d="M284.2,56.4c-0.4-0.9-0.7-1.3-0.9-1.3c-0.3,0.2-0.8,0.4-1.4,0.6v-0.2c0.6-0.6,0.9-1.1,0.9-1.2c0.2,0,0.3-0.2,0.3-0.7
		c-0.3,0-0.5-0.5-0.7-1.6c0.3-0.2,0.5-0.3,0.7-0.3v-0.4h-0.7v-0.5h0.2l0.4,0.2l0.2-0.3v-2.1l0.2-0.3l-0.3-0.2H282l0.3-0.7
		c-0.7,0-1-0.1-1-0.3c0.6-0.1,0.9-0.3,0.9-0.5c-0.3,0-0.5-0.1-0.5-0.4v-0.2c0-0.2,0.1-0.3,0.3-0.3l-0.2-0.9l0.3-0.6v-0.2l-0.5-0.7
		V43l0.2-0.3c-0.2,0-0.3-0.1-0.3-0.4v-0.2l0.3-0.5v-0.2c-0.2,0-0.5-0.2-0.9-0.5c-1.6,1.1-2.4,1.9-2.7,2.4v0.3c0.2,0,0.6,0.2,1.1,0.6
		v-0.6h-0.3v-0.5c0-0.2,0.1-0.3,0.3-0.3c0.2,0.7,0.5,1,0.7,1v-0.5h0.3c0.2,0,0.3,0.1,0.3,0.3v0.2c-0.6,0.6-1,1.6-1.2,2.8l0.5,0.3
		l0.3-0.2c0.2,0.1,0.4,0.2,0.7,0.2v0.2c-0.5,0.3-0.7,0.6-0.7,1.1l-1.2,0.9c-0.2,0.9-0.7,1.8-1.8,2.7v0.3h0.2
		c0.2-0.1,0.4-0.2,0.5-0.2l0.2,0.3c-0.2,0-0.5,0.6-0.9,1.8l-1.1,0c-0.3-0.1-0.5-0.6-0.5-1.4c-0.1,0-0.2-0.1-0.2-0.2v-0.2
		c0.3-0.9,0.6-1.7,1-2.3v-2.3c-0.7-0.5-1-1.6-1-3.5h-0.2l-0.2,1.2l0.2,1.6c-0.1,1.6-0.3,2.4-0.6,2.4h-0.2v-0.5l0.2-2.1l-0.3-0.2
		c0.5-2.3,0.7-3.7,0.7-4.2v-0.9l0.2-0.3l-0.4-0.2c-0.2,0-0.3,0.1-0.3,0.3V44c-0.5,0.4-0.8,0.9-0.9,1.6c-0.4,0.1-0.7,0.2-0.7,0.2
		c-0.3-0.6-0.5-1-0.5-1.2c0.2-1.3,0.7-2.2,1.4-2.7l0.2-1c-0.2,0-0.3-0.1-0.3-0.4c0.1-0.8,0.2-1.4,0.2-1.9v-0.2
		c-0.2,0-0.4,0.2-0.5,0.6v0.7c0,1-0.5,2.3-1.4,3.9v0.2h-0.6v-1.8h-0.2c0,0.5-0.2,1.3-0.7,2.3v0.7c0,0.9,0.1,1.7,0.2,2.4l-0.3,2.5
		h-0.3c0-0.4,0.1-1.6,0.2-3.7l-0.2-1.6L271,41V40c-0.4,0.2-0.9,1.7-1.6,4.6h-0.5v-0.7c0-2.1,0.2-3.1,0.5-3.1c0,0.1,0.1,0.2,0.2,0.2
		c0.1-1.3,0.3-2.1,0.6-2.3v-0.7c0-0.2-0.1-0.3-0.4-0.3c0,0.9-0.2,1.4-0.7,1.4v1h-0.3c0.3-2.7,0.5-4.1,0.7-4.2V34
		c0-0.2-0.1-0.3-0.3-0.3h-0.2c0,0.2-0.1,0.4-0.3,0.7v0.5c0,2.5-0.2,4-0.7,4.4h-0.3c0.2-2.1,0.3-3.8,0.3-5.1
		c-0.3,0.2-0.5,0.3-0.7,0.3v0.2h0.3V35c-0.6,0.5-1,0.7-1.2,0.7v0.2l0.2,0.9c-0.4,0.1-0.6,0.5-0.6,1.4v1.4h-0.2
		c-0.2,0-0.3-0.1-0.3-0.3c0.2-2.6,0.3-4.4,0.3-5.6h-0.2v-4.9h0.3v0.3c0.2,0,0.3-0.1,0.3-0.3V28h-0.5c0-0.7,0.2-1.1,0.7-1.1v-0.2
		c-0.3,0-0.4-0.1-0.4-0.2l-0.3,0.2h-0.2c0-0.4-0.1-0.7-0.2-0.9c0.1-1.2,0.2-2.1,0.2-2.8v-1.4c0.5,0,0.8-0.9,0.9-2.6v-0.6h-0.2
		c0,0.5-0.2,1.5-0.5,2.8h-0.3v-1.6c0-0.7,0.1-1.6,0.2-2.6l-0.2-1.1l0.2-0.9c0-0.2-0.1-0.7-0.2-1.8c0-5.4,0.3-8.1,0.9-8.1l0.2,0.3
		v0.9h0.5c0.1-0.8,0.3-1.2,0.5-1.2c0.2,0,0.3,0.4,0.3,1.1h0.6c0-0.8,0.5-1.2,1.6-1.2h0.7c0.4,0.6,0.7,0.9,0.9,0.9
		c0.2-0.5,0.4-0.7,0.6-0.7c0.2,0,0.3,0.3,0.3,0.9h0.5c0-0.8,0.4-1.2,1.2-1.2h0.2v0.5h0.5l0.5-0.3h0.6c0.1,0,0.2,0.1,0.2,0.2l0.3-0.2
		h0.2c0.1,0,0.2,0.1,0.5,0.3h0.4c0-0.3,0.1-0.5,0.3-0.5c0.2,0,0.3,0.2,0.3,0.5h0.7c0-0.3,0.1-0.5,0.4-0.5c0.2,0,0.3,0.2,0.3,0.7h0.2
		l0.7-0.5h0.2c0.3,0,0.5,0.1,0.7,0.2c0.2-0.1,0.9-0.2,1.9-0.3c0.1,0.2,0.2,0.5,0.2,1.1h0.5c0.1,0,0.3-0.1,0.6-0.4v0.2l1-0.3
		c0.7,0,1.5,0.4,2.4,1.1V6.1h0.4c0.7,0.4,1.5,0.7,2.4,1c0,0.5,0.4,0.9,1.1,1.2V8h0.2c0,0.9,0.2,1.4,0.5,1.4c0-0.6,0.1-0.9,0.3-0.9
		h0.2c0.2,0,0.3,0.1,0.3,0.3v0.3c0,0.1-0.1,0.2-0.2,0.2c0.9,1,1.4,1.7,1.4,1.9c0,0.2,0.1,0.7,0.3,1.4l0.3-0.2h0.2v1.2
		c0.3,0,0.5,0.1,0.5,0.3v1.6c0.5,1.1,0.7,1.8,0.7,2.1v1.1c0,0.7-0.1,1.1-0.2,1.2c0.1,0.6,0.2,1.1,0.2,1.6v0.9c0,2-0.6,4.5-1.8,7.5
		c-1.3,1.6-2,2.7-2.1,3.3c0.1,0.2,0.2,0.7,0.3,1.6l0.4-0.2h0.3c0,0.6,0.1,0.9,0.3,0.9c0-0.5,0.2-0.8,0.7-1.1c0.2,0,0.4,0.2,0.6,0.6
		l-0.7,3.1h-0.2c-0.3-0.6-0.5-1-0.5-1.2c0.2,0,0.4-0.4,0.7-1.1l-0.3-0.2c-0.4,0.7-0.7,1.1-0.9,1.1c0-0.3-0.1-0.4-0.4-0.4V37
		c0,0.2,0.4,1,1.1,2.3c-0.3,0.8-0.4,1.2-0.5,1.2c0.2,0.4,0.3,0.7,0.3,1.1v0.3c0,0.2-0.2,0.3-0.7,0.3v1.2c0.3,0.5,0.4,0.7,0.6,0.7
		c-0.2,1.5-0.3,2.5-0.3,3c0.5,0,0.7,0.6,0.7,1.8l-0.5,0.3c-0.5-0.2-0.7-0.4-0.7-0.5l-0.3,0.2l-0.3-0.2V50c-0.5,0-0.7,0.2-0.7,0.7
		l0.2,0.9c0,1.7-0.2,2.6-0.7,2.6l-0.2-0.3v-0.2l0.2-0.9c-0.2,0-0.3-0.2-0.3-0.5c0-0.9,0.2-1.5,0.7-1.8c0.3-1.6,0.4-2.6,0.4-3v-0.7
		c0.2-0.3,0.3-0.5,0.3-0.5l-0.3-0.2c-0.2,0.8-0.3,1.2-0.6,1.2H291V47h-0.2l-0.2,0.9v0.3h0.3v0.3l-0.3,0.5v0.6l-0.3,3.1H290l-0.2-0.9
		v-0.3l0.2-1.2c-0.1,0-0.2-0.1-0.2-0.2l-0.3,0.2h-0.2c-0.3,0-0.5-0.4-0.5-1.1c0.3,0,0.5-0.4,0.5-1.2v-0.9h-0.2v0.5l-0.9-0.2
		l-0.2,0.4c0,0.1,0.1,0.2,0.2,0.2l-0.2,0.9c0.5,1.4,0.7,2.9,0.7,4.4c-0.8,1.4-1.3,2.1-1.4,2.1l-1.1-1.2h-0.2v0.5l0.4,0.6l-0.4,0.5
		l-0.3-0.2h-0.3c0.1,0.1,0.2,0.2,0.3,0.3L284.2,56.4z M275,38.9v0.7h0.2v-0.7H275z M276.3,38.4v2.3c0,0.2,0.1,0.3,0.3,0.3h0.2
		c0-0.1-0.1-0.6-0.3-1.4l0.2-1.2H276.3z M276.4,41.2l-0.2,0.3v0.7h0.2c0-0.2,0.1-0.4,0.3-0.7C276.8,41.3,276.7,41.2,276.4,41.2z
		 M282,15.6c-0.1,0.7-0.3,1-0.5,1c-0.2-0.4-0.3-0.7-0.3-0.9H281l-0.7,0.9c-0.6-0.1-1.2-0.2-1.6-0.2c-0.3,0.8-0.6,1.6-0.7,2.3
		c0.1,1.1,0.2,1.7,0.3,1.7l-0.2,0.9v1.8l0.2,1.1l-0.2,0.3l0.3,1.6c-0.1,0.2-0.2,0.4-0.2,0.5l0.3,0.2l0.7-1.9v-0.2l-0.2-1.1
		c0.1-0.2,0.2-0.4,0.2-0.5l-0.2-0.3c0.1-0.2,0.2-0.4,0.2-0.7h0.3l0.3,4.2c0.5-0.3,0.8-0.5,0.9-0.7v-0.2c-0.4-0.4-0.6-0.8-0.6-1.2
		h0.2c0.7,0.7,1.2,1,1.6,1c0-0.3,0.4-0.5,1.2-0.7c0.2-0.2,0.4-1.4,0.5-3.7l-0.2-0.9c0.1-0.2,0.2-0.5,0.2-0.9c-1-1.5-1.6-2.7-1.8-3.5
		H282z M279.8,37.7h-0.2l-1.2-0.9c-0.1,0.3-0.2,0.9-0.3,2c0.5,0,0.7,0.2,0.7,0.5c-0.2,0-0.3,0.1-0.3,0.3l0.5,0.7
		c0,0.1-0.1,0.3-0.3,0.6V41l0.9-0.2c0.1,0.2,0.2,0.4,0.2,0.5h0.3c0-0.3,0.2-0.5,0.5-0.5v-0.2c0-0.3-0.3-0.5-1-0.7
		c0-0.8,0.5-1.7,1.4-2.6v-0.2c0-0.2-0.2-0.4-0.5-0.6C279.9,36.6,279.8,37,279.8,37.7z M278.4,41.5v0.9h0.3v-0.6
		C278.7,41.7,278.6,41.5,278.4,41.5z M280.3,38.8c0,0.2-0.1,0.4-0.3,0.7c0.1,0.2,0.2,0.4,0.2,0.5h0.5v-0.9
		C280.6,38.9,280.5,38.8,280.3,38.8z M280.5,25.2l0.2,0.3l-0.3,0.2l-0.2-0.3L280.5,25.2z M282.8,28.7V30c0.2,0,0.3-0.1,0.3-0.3v-0.6
		C283.1,28.8,283,28.7,282.8,28.7z M284,37.5h0.6v-0.3h-0.2C284.1,37.2,284,37.3,284,37.5z M285.7,39.8c0,0.5-0.1,0.7-0.3,0.7
		c0.1,0.2,0.2,0.4,0.2,0.7c0.2-0.1,0.4-0.2,0.5-0.2l-0.2-1.2H285.7z M290,23.8v1.1h0.5v-0.7c0-0.3-0.1-0.4-0.3-0.4H290z M293.3,22.6
		v1.9h0.2c0-0.5,0.1-0.9,0.2-1.1c-0.1-0.2-0.2-0.5-0.2-0.9H293.3z M293.3,27.3v2.8h0.2l0.2-1.6l-0.2-1.2H293.3z M294,42.8h0.2
		c0.2,0,0.3,0.1,0.3,0.3H294V42.8z M294.2,43.8h0.2c0.2,0,0.3,0.2,0.3,0.4v0.2h-0.5V43.8z M295,38.9l0.2,0.3l-0.3,0.2h-0.3v-0.3
		C294.6,39.1,294.8,39,295,38.9z"/>
</g>
</svg>
