<?xml version="1.0" encoding="utf-8"?>
<!-- Generator: Adobe Illustrator 22.0.0, SVG Export Plug-In . SVG Version: 6.00 Build 0)  -->
<svg version="1.1" id="Capa_1" xmlns="http://www.w3.org/2000/svg" xmlns:xlink="http://www.w3.org/1999/xlink" x="0px" y="0px"
	 viewBox="0 0 500.6 74.4" style="enable-background:new 0 0 500.6 74.4;" xml:space="preserve">
<g>
	<path d="M16.7,67.2c0.2-0.7,0.3-1.5,0.5-2.4l-0.4-0.2h-0.2c-0.4,1.6-1,2.4-1.9,2.6l-0.6,0c-0.2-0.1-0.4-0.7-0.5-1.7
		c0.3,0,0.4-0.1,0.4-0.4v-0.2c0-0.3-0.3-0.4-0.8-0.4v-0.9h0.2c0.3,0,0.4,0.2,0.4,0.7h0.2c0.3,0,0.5-0.6,0.7-1.9
		c-0.5,0-0.8-0.6-0.9-1.7c-0.3,0-0.4-0.1-0.4-0.4c0-0.2,0.2-0.4,0.6-0.7L13.7,59c0-0.3,0.4-0.8,1.1-1.5l0.4-1.9
		c0-0.3-0.2-0.4-0.6-0.4v-0.4c0-0.2,0.1-0.2,0.2-0.2c0-0.2-0.6-0.7-1.7-1.3c0,0.3-0.2,0.5-0.5,0.5c-0.3,0-0.4-0.2-0.4-0.5v-7.5h-0.4
		c-0.4,3-0.9,4.5-1.5,4.5h-0.2v-0.9l0.5-0.6c-0.1,0-0.2-0.1-0.2-0.2c0.3,0,0.4-0.2,0.4-0.5v-3.4c-0.1,0-0.4-0.1-0.7-0.2v0.8
		c0,0.3,0.1,0.6,0.2,0.9c-0.9,2-1.3,3.4-1.3,4.3l0.2,1.3l-0.5,3H8.4v-0.2c0-0.7,0.1-1.5,0.2-2.6c-0.1-0.7-0.2-1.5-0.2-2.1
		c0.3,0,0.4-0.2,0.4-0.5c-0.1-0.8-0.2-1.4-0.2-1.9H8.4c0,0.5-0.3,1-0.9,1.7c0,0.4-0.3,0.7-0.8,1.1C6.2,50.1,6,49.6,6,48.7
		c0-1.5,0.5-2.5,1.5-3v-0.5c-0.3-0.6-0.6-0.8-1-0.8v-1.5h0.4v0.9h0.4C7.6,41,7.9,39.1,8.1,38c-0.2,0-0.5-0.3-0.9-0.9l0.5-0.2
		c0,0.3,0.2,0.4,0.4,0.4h0.4c0.7,0,1.4-1.3,1.9-3.9l0.4-0.2c0,0.1,0.1,0.2,0.2,0.2c0-2.2,0.6-3.8,1.7-4.7c0-1.2,0.9-2.9,2.8-5.1
		c0-0.4,0.1-1,0.4-1.7c-0.2,0-0.4-0.2-0.6-0.6c0.9-0.7,1.6-1.9,2.1-3.4v-1.3h-0.6c0,0.5-0.1,0.8-0.2,1.1c-1.5-0.2-2.3-0.4-2.6-0.7
		L12,17.7l0.2,0.4v0.2c0,0.3-0.5,0.6-1.5,0.7v-3.2c-0.3,0-0.8,0.9-1.5,2.6c-0.8-0.2-1.5-0.9-2.2-1.9H6.9c0,0.7-0.2,1.1-0.7,1.3
		c-0.1-1-0.5-1.5-1-1.5c0-0.9-0.2-1.3-0.5-1.3H4.3c0,0.7-0.1,1-0.4,1l-0.5-0.6v-4.9c0-0.9-0.1-2-0.2-3.2c0-2.3,0.4-3.4,1.3-3.4
		C4.8,3.6,5,3.5,5.2,3.5c0.1,0.2,0.2,0.6,0.2,1.3h0.8c0-0.9,0.2-1.3,0.5-1.3l1.3,0.6h0.2L9,2.8c0.2,1,0.4,1.5,0.8,1.5
		c0.7-0.8,1.1-1.3,1.1-1.5l0.4-0.2l0.2,0.4v1.1H12l0.9-1.5c0.3,0,0.4,0.3,0.4,0.9h0.6l0.7-0.5h1.1c0-0.3,0.2-0.4,0.4-0.4
		c0.3,0,0.4,0.4,0.4,1.3h0.7c0-0.9,0.1-1.3,0.4-1.3C17.9,2.6,18,3,18,3.7h0.4c0.6-0.6,1.1-0.9,1.5-0.9c1.1,0.4,1.8,0.7,2.2,0.7
		c0-0.3,0.2-0.5,0.4-0.5h0.7c0.3,0,0.4,0.3,0.4,0.9h0.6c0.2-0.9,0.4-1.3,0.7-1.3c0.4,0.3,0.6,0.4,0.9,0.4c1.2-0.1,2-0.2,2.3-0.2
		c0.2,0.2,0.2,0.6,0.2,1.1h0.4l0.9-1.1h1.3c0,0.4,0.1,0.7,0.2,0.7c0.4,0,0.9-0.2,1.5-0.7h0.2l0.4,0.2c0.1-0.3,0.2-0.4,0.5-0.4h0.8
		c1.3,1.2,1.9,2.5,1.9,4.1c-0.1,0.6-0.2,1.1-0.2,1.7c0,0.1,0.1,0.3,0.2,0.6l-0.2,0.9c0.1,1.7,0.2,2.7,0.2,2.8c0,2.5-1.1,5.5-3.2,9
		c-0.2,1.4-0.9,2.7-1.9,3.6c0-0.1-0.1-0.2-0.2-0.2c0,1.3-0.9,3.7-2.6,7.3c0.1,0.2,0.2,0.5,0.2,0.7c-0.3,0-0.4,0.2-0.4,0.4v1.1H28
		c-0.3-0.1-0.5-0.2-0.6-0.2v1.1c0,0.1-0.1,0.6-0.4,1.7h0.6l-0.2,1.1c0,0.3,0.2,0.4,0.4,0.4c0-0.9,0.2-1.3,0.5-1.3l0.2,0.4v1.1
		c0,0.3-0.2,0.5-0.5,0.5l0.2,0.4v0.4c-0.4,0.5-0.7,0.8-0.7,1.1h-0.4v-1.1H27l-0.9,1.1c0-0.1-0.1-0.2-0.2-0.2
		c0.1-0.5,0.2-0.8,0.2-0.9L25.9,39c0.3,0,0.4-0.1,0.4-0.4l-0.4-0.2c-0.4,0-0.6,0.3-0.7,0.9c0.1,0.2,0.2,0.5,0.2,0.6l-0.8,1.5
		c-0.7,0.1-1.1,0.3-1.1,0.7c0.8,0,1.6,0.6,2.6,1.9c0.5,0,1.1,0.1,1.9,0.2c0-0.7,0.2-1,0.5-1h0.2v0.2c0,0.1-0.1,0.2-0.2,0.2
		c0.1,0.6,1,1.2,2.8,1.7v0.5l-0.2,0.4h0.2c0.4,0,1.1-0.6,2.2-1.9c0.3,0.2,0.5,0.2,0.6,0.2l0.4-0.9c1,0.1,1.5,0.3,1.5,0.6v0.2h-0.5
		l-0.4-0.2l-0.2,0.5l0.4,0.6v0.2c-0.9,0.6-1.3,0.9-1.3,1.1c0.1,0.2,0.2,0.5,0.2,0.7l-0.4,0.2h-0.2V47h-0.2v0.2
		c0.1,0.2,0.2,0.5,0.2,0.8l-0.2,0.5h0.4l0.9-0.9h0.4v0.7c0,0.1,0.1,0.6,0.4,1.7v1.3c0,0.7-0.1,1.6-0.4,2.6h0.4v-0.4h0.7v0.2
		c0,0.6-0.1,1.3-0.2,2.4c0,0.1,0.1,0.6,0.2,1.7c-0.1,2-0.3,3-0.7,3h-0.2l0.2-3.4c-0.2-2-0.4-3-0.8-3c0,2.4-0.2,3.6-0.7,3.6l-0.4-0.2
		c0,0.9-0.2,1.3-0.7,1.3l-0.4-0.2c0.4-0.8,0.6-2.1,0.6-3.9c-0.1-1.4-0.3-2.2-0.4-2.4l0.2-1.3v-0.2h-0.4c-0.3,2-0.6,3.4-1.1,4.1
		c0.4,0,0.7,0.2,0.7,0.6c-0.2,1-0.2,1.6-0.2,1.7c-0.3,0-0.4-0.2-0.4-0.7l0.2-0.8c-0.1-0.3-0.2-0.5-0.2-0.7h-0.4v0.2l0.2,0.5
		c-0.3,0-0.4,0.4-0.4,1.3h-0.5v-0.5l0.2-0.4H30l0.2-2.2L29.8,54c0,1.1-0.3,1.7-0.9,1.9c0.1,2,0.4,3.9,0.7,5.6
		c-0.5,0.1-1.2,0.9-1.9,2.4c-0.3-0.1-0.8-0.8-1.5-2.2h-0.2v1.1l0.6,0.9l-0.4,0.6l-0.4-0.2h-0.5c0.2,0.2,0.4,0.5,0.5,0.7l-1.9,0.4
		c-0.6-1-1-1.5-1.2-1.5l-1.9,0.4l0.4-0.7c-0.4,0-0.8-1-1.3-3h-0.2c0,1.1-0.4,2.1-1.1,3c0,0.7-0.3,1.1-0.9,1.1v0.9l0.5,0.3
		c-0.5,0.4-0.8,0.9-0.9,1.5H16.7z"/>
	<path d="M60.5,59.7v-0.5c0-0.2-0.6-0.7-1.8-1.6v1.7L57.8,59v-0.3c-0.3-0.4-0.4-0.6-0.4-0.7v-0.5h0.7v-0.4c0-0.3-0.2-0.5-0.5-0.5
		h-0.2c-0.2,1.3-0.4,2-0.7,2h-0.5v-3.3h-0.7v0.9h-0.2c-0.3,0-0.4-0.2-0.4-0.5c-0.4,0-0.7,0.2-0.7,0.7c-0.3,0-0.5-0.1-0.5-0.4
		l0.2-0.5c-0.4-1-0.6-1.5-0.9-1.5L53,54.5l0.2,2.7c-0.1,1.9-0.4,2.9-0.9,2.9c-0.7-1.5-1.2-2.2-1.5-2.2c0.2-0.9,0.4-1.4,0.7-1.4
		c0.4,1.1,0.7,1.8,0.7,2.2h0.2l0.2-2c-0.2,0-0.6-0.4-1.1-1.3l0.2-0.9v-0.2h-0.2c0,0.6-0.2,0.9-0.7,0.9c0,0.8-0.2,1.9-0.5,3.4
		c0.3,0,0.5,0.2,0.5,0.4v0.2c-0.5,0.1-0.8,0.2-0.9,0.2c-1.2-0.9-1.8-1.5-1.8-2l0.2-1.3c-0.3,0-0.5-0.2-0.5-0.5v-2.2
		c0-0.3-0.1-0.5-0.4-0.5h-0.2l0.2,1.5l-0.2,1.1l0.2,1.1L47,60.5h-0.5c0-0.7,0.1-2.3,0.2-4.9l-0.2-2c0-0.1,0.3-1.8,0.9-5.1
		c0.6,0,0.9-1,0.9-3.1v-1.1c0.4,0,0.7-0.2,0.7-0.5v-1.1L48.5,43c-0.3,0-0.4-0.2-0.4-0.5V37c0-0.7,0.1-1.4,0.2-2.2
		c-0.1-0.6-0.2-1.2-0.2-1.8c0.1-1.3,0.2-2.1,0.2-2.4l-0.5-0.2h-0.2l-0.5,0.2l0.2,0.5v1.1c0,0.2-0.1,0.2-0.2,0.2
		c0,0.1,0.1,0.2,0.2,0.2c0,0.2-0.1,0.4-0.2,0.7l0.2,1.6c0,0.7-0.2,1.3-0.7,2v2l-0.2,1.6c0.6,0.1,0.9,0.3,0.9,0.7
		c0,0.4-0.1,0.9-0.2,1.7c0.2,1.5,0.2,2.4,0.2,2.7c0,1.1-0.5,3.2-1.6,6.4c-0.1,1.2-0.3,1.8-0.7,1.8h-0.5v-0.9c0-2.7,0.2-4,0.7-4
		c0,0.1,0.1,0.2,0.2,0.2c0-1.8,0.4-2.7,1.1-2.7v-0.5c0-0.7-0.2-1.2-0.5-1.7c0.3-1.2,0.5-2.1,0.5-2.7v-0.9h-0.2c0,0.9-0.2,1.6-0.7,2
		v0.9c0,0.1,0.1,0.2,0.2,0.2c-0.3,1.4-0.7,2.8-1.1,4v0.2h-0.5l1.1-8.5v-1.1c0-0.7-0.1-1.4-0.2-2.2l0.4-3.8l-0.7-0.5H45V37
		c0,2-0.2,3.3-0.7,3.8v0.7c0,3.2-0.3,5-0.9,5.6H43c0.3-2.6,0.4-4.8,0.4-6.4C43,40.8,42.7,41,42.5,41l0.2,0.4
		c-0.3,0.7-0.7,1.1-1.3,1.1v0.2l0.2,1.1c-0.4,0.1-0.7,0.7-0.7,1.8v1.6c0,0.3-0.1,0.4-0.4,0.4l-0.2-0.4v-2.4l0.7-4.4v-0.5h-0.2v0.7
		h-0.5c0-0.6-0.1-1.5-0.2-2.4c0.1-2.5,0.2-5,0.2-7.3c0-0.1,0.1-0.2,0.2-0.2c-0.2-0.3-0.2-0.5-0.2-0.7c0.2-0.5,0.2-0.8,0.2-0.9
		c-0.2-0.3-0.2-0.5-0.2-0.7c0-0.1,0.1-0.2,0.2-0.2l-0.2-1.5v-7.1c0-2.3,0.9-5.2,2.7-8.7c2.2-2.3,3.3-3.6,3.3-3.8h0.5v0.7h0.7
		c0-0.4,0.4-0.8,1.1-1.1h0.2c0.3,0,0.5,0.2,0.5,0.7h0.2c0-0.4,0.7-1.6,2-3.4c0.1,0.5,0.3,0.7,0.5,0.7c0.7-0.4,1.9-0.8,3.8-1.1
		c0-0.4,0.2-0.7,0.5-0.7l0.9,0.9h0.5c0-0.4,0.1-0.7,0.4-0.7c0.3,0,0.5,0.3,0.5,0.9h0.2c1-0.6,1.5-1.1,1.6-1.5h0.9
		c0.3,0,0.5,0.3,0.5,0.9L63,3c0,0.4,0.4,0.7,1.1,0.7c0-0.3,0.1-0.6,0.2-0.9l2.7,1.1c0.2-0.1,0.5-0.2,0.9-0.2c0,0.5,0.8,0.9,2.4,1.1
		c0.7,0.9,1.6,1.3,2.7,1.3v1.3c0.3,0,0.6,0.1,0.9,0.2V7H74c0.9,0.6,1.5,1.5,1.8,2.7c1.3,0.6,2,1.7,2,3.3l0.5-0.2
		c0.6,0.6,1,1.6,1.3,3.1c-0.1,0.6-0.2,1.1-0.2,1.5l0.4-0.2H80l0.2,2c0,1.1-0.1,2.2-0.2,3.1c0.1,1.5,0.2,3.2,0.2,5.1v2
		c0,0.2-0.1,0.2-0.2,0.2l0.2,0.4v0.5c0,0.1-0.1,0.2-0.2,0.2c0,0.2,0.1,0.2,0.2,0.2L80,33.7v2.7c0,0.3,0.1,0.6,0.2,0.9
		c-0.1,0.2-0.2,0.5-0.2,0.9c0,0.7,0.1,1.4,0.2,2.2c-0.1,2.6-0.4,4.1-0.7,4.4c0.3,0,0.5,0.2,0.5,0.7c0,0.4-0.1,1-0.2,1.5
		c0.2,0.8,0.2,1.5,0.2,2.2v0.4c0,0.2-0.1,0.2-0.2,0.2c0,0.1,0.1,0.2,0.2,0.2c-0.3,3.6-0.8,5.3-1.3,5.3c-0.1,1.6-0.3,2.4-0.7,2.4
		h-0.2v-2.2h-0.9v-0.9l0.2-0.5c-0.3,0-0.5-0.9-0.7-2.7c0.3,0,0.6-1,0.9-2.9c0.3,0,0.5-0.7,0.7-2v-0.7h-0.2c0,0.9-0.2,1.3-0.7,1.3
		c0,0.1,0.1,0.2,0.2,0.2c-0.3,1-0.9,1.7-1.8,2.2c0,0.6-0.1,0.9-0.2,0.9c0,0.1,0.1,0.4,0.2,0.9c-0.2,1.9-0.2,2.9-0.2,3.1l0.2,1.1
		c-0.6,0.1-0.9,0.6-0.9,1.8c0.3,0,0.5,0.4,0.5,1.3h-0.7v1.1c-0.6,0.6-0.9,1.1-0.9,1.3l0.2,1.1c0,1-0.4,2.1-1.3,3.1
		c-1.3-0.3-2-0.7-2-1.1V63c0-1.3-0.5-2.2-1.4-2.7c0.3-1,0.6-1.5,0.9-1.5c0,0.1,0.1,0.2,0.2,0.2c0.2-0.3,0.2-0.5,0.2-0.7v-1.5h-0.2
		v1.3h-0.5c0-0.6-0.2-0.9-0.7-0.9h-0.2l-0.5,2.4c0,0.4,0.4,1,1.1,1.8l-0.5,0.2l-0.4-0.2c0,0.2-0.1,0.3-0.2,0.4l-0.3-0.1
		c-0.1-0.2-0.1-0.7-0.1-1.5h-0.2c0,0.5-0.2,0.7-0.7,0.7v0.5L60.5,59.7z M55,39v2c0.3,0,0.4-0.2,0.4-0.5V39H55z M60.7,17.4
		c-0.3-0.5-0.5-0.8-0.5-1.1h-0.2c-0.6,0.7-1,1.1-1.1,1.1c-0.1-0.3-0.2-0.5-0.2-0.7h-0.2c-1.5,2-2.2,4.1-2.2,6.4v0.7
		c0,1.4,0.3,2.3,0.9,2.9V27c-0.4,1.1-0.7,1.8-1.1,2c0.1,0.4,0.3,0.7,0.4,0.7l-0.2,0.9c0,0.3,0.1,0.6,0.2,0.9
		c-0.3,2.3-0.4,5.3-0.4,9.1v2l0.2,1.3c-0.1,0.2-0.2,0.6-0.2,1.1v0.7h-0.5v0.9c0,0.3,0.2,0.4,0.5,0.4c-0.2,0.3-0.2,0.5-0.2,0.7
		l0.2,1.1c-0.3,0-0.5,0.2-0.5,0.5v2.4c0,0.2,0.7,0.7,2.2,1.3l0.5-0.2c0.2,0.2,0.5,0.2,0.9,0.2h0.2c0.2,0,0.5-0.6,0.9-1.8l-0.7-0.5
		c-0.1,0.3-0.2,0.6-0.2,0.9h-0.7v-0.2c0-0.4,0.2-0.7,0.7-0.7v-0.7h-0.5v0.5h-0.5v-0.2c0.3-1.5,0.5-2.3,0.5-2.4
		c-0.3,0-0.5-0.2-0.5-0.7c0.9-1.4,1.4-2.3,1.4-2.7h-0.7V45h-0.4v-0.9c0.6,0,1.2-0.9,2-2.7c-0.3,0-0.6-0.5-0.9-1.5h-0.2
		c0,0.5-0.1,0.8-0.2,1.1l0.5,0.9c-0.3,0.7-0.6,1-0.9,1.1h-0.2l0.2-1.3c-0.1-1.3-0.2-2.4-0.2-3.4v-0.4c0.5-0.9,0.8-1.3,0.9-1.3
		c-0.4-1.5-0.7-2.4-0.7-2.7c0.3-0.4,0.5-0.9,0.5-1.5c-0.3-0.2-0.5-0.2-0.7-0.2c-0.2,0.7-0.4,1.1-0.7,1.1h-0.2v-0.9
		c0.2-0.6,0.7-0.9,1.6-0.9c0.3,0.1,0.5,0.2,0.5,0.5c0.3,0,1.2-0.2,2.7-0.7c0.2,0.1,0.5,0.2,1.1,0.2c0.1-0.2,0.2-0.5,0.2-0.9v-1.8
		c0-1.7,0.1-4.5,0.2-8.2c-0.2,0-0.5-0.8-0.9-2.4c-0.9-0.5-1.3-1.3-1.3-2.2h-0.2L60.7,17.4z M56.3,50.5h0.5v0.9h-0.5V50.5z
		 M57.4,38.1h0.2l0.2,1.1c0,0.7-0.1,1.9-0.2,3.3c0.1,0,0.2,0.1,0.2,0.2h-0.2c-0.4,0-0.6-0.3-0.7-0.9C57.2,39.9,57.4,38.6,57.4,38.1z
		 M58.1,28.1c0,0.2,0.8,1.2,2.4,2.9l-0.5,0.2c-0.9-0.4-1.9-1.2-2.9-2.4v-0.5C57.5,28.3,57.8,28.2,58.1,28.1z M60.3,32.3v1.1h0.5
		v-0.7C60.7,32.5,60.6,32.3,60.3,32.3z M61.4,45.4v0.2c0.1,0.3,0.2,0.5,0.2,0.7c-0.4,0.3-0.7,0.5-1.1,0.5V47c0,0.3,0.2,0.5,0.4,0.5
		c0.6-0.2,1-0.6,1.3-1.1c-0.3,0-0.4-0.3-0.4-0.9H61.4z M61.6,49.9l-0.4-0.2c-0.4,0.2-0.7,0.3-0.7,0.5l0.2,1.1h0.2
		c1.4-0.9,2-1.4,2-1.6v-0.2c0-0.3-0.2-0.5-0.5-0.5L61.6,49.9z M60.9,35.4c0.3,1.3,0.7,2,1.1,2c0.3,0,0.5-0.2,0.5-0.5
		c-0.7-0.7-1.1-1.4-1.1-2C61.1,35,60.9,35.2,60.9,35.4z M61.2,33.2v0.2c0,0.3,0.2,0.4,0.4,0.4v-0.7H61.2z M61.2,52.5h0.2
		c0.2-0.1,0.5-0.2,0.9-0.2l0.7,0.4h0.4c-0.1-0.3-0.2-0.5-0.2-0.7c0-0.1,0.1-0.7,0.2-1.7C62.7,50.3,62,51.1,61.2,52.5z M62,32.8V33
		l1.1-0.2c0,1,0.2,1.5,0.7,1.5H64l-0.4-2.2h-0.9C62.5,32.1,62.3,32.3,62,32.8z M62,35.2c0.7,1.2,1.2,1.9,1.3,2.2h0.2l0.4-0.2
		c0-0.2-0.1-0.2-0.2-0.2l0.2-1.1v-1.1h-0.7C63,34.8,62.5,34.9,62,35.2z M62.5,40.5V41l0.5,1.5c0.4-0.1,0.7-0.6,0.7-1.3
		c0-0.2-0.2-0.4-0.7-0.7H62.5z"/>
	<path d="M105.1,56.3c0.6-0.6,0.9-1.2,0.9-1.8v-2.4c0-0.3-0.2-0.4-0.5-0.4c0,2.7-0.3,4-0.8,4h-0.5c0-0.3-0.1-0.6-0.2-0.9
		c0.3-0.8,0.5-1.9,0.7-3.3c-0.3-0.7-0.6-1.1-0.9-1.1c0,0.2-0.2,0.6-0.5,1.1l-0.5-0.2h-0.2v0.5l1.1,1.5v0.2c0,0.3-0.2,0.5-0.5,0.5
		H103c-0.7-1.3-1.1-2.2-1.1-2.7l0.2-2.2l-0.5,0.2c-0.4-1.2-0.7-2.6-0.7-4l0.2-1.1l-0.5,0.2l-0.4-0.7v-1.5c0.4-0.6,0.7-1.1,0.7-1.6
		v-2.4l-0.2-1.1h-0.4v1.1l-0.2,2.7h-0.4c0-0.7-0.2-1.1-0.5-1.1v-3.4c0-0.1,0.1-0.2,0.2-0.2l-0.2-0.4c0.1-0.3,0.2-0.6,0.2-0.7
		l-1.1-1.3c0-0.1,0.1-1.1,0.2-2.9c-0.2-0.3-0.2-0.5-0.2-0.6h-0.4c0,0.7-0.2,2.8-0.7,6.4c0,0.8,0.2,2.3,0.5,4.5
		c-0.2,0.9-0.5,1.3-0.7,1.3h-0.2v-0.7h-0.2c-0.3,0-0.5,0.2-0.5,0.5v2h0.2v-0.5h0.2c0.3,0.1,0.4,0.2,0.4,0.5c0,0.3-0.2,0.4-0.6,0.4
		v1.8h0.4v0.5h-0.7v1.3c0,0.1-0.2,0.3-0.7,0.7c0,3.4-0.2,5.1-0.7,5.1h-0.4v-0.2c0-1.2,0.1-2.6,0.2-4v-0.4h-0.2
		c0,0.9-0.1,1.3-0.4,1.3h-0.2c0-0.5,0.1-1.2,0.2-2c0-0.2-0.1-1.2-0.2-3.1c0.1-1.9,0.3-3,0.7-3.3v-1.3c-0.3,0-0.7,0.8-1.1,2.4h-0.4
		V43c0.1-2.2,0.2-3.3,0.2-3.5c-0.4,0.3-0.7,0.4-0.9,0.4v0.7c0,1-0.1,2-0.4,3.1h-0.5v-1.3c-0.4,0.3-0.6,0.4-0.7,0.4
		c-0.1-0.2-0.2-0.6-0.2-1.3l-0.5,0.2h-0.5V41c0.7-2.3,1.1-4.2,1.1-5.8c-0.1,0-0.2,0.1-0.2,0.2l-0.5-0.2h-0.2v1.3
		c0,0.3-0.3,0.5-0.9,0.5v0.6h0.5v0.5h-0.5v0.4c0,2.5-0.4,4.6-1.3,6.4h-0.4c0-0.6,0.4-2.6,1.1-6v-0.2H88c-0.6,0.7-0.9,1.4-0.9,2
		l-0.5-0.2h-0.2v0.2h0.5V41c-0.4,0.5-0.7,1.5-0.9,3.1c-0.5,0-0.7,0.7-0.7,2.2v0.5h-0.6c0.1-2.5,0.2-3.8,0.4-3.8
		c0.1,0,0.3-0.2,0.5-0.7c-0.2-1-0.2-1.8-0.2-2.4V39l-0.4,0.2c0-0.1-0.1-0.2-0.2-0.2c0,0.6-0.3,1.4-0.9,2.2c0.1,0.2,0.2,0.6,0.2,1.1
		h0.5c0-0.4,0.1-0.7,0.2-0.9h-0.7V41h0.2c0.3,0.1,0.6,0.2,0.7,0.2v0.5c0,0.6-0.3,1.1-0.9,1.3l-0.2,1.1l0.2,1.1
		c-0.2,0.6-0.4,0.9-0.6,0.9c-0.3,0-0.5-0.2-0.5-0.5v-2h0.7v-0.2c-0.3,0-0.6-0.3-0.9-0.9c0-0.1,0.1-0.4,0.2-0.7l-0.2-1.3v-0.9
		c0.2,0,0.5-0.4,0.9-1.1c0.3,0,0.4-0.7,0.4-2.2v-0.2h-0.2c-0.4,0.8-0.6,1.5-0.6,2h-0.5v-0.3c0-0.8,0.1-1.3,0.2-1.5
		c-0.1-0.8-0.2-1.5-0.2-2c0-1,0.1-2.9,0.2-5.8l-0.2-1.4c0.1-0.3,0.2-0.5,0.2-0.6l-0.2-0.4c0.1-0.8,0.2-1.5,0.2-2v-0.9
		c0-0.4-0.1-0.6-0.2-0.6l0.2-1.1v-2.7c0-0.3-0.1-0.4-0.4-0.4c0.1-1.7,0.2-3,0.2-3.8v-1.1c0-0.6-0.1-1.2-0.2-1.8
		c0.1-0.6,0.2-1.1,0.2-1.5l-0.2-2.7c0-1.8,0.5-2.9,1.5-3.4c0.1-0.6,0.3-0.9,0.7-0.9c0,0.3,0.2,0.5,0.4,0.5l1.1-0.2
		c0.1,0.2,0.2,0.6,0.2,1.3h0.7c0.5-0.5,1-0.7,1.5-0.7c0.7,0.4,1.1,0.7,1.1,0.9h0.5l0.9-1.1c0.1,0.2,0.2,0.6,0.2,0.9
		c2.2-0.7,3.8-1.1,4.9-1.1c2.4,0.1,3.6,0.5,3.6,1.1h0.2c0-0.5,0.3-0.8,0.9-1.1c0.3,0,0.5,0.2,0.5,0.6h0.2c0.1,0,0.5-0.4,1.1-1.1
		c0.9,1.1,1.7,2.5,2.4,4.3c0.3,0,0.5,0.9,0.7,2.7c0.6,0,0.8,1.2,0.8,3.7l-0.2,0.5c0.2,1.3,0.5,1.9,0.9,1.9l-0.2,1.1v0.5
		c0.5,0,0.9,0.8,1.1,2.4c-0.2,0.8-0.2,1.5-0.2,2v0.9c0,0.7,0.4,1.3,1.1,2v0.6c0,0.8,0.1,2.1,0.2,3.8c0.7,0,1.1,0.8,1.1,2.4l-0.2,1.1
		h0.9c0.4-1.4,1.2-5.1,2.4-10.9c1.9-9.9,3.4-16,4.3-18.2l2.2-0.9c0.1,0.6,0.7,0.9,1.8,0.9c0.2-0.7,0.4-1.1,0.6-1.1
		c0.2,0.2,0.2,0.6,0.2,1.1h0.2c0.4,0,0.7-0.1,0.9-0.2c0.3,0.1,0.5,0.2,0.7,0.2c0.4-0.5,0.7-0.9,0.7-1.3h0.7c0.2,0,0.5,0.3,0.9,0.9
		l0.5-0.2c0.6,0,1.2,0.1,1.8,0.2c0.6-0.1,1.1-0.2,1.7-0.2l1.1,0.2c0-0.5,0.2-0.7,0.5-0.7h0.7c0.4,0,0.7,0.4,0.7,1.3h1.6
		c0-0.4,0.1-0.6,0.4-0.6c1.1,0.3,1.8,0.4,2,0.4V3.9c0.5,0.1,0.7,0.3,0.7,0.4l0.4-0.2c0.1,0,0.4,0.3,0.9,0.9c-0.1,2-0.2,3.5-0.2,4.4
		v0.4c0,2.1,0.1,3.7,0.2,4.7c-0.1,1.3-0.2,2.9-0.2,4.9v0.9c0,2.4,0.1,4.1,0.2,5.1c-0.1,1.5-0.2,3.3-0.2,5.6v4.7
		c0,1.4,0.1,3.1,0.2,5.1c-0.3,1.9-0.5,4.6-0.7,8.2h0.5c-0.2,2.2-0.2,3.8-0.2,4.9v1.6l-0.7,0.9h0.2c-0.3,1-0.9,1.8-1.7,2.2
		c0,0.6-0.1,0.9-0.2,0.9l0.2,0.9c-0.2,1.9-0.2,3-0.2,3.4c0.2,0.3,0.2,0.5,0.2,0.7c-0.6,0.2-0.9,0.2-0.9,0.2
		c-0.1-0.3-0.2-0.6-0.2-0.7h-0.5c-0.6,0.9-1,1.3-1.1,1.3h-0.2l0.2-1.1v-1.7c0-0.3-0.1-0.5-0.4-0.5l0.4-2.9c-0.1-1-0.2-1.9-0.2-2.9
		v-2.2h-0.5v6.2c0,0.4-0.1,0.7-0.2,0.9c0.1,0.2,0.2,0.5,0.2,0.8v0.5c0,0.2-0.3,0.5-0.9,0.9h-0.2c0-0.6-0.3-1.2-0.9-1.8v-0.2l0.4,0.2
		c0.3,0,0.5-0.1,0.5-0.4c0-0.3-0.1-0.5-0.2-0.5c0.2-0.8,0.2-1.4,0.2-1.7l-0.2-2.2c0.2-0.5,0.2-1.1,0.2-1.7h-0.7v2
		c-0.1,2.7-0.6,4-1.3,4c-0.3,0-0.4,0.3-0.4,0.8H129l0.2-1.1v-1.5c0.5-1,1-1.5,1.3-1.5l-0.4-0.7v-0.9L131,55
		c-0.2-0.3-0.2-0.5-0.2-0.7l-0.5,0.2h-0.6v-0.2c0-0.7,0.1-2.2,0.4-4.5h-0.9v1.8c0,0.5-0.1,0.8-0.2,1.1l0.2,1.3v2.2
		c0,1.2-0.3,1.8-0.9,1.8v0.2c0,1-0.1,1.9-0.2,2.9l0.2,0.9c-0.2,0.9-0.2,1.9-0.2,2.9h-0.2c-0.3,0-0.4-0.1-0.4-0.4v-1.1
		c0-0.5,0.1-0.7,0.2-0.7c-0.1-0.5-0.2-0.8-0.2-0.9c0.1-2.5,0.2-4.2,0.2-4.9c0.3,0,0.4-0.2,0.4-0.5v-2h-0.6c0,0.8-0.2,1.4-0.7,1.8
		v0.5c0,2.7-0.2,4.4-0.7,4.9l-0.4-0.1v-1.7h-0.5v0.4h-0.4v-0.4c-0.4,0.3-0.6,0.4-0.7,0.4h-0.7v-0.2c0.4-0.7,0.7-1.3,0.7-1.8v-0.9
		l-0.4-0.7v-2.2l-1.1,0.2h-1.3c-0.2,0-0.4-0.2-0.7-0.7v-0.5c0-0.2,1-1.1,2.9-2.7c0.2,0,0.5-2.1,0.7-6.4c-0.2,0-0.4-0.2-0.7-0.7
		c0.2,0,0.4-0.2,0.7-0.7v-0.9l-0.2-1.1h0.2c-0.3-0.7-0.7-1.1-1.3-1.1c-0.7,1.2-1.3,3.9-1.8,8l-0.6,0.4l0.2,0.5c-0.3,2.7-0.9,4-1.8,4
		v-0.5h-0.2c0,0.8-0.1,1.4-0.2,2l0.9,1.1c-0.1,1.6-1.8,1.9-4.9,1C112,58.1,108.9,58,105.1,56.3z M126.1,61.6
		c-0.1,0.1-0.2,0.2-0.4,0.2v-0.2L126.1,61.6z"/>
	<path d="M171.5,65c-0.2-0.6-0.5-0.8-0.7-0.8c-0.1,0.3-0.2,0.5-0.2,0.6c0.1,0.2,0.1,0.3,0.2,0.4l-3.7,0.9v-0.4l0.8-0.8v-0.4
		c0-0.3-0.2-0.4-0.5-0.4c-0.6,0.4-1.2,0.7-1.9,0.7h-0.4l-1.5-0.2c0,0.4-0.7,0.7-2.1,0.8c-0.4-0.3-0.8-0.4-1.1-0.4l-0.2,0.4v0l-0.5,0
		l0.1-0.3c0-0.2-0.5-0.6-1.5-1.3H158c0,0.7-0.3,1.2-0.8,1.7l-0.5-0.1l-0.8-0.7l-0.2,0.4v0.3l-0.9-0.1c0.1-0.1,0.1-0.2,0.1-0.4
		c-0.4,0.1-0.6,0.3-0.6,0.4l-0.4,0c-1.4-0.3-2.8-1.3-4.2-3.1c-0.9-2.3-2-4.1-3.2-5.2v-0.7h0.2c1.2,1,2.3,2.8,3.3,5.3
		c0.9,1.2,1.5,1.9,1.7,1.9v-0.2c0-0.3-0.1-0.8-0.4-1.5l0.2-0.5c-0.3-1.5-0.5-2.2-0.5-2.3c0.5,0.7,1.2,1.5,2.1,2.3
		c-0.3,0-0.5,0.4-0.6,1.1h0.4c0.4,0,0.8-0.2,1.2-0.5c0,0.3,0.2,0.5,0.4,0.5h0.4c0-1.8-0.6-2.7-1.7-2.7c0,0.3-0.1,0.4-0.4,0.4
		c-0.2,0-0.6-0.4-1.1-1.1h0.2l1,0.2v-0.2l-0.6-0.8l-0.4,0.2h-0.2c-0.2,0-0.4-0.2-0.4-0.6c0.2-0.5,0.4-0.9,0.4-1.3v-0.2h-0.4
		c-0.3,1-0.5,1.8-0.5,2.5v0.2h-0.4l-0.2-1V57c1.4-2.9,2.1-4.6,2.1-5.1l-0.2-1.2h0.2c-0.2-0.9-0.5-1.3-0.9-1.3l0.2-2.1v-0.8h-0.8v0.2
		c0,0.7-0.1,1.4-0.2,2.1l0.2,1.2c0,0.1-0.1,0.4-0.2,0.7l0.2,1.2v0.5c0,0.3-0.1,0.5-0.4,0.5h-0.2l-0.7-0.5c-0.3,0-0.5,0.8-0.6,2.3
		h-0.5l-0.2-1.5v-0.6l-1.9-0.4c-0.2,0-0.5,0.5-1.1,1.5v1.2c0,1.9-0.2,3.4-0.6,4.4h-0.4l0.2-1.3c0-2.9,0.2-4.5,0.6-5v-1.1
		c0-0.2-0.1-0.4-0.4-0.4h-0.4v0.4h-0.5c-0.2,0-0.4-0.2-0.4-0.6l0.2-0.4c-0.2-0.6-0.4-1.1-0.4-1.5c0.2-5.3,0.6-8,1.2-8
		c-0.3,0-0.6-0.1-0.9-0.2c0,0.1-0.1,0.2-0.2,0.2c-0.1-0.2-0.2-0.6-0.2-1.2c-0.4,0.2-0.6,0.4-0.7,0.4h-1c-0.3,0-0.5-0.1-0.5-0.4
		c0.6-0.2,0.8-0.5,0.8-0.7l1,0.2h0.2v-1.5l-0.5-0.7c0.1-0.2,0.2-0.5,0.2-0.8c-0.2,0-0.4-0.2-0.6-0.6c0.6,0,0.8-0.1,0.8-0.2
		c0-0.9,0.1-3.2,0.2-6.9l-0.2-1.4c0.1-0.8,0.2-1.4,0.2-1.7c-0.1-5.6-0.4-8.3-0.9-8.3v-0.2c0.3-0.4,0.5-0.9,0.7-1.4
		c-0.2-0.5-0.2-0.8-0.2-0.9c0.2-1.9,0.2-3.2,0.2-4.1l-0.2-1.2c0-3.9,0.6-5.9,1.7-5.9c0-0.2,0.3-0.4,1-0.8c0.3,0,0.5,0.5,0.7,1.5
		c2.8-0.7,4.5-1,5-1c0.6,0.1,0.9,0.2,0.9,0.4l1.5-0.4c0.7,0.4,1,0.7,1,1h0.8c0-0.6,0.2-0.8,0.5-0.8c0.1,0.8,0.5,1.2,1,1.2
		c0-0.7,0.1-1,0.4-1h0.4c0.8,0,1.4,0.3,1.9,0.8l0.8-1.2c0.6,0.2,0.8,0.4,0.8,0.6l0.4-0.2h0.2c0.3,0.3,0.6,0.5,0.9,0.5
		c0.8-0.2,1.2-0.4,1.2-0.7c1.5,0,2.3,0.4,2.3,1.2c0.3,0,0.6-0.1,0.8-0.2l0.5,0.2l0.4-0.2l0.5,0.2c0.2-0.1,0.4-0.2,0.6-0.2
		c0.2,0.9,0.5,1.4,1,1.5c0-0.3,0.1-0.6,0.2-0.8c1,0.4,1.7,0.8,1.9,1l0.4-0.2h0.2c0.3,0,0.4,0.2,0.4,0.4v1h0.8V7.2h0.2
		c0.1,0,0.4,0.6,0.9,1.7h0.2c0.2-0.1,0.4-0.2,0.6-0.2l0.4,0.7v1.9c0,0.3,0.2,0.4,0.4,0.4h0.2l0.2-1.3h0.4c0.8,1.7,1.2,3.6,1.2,5.7
		c0.4,0.6,0.8,1.8,1.1,3.5c0,4.6-1.3,8.4-3.8,11.3c-0.6,0-0.8,2.2-0.8,6.5v0.2h0.2c0.6-1.2,0.9-2.4,0.9-3.8h0.4
		c0.3,0,0.5,0.7,0.6,2.1h0.2l0.2-1h0.5c0.4,2.4,0.6,3.8,0.6,4.2h0.2c0.2,0,0.4-0.4,0.4-1.3h0.5c0.1,0.7,0.3,2.1,0.4,4l-0.2,2.1
		c0,0.4,0.2,1,0.6,1.9l-0.5,5.3h-0.4v-1.5c0-1.2,0.1-2.4,0.2-3.8v-0.4h-0.2c0,1.1-0.2,2.1-0.7,2.9l0.2,0.4c-0.1,0.9-0.4,1.3-0.8,1.3
		v0.6c0,0.1,0.1,0.2,0.2,0.2c-0.1,0.4-0.3,1.1-0.4,2.1c0.1,0.2,0.2,0.4,0.2,0.6c-0.2,1.7-0.4,2.5-0.8,2.5h-0.2l0.2-1.1
		c-0.1-1.1-0.3-1.7-0.6-1.7c0,1-0.4,2.4-1.2,4.2V58H176c0-1.2-0.2-1.9-0.6-2.1c0.5-3.2,0.9-4.9,1.1-4.9c0.4-1.2,0.6-1.9,0.8-1.9
		c0,0.1,0.1,0.2,0.2,0.2c0.6-2.5,0.8-4,0.8-4.4h-0.6v1c-0.6,0.4-0.8,0.7-0.8,1c-0.5,0.2-0.8,0.2-0.9,0.2v-2.5h-0.2
		c0,0.4-0.2,0.8-0.7,1.1c0,1-0.3,2.4-0.8,4.1l0.2,1c-0.1,1-0.2,1.6-0.2,1.7v0.8h0.2c0.4-3.6,0.8-5.5,1.3-5.5h0.2v0.2
		c0,2.5-0.3,4-0.8,4.4c0,1.2-0.1,2.4-0.2,3.7c0.1,0.6,0.2,1.1,0.2,1.7h-0.4c-0.3,0-0.4-0.2-0.4-0.5c0-0.1,0.1-0.2,0.2-0.2l-0.2-1.1
		v-2.7c-0.5,0-0.8,1-1,2.9l1.7,2.7c0.1,0.2,0.2,0.6,0.2,1V62h-0.4l-0.2-1c-1.1,0.2-1.7,0.6-1.7,1c0,0.4-0.3,1.1-1,2.1l0.1,0.7
		L171.5,65z M156.2,54.5c0.2,0.7,0.4,1,0.6,1l0.2-0.5c-0.2-0.2-0.2-0.4-0.2-0.6H156.2z M157.2,45.1c0,0.2,0.2,0.4,0.4,0.4h0.2
		c0-0.1,0.1-1,0.2-2.7h-0.2C157.4,42.8,157.2,43.5,157.2,45.1z M157.2,51.9v1.5h0.2c0.1-0.7,0.2-1.1,0.2-1.2L157.2,51.9z M158,55.1
		v0.2c0,0.3,0.2,0.4,0.5,0.4v-0.2C158.5,55.2,158.3,55.1,158,55.1z M159.1,36.7c0,0.7-0.1,2.2-0.4,4.6c0.3,1,0.7,1.5,1.3,1.5V43
		c-0.7,0.3-1.1,0.6-1.1,0.8v2.3l-0.2,1.2c0.3,0.7,0.4,1.2,0.4,1.5c-0.1,0.7-0.2,1.4-0.2,1.9c1.7-1.5,2.5-3.2,2.5-5.1
		c-0.1,0-0.5-0.6-1.2-1.7c0.5-1.1,0.8-2.2,1-3.4h0.2c0,0.1,0.1,0.2,0.2,0.2l-0.2,1.1v0.4h0.2c0.1,0,0.4-0.3,1-1
		c0,0.1,0.1,0.2,0.2,0.2c-0.4,1-0.6,1.6-0.6,1.9v0.2c0.4,0,0.7,0.6,1.1,1.7v0.2c0,0.3-0.2,0.5-0.5,0.5c0-0.2-0.2-0.4-0.6-0.7v0.2
		l0.2,1.1c0,0.4-0.3,1-0.8,1.7v0.7c0.5-0.4,0.8-0.7,1-0.7l0.5,0.2l0.4-0.2c0.3,0.1,0.5,0.2,0.7,0.2c1.1-0.5,1.7-1.1,1.7-1.9v-1.7
		c0-0.3,0.3-0.5,0.8-0.6V44c-0.4-0.5-0.6-1.1-0.6-1.7h-0.4c0,0.4-0.1,0.7-0.4,0.7c0-0.2-0.2-0.4-0.7-0.7l-1.4,0.5v-0.2l1.2-1.7
		c-0.1-0.3-0.2-0.5-0.2-0.6h-0.5c0,0.4-0.1,0.6-0.4,0.6h-0.2c-0.4-1.4-0.7-2.4-0.7-2.9c-0.3,0-0.7,0.6-1.2,1.7h-0.4
		c-0.3,0-0.4-0.1-0.4-0.4c0.6-0.6,0.8-1,0.8-1l-0.2-1h-0.5c-0.2,1.4-0.4,2.1-0.8,2.1h-0.2v-1.5l-0.2-1H159.1z M160.3,16.6
		c0,0.4-0.1,0.6-0.2,0.6l0.2,0.5v0.2c0,0.2-0.2,0.4-0.7,0.6c-0.2-0.2-0.5-0.2-0.6-0.2v0.2c-0.1,1.5-0.2,2.3-0.2,2.5
		c0.1,1.7,0.2,2.9,0.2,3.6l-0.2,0.4l0.2,1.3v1h0.4c0-0.6,0.5-1.1,1.5-1.5c0.5,0.9,0.9,1.3,1.2,1.3c0.6-1.3,1.1-1.9,1.5-1.9
		c0.6,0,1-1.1,1.3-3.2v-0.2c0-2-0.8-3.4-2.3-4.2c0-0.2-0.2-0.5-0.6-0.6l-0.4,0.2c-0.3,0-0.4-0.2-0.4-0.6H160.3z M159.1,61.6
		c0,0.1-0.1,0.3-0.2,0.6h0.5v-0.6H159.1z M159.1,29.4v3.2h0.2l0.2-1.5c-0.1-1-0.2-1.5-0.2-1.7H159.1z M159.7,62.5v0.4
		c0.2,0,0.5,0.2,0.8,0.7h0.2c0.3,0,0.4-0.1,0.4-0.4v-0.2C160.5,62.8,160,62.7,159.7,62.5z M163.4,38.2h0.5l0.2-1v-0.5
		C163.8,36.7,163.6,37.2,163.4,38.2z M164.1,32.7c0,1.4-0.2,2.1-0.5,2.1c0.2,0.3,0.2,0.5,0.2,0.6h0.2l0.2-1.9v-0.8H164.1z
		 M163.7,51.4v0.8c0.6,1,1.1,1.6,1.5,1.7v-0.5c0-0.3-0.1-0.6-0.2-0.8c0.1-0.3,0.2-0.5,0.2-0.7c-0.1-0.2-0.2-0.4-0.2-0.6l-1,0.2
		C163.9,51.4,163.8,51.4,163.7,51.4z M164.5,48.6c0,0.4-0.1,0.9-0.4,1.5h0.4c0.4-0.1,0.7-0.5,0.7-1.2v-0.2H164.5z M166.6,51.9
		l-0.8,1.9l0.6,0.4h0.4v-2.3H166.6z"/>
	<path d="M196.8,62.4c0.4-0.3,0.6-0.6,0.6-0.8c-0.1-0.3-0.2-0.5-0.2-0.6H197l-0.8,0.6h-0.8l-2-0.2c0,0.4-0.7,0.6-2,0.8
		c-0.4-0.2-0.8-0.4-1-0.4l-0.2,0.4c0,0.2,0.4,0.6,1.2,1.2h1v0.4c-0.4,0-0.6,0.1-0.6,0.4c0.3,0.5,0.4,1,0.4,1.4h-0.6
		c-0.6-0.7-1.6-1.7-3.2-2.8c-0.1-0.2-0.2-0.5-0.2-0.8v-0.4h0.4l1,1.4l0.2-1c0-0.2-0.5-0.7-1.6-1.4l-0.4,0.2l0.2,0.4
		c-0.3,0.8-0.6,1.2-0.8,1.2h-0.4l-1-1v0.4c0,0.7,0.3,1.7,0.8,3c-0.5,2-0.8,3-1,3c-0.2,0-0.4-0.1-0.4-0.4l0.2-1
		c-0.4-0.3-0.6-0.4-0.6-0.4h-0.4c-0.4,1.9-0.8,2.8-1.2,2.8l-0.2-0.4c1-3.2,1.6-4.9,1.8-5h0.6V63h-1.2v-0.4c0.5,0,0.8-0.3,0.8-0.8
		c-0.4,0.1-0.6,0.3-0.6,0.4c-0.7,0-1.4-0.3-2.2-1v-0.8c-0.2-1-0.4-1.5-0.4-1.6v-0.6h0.4c0,0.9,0.3,1.4,0.8,1.4
		c0.1,0,0.6-0.1,1.6-0.2c0.2,0,0.6,0.3,1.4,0.8h0.4V60c-0.4-0.4-0.9-1.3-1.6-2.6v-0.2l1-0.8v-1c-1.1-0.4-1.9-0.6-2.2-0.6
		c-0.5,0.1-1,0.2-1.4,0.2v-0.2c0.3-1.4,0.8-2.5,1.6-3.4l-0.8-1.4v-1.2l-0.2-1.4c0.1,0,0.2-0.1,0.2-0.2l0.4,0.2h0.2
		c0-0.8,0.1-1.2,0.4-1.2h0.2l0.2,1.2h0.4L185,46c-0.3,0-0.4-0.2-0.4-0.6c0.1-1.2,0.2-1.8,0.2-2c-2.4-2.5-3.6-4.5-3.6-5.8
		c0.1-1.2,0.2-2,0.2-2.2h0.4l0.2,1v0.8c0.3,0,0.6,0.2,1,0.6h0.4c0-0.4,0.1-0.6,0.4-0.6c0.3,0,0.4,0.2,0.4,0.6h0.4
		c0.3-1.7,0.4-2.9,0.4-3.4l-0.2-2c0.1-0.3,0.2-0.5,0.2-0.6c-0.3-0.4-0.4-0.7-0.4-1c0.3,0,0.4-0.1,0.4-0.4v-1c0-0.3-0.1-0.5-0.2-0.8
		l0.2-0.4c-0.1-1.4-0.2-2.4-0.2-3.2v-1.2c0-0.1,0.1-0.2,0.2-0.2l-0.2-0.4v-2c0-0.6,0.1-1.3,0.2-2.2c-0.3-0.7-0.4-1.2-0.4-1.6
		l0.6-7.4h-0.4V8.7c0-3.3,0.3-5,1-5l0.2,0.4c0.5-0.2,1-0.4,1.6-0.4h0.6c0-0.4,0.1-0.6,0.4-0.6c0.3,0,0.4,0.4,0.4,1.2h0.2l0.8-1.2
		c0.2,0,0.4,0.3,0.4,1h0.8c0-0.4,0.1-0.6,0.4-0.6h0.6c0.5,0,1.1,0.1,1.8,0.2c0.2-0.1,0.5-0.2,0.6-0.2c0.7,0.1,1,0.4,1,1h0.4l0.8-1.2
		c0.3,0,0.4,0.2,0.4,0.4l1-0.2c0.6,0,1.1,0.7,1.4,2.2c0,1.4-0.1,2.4-0.2,3.2c0.1,1.3,0.2,2.5,0.2,3.8c0,1.1-0.1,2.3-0.2,3.8
		c0.2,3.2,0.5,4.8,0.8,4.8c-0.4,0.4-0.6,0.8-0.6,1c0,0.6,0.2,1.2,0.6,1.8c-0.5,0.7-0.8,1.7-0.8,3v0.4c0,1.4,0.1,2.5,0.2,3.4
		c-0.1,0.9-0.2,2.1-0.2,3.6v1c0,0.4-0.1,0.8-0.2,1l0.2,1.2v4.6c0,3.2-0.3,4.8-0.8,4.8c-0.2,0-0.4-0.3-0.6-0.8c0.1,0,0.2-0.1,0.2-0.2
		c-0.2,0-0.4-0.1-0.6-0.2v0.2c0.2,2.4,0.5,3.6,1,3.6v0.4c-0.6,0-0.8-0.4-0.8-1.2h-0.2v0.8h-0.4v-1.4l-0.4-0.6
		c0.3-1.1,0.6-1.9,0.8-2.4l0.4,0.2c0.3,0,0.4-0.1,0.4-0.4c0-0.2-0.1-0.4-0.2-0.6l0.2-1.2v-0.4c0-0.1-0.1-0.2-0.2-0.2
		c0-0.1,0.1-0.2,0.2-0.2l-0.2-1.4c0-0.1,0.1-0.7,0.2-1.6h-0.6v1.2c0,2.7-0.5,4.4-1.4,5c0-0.1-0.1-0.2-0.2-0.2V46h-0.8v-2
		c-0.2-0.3-0.4-0.7-0.4-1.2h-0.2V45l0.2,1.2l-0.4,1l0.2,1.2v0.6c0,0.2-0.2,0.4-0.6,0.6c-0.1,0-0.2-0.7-0.2-2.2
		c-0.3,0-0.6,0.7-0.8,2.2v0.2c0.6,1.1,1.2,1.6,2,1.6h0.2v-0.6c0-0.7,0.2-1,0.6-1l-0.2-1l0.4-0.2h0.2c0,1.6-0.3,2.4-0.8,2.4
		c0.1,0.4,0.8,0.8,2,1.2c0.1-1.4,0.2-2,0.6-2h0.2v1.6h0.2c0-0.7,0.2-1,0.6-1h0.2c0,0.3-0.1,0.6-0.2,0.8c0.2,1.2,0.7,1.8,1.6,1.8
		c1.6,0.8,2.8,2.2,3.6,4.2v1.6H204c0-1.4-0.5-2.5-1.4-3.2c-0.2,0.1-0.4,0.2-0.6,0.2c0-0.2-0.4-0.5-1.2-1l-0.4,0.2l-0.8-0.4v0.2
		c0.9,1.2,1.4,1.9,1.4,2h0.2l0.6-0.4c0,0.1,0.1,0.2,0.2,0.2l-0.2,0.4c0,0.2,0.2,0.4,0.6,0.6c0.2-0.1,0.5-0.2,0.8-0.2V58
		c-0.8,0.8-1.2,1.4-1.2,2c-0.1,0-0.4,0.4-0.8,1.2l0.2,1l-0.4,0.2c-0.3-0.8-0.6-1.2-0.8-1.2c-0.1,0.2-0.2,0.5-0.2,0.6
		c0.1,0.2,0.2,0.4,0.2,0.6c-0.2,0-0.4,0.2-0.6,0.6v1L196.8,62.4z"/>
	<path d="M213,59l0.2-0.2H213c-0.1,0.1-0.2,0.1-0.3,0.1l-0.4-0.2v-1.3h-0.2c0,0.7-0.1,1.1-0.2,1.1l-0.5-0.2v-2.5
		c0-0.2,0.1-0.2,0.2-0.2c-0.1-0.3-0.2-0.5-0.2-0.7l0.2-1.1c-0.6,0-1-1-1.1-2.9l-0.7-0.5l-0.2,2.3l0.2,2c-0.1,1.9-0.3,2.9-0.7,2.9
		h-0.2V57c0-0.8,0.1-1.5,0.2-2c-0.1-0.8-0.2-1.4-0.2-1.8c0.1-1.5,0.2-2.2,0.5-2.2l-0.2-0.5c0.3-0.6,0.5-1.1,0.5-1.8v-3.9
		c0-0.3-0.2-0.5-0.5-0.5c0,0.3-0.1,0.5-0.2,0.5l0.2,0.5c-0.1,2.8-0.2,4.8-0.2,5.9c-0.2,0-0.7,0.6-1.6,1.8h-0.5
		c-0.3-0.6-0.5-1.1-0.5-1.6c0.2-1.4,0.2-2.2,0.2-2.5c0.7,0,1.3-0.7,1.6-2c-0.2-1-0.2-1.9-0.2-2.5v-1.1c0-0.3-0.2-0.5-0.5-0.5h-0.2
		c-0.6,4.1-1.1,6.1-1.4,6.1c-0.4,0.9-0.7,1.4-0.9,1.4l-0.2-0.5v-1.4h0.5l-0.2-1.1c-0.3,0-0.5,0.7-0.7,2.2l-0.7,0.5v-0.5
		c0-1.2,0.4-3.2,1.1-6.1v-1.2l0.7-0.9v-0.2l-0.4,0.2v-0.9c-0.3,0-0.5-0.2-0.5-0.5v-5.9c0-0.6,0.1-1.2,0.2-2
		c-0.1-0.2-0.2-0.7-0.2-1.6c0.1-1.6,0.2-2.5,0.2-2.7l-0.5-0.2h-0.2c-0.3,0-0.5,0.2-0.5,0.4c0.1,0.3,0.2,0.6,0.2,0.9h-0.7
		c0.1-2.7,0.4-4.1,0.7-4.1v-0.7c-0.3-1.1-0.5-1.7-0.5-1.8v-0.2c0-1.6,0.1-2.9,0.2-3.8c-0.2-1.1-0.2-2.5-0.2-4.1V13
		c0-0.3,0.1-0.6,0.2-0.9l-0.5-3.8c0-3,0.7-4.5,2-4.5c0.3,0,0.5,0.4,0.5,1.3h0.9c0-0.9,0.2-1.3,0.5-1.3h0.9c0.2,0,0.2,0.1,0.2,0.2
		l0.5-0.2l0.4,0.2c0-0.7,0.2-1.1,0.5-1.1c0.2,1.1,0.5,1.6,0.9,1.6c0-0.4,0.5-0.9,1.6-1.6l0.2,0.5v1.1h0.7c0.1-1.2,0.4-1.8,0.7-1.8
		c0.3,0.4,0.5,0.6,0.5,0.9c0.7,0,1.8-0.3,3.2-0.9c0.2,0.2,0.2,0.6,0.2,1.1h0.2l0.9-1.4l0.9,1.4h0.5V2.4c0-0.3,0.2-0.5,0.5-0.5h0.7
		l0.5,0.2c0-0.3,0.2-0.5,0.5-0.5h0.5c0.3,0,0.4,0.2,0.4,0.5H222v0.2c0,0.2,0.2,0.5,0.7,0.7l0.7-0.5h0.2l1.6,1.1h0.2l0.9-1.4l0.9,0.7
		c0-0.5,0.2-0.7,0.7-0.7c0.7,0,1.1,0.2,1.1,0.5l0.5-0.2c0.3,0,0.5,0.3,0.5,0.9l0.7-0.4c0,0.1,0.1,0.2,0.2,0.2c0-0.4,0.2-0.7,0.5-0.7
		c0.1,0,0.2,0.1,0.2,0.2l0.5-0.2c0.7,0,1.1,0.4,1.1,1.3c1.1-0.7,2.1-1.1,2.9-1.1h0.5c0.3,0,0.6,0.5,0.9,1.4l0.5-0.2h0.2v0.5
		c0,0.2-0.1,0.2-0.2,0.2c0.2,0,0.4,3.2,0.7,9.7c0,1.9-0.6,3.4-1.8,4.5H236c-0.3,0-0.5-0.4-0.5-1.3l-0.5,0.2c-0.1,0-0.2-0.1-0.2-0.2
		c-0.3,0-0.8,0.4-1.4,1.1c-0.3,0-0.5-0.6-0.7-1.8h-0.2c-0.1,0.9-0.4,1.4-0.7,1.4h-0.5c-0.1,0-0.2-0.1-0.2-0.2
		c-0.2,0-0.6,0.4-1.1,1.1c-0.3,0-0.5-0.5-0.5-1.4c-0.5,0-0.7,0.4-0.7,1.1h-0.5c-0.3,0-0.4-0.4-0.4-1.1c-0.6,0-0.9,0.3-0.9,0.9H227
		c-0.3,0-0.5-0.2-0.5-0.7c-0.4,0.3-0.6,0.5-0.7,0.5l-0.9-0.5l-0.9,0.5c0-0.3-0.2-0.5-0.5-0.5h-0.2c-0.4,0.3-0.6,0.5-0.7,0.5
		c-0.3,0-0.5-0.3-0.5-0.9h-0.7c-1.2,0-1.8,2.3-1.8,7c0.6,0.9,1.1,1.4,1.6,1.4v-0.2c1.4,0.6,2,0.9,2,1.1l1.1-0.2h0.2v0.5h0.7
		c0.3,0,0.5-0.3,0.5-0.9l3.4,0.4c0-0.6,0.4-0.9,1.3-0.9l0.2,0.5l0.5-0.2c0.9,0.4,1.3,0.7,1.3,0.9v1.1h0.5c0-1.2,0.6-1.8,1.8-1.8
		c0.2,0.7,0.7,1.4,1.3,2c0.3,0,0.5-0.2,0.5-0.7h0.2c0,0.3,0.4,1,1.1,2c-0.3,7.7-0.8,11.5-1.4,11.5c-0.1,0-0.2,0.1-0.2,0.2
		c-0.7-0.2-1.5-0.6-2.3-1.1v-1.6H234c0,1.2-0.2,1.8-0.5,1.8s-0.5-0.2-0.5-0.5v-2l-0.2-1.1h-0.2c0,3.3-0.3,5-0.9,5
		c-0.2-0.2-0.2-0.7-0.2-1.4l-0.5,0.2l-0.5-0.2c0,0.6-0.1,0.9-0.4,0.9h-0.2c-0.3,0-0.5-0.4-0.5-1.1H229c0,0.7-0.2,1.1-0.5,1.1
		c-0.2,0-0.4-0.5-0.7-1.4l-0.5-0.2c0,0.1-0.4,0.8-1.3,2.2c-0.3,0-0.5-0.2-0.5-0.7c0.1-1.4,0.2-2.2,0.2-2.5h-0.9
		c-0.1,1.4-0.3,2-0.7,2h-0.5v-0.2c0-1.4,0.3-3.2,0.9-5.4c0-0.1-0.1-0.6-0.2-1.3c0.2-0.3,0.2-0.6,0.2-0.9c-0.2-0.6-0.4-0.9-0.7-0.9
		v0.9c0,4.4-0.8,7-2.3,7.9c-0.1-0.2-0.2-0.6-0.2-1.1h-0.2c0,1.4-0.2,2-0.7,2c0-0.1-0.1-0.2-0.2-0.2l0.2-1.2V40
		c-0.3,0.1-0.5,0.2-0.7,0.2v1.2l-0.2,1.6h1.1c0.3,0,0.5,0.2,0.5,0.5c-0.2,0.1-0.5,0.2-0.9,0.2c0,0.1,0.7,0.4,2,0.9V45l1.6-0.2v-0.5
		l-0.9-0.9l0.5-0.2c1.9,1.9,2.9,3.8,2.9,5.9c0.1,0.2,1,1.1,2.7,2.7v2.7h0.5l0.2-2.2v-0.7l-0.2-1.1c0.6-0.7,1-1.1,1.1-1.1h0.5
		c0.2,0,0.6,0.5,1.1,1.4v0.2c0,0.3-0.4,0.5-1.1,0.7c0-0.3-0.2-0.4-0.5-0.4v0.2c0.4,1.3,0.7,2.1,0.7,2.2h0.2c0-0.7,0.1-1.1,0.4-1.1
		h0.2c0.4,0.7,0.7,1.1,0.9,1.1c0.4,0.6,0.6,0.9,0.9,0.9c-0.4,2.7-1.3,4.5-2.4,5.4c-0.4-0.3-0.6-0.5-0.7-0.5h-0.2v1l-2.9,1.8
		c-0.1-0.3-0.5-0.5-1.1-0.6l-0.2,0.5l-0.4-0.2h-0.2v0.5l0.7,0.7l-0.3,0.2h-0.4v0.2l-1.8,1.1c0.1-0.5,0.2-0.8,0.2-0.9
		c-0.1-0.3-0.2-0.5-0.2-0.7l-0.5,0.2c-0.3,0-0.5-0.4-0.5-1.3h-0.5c-0.3,0-0.5,0.2-0.5,0.5v0.5l-5.6-2.4v-0.9h-0.2
		c0,0.1-0.1,0.3-0.4,0.6l-1.2-0.5v-0.1c0-0.3-0.2-0.5-0.5-0.5h-0.2l0.1,0.3L213,59z M217.3,40v0.9h0.2V40H217.3z M227.2-0.8h0.5v0.9
		h-0.5V-0.8z M237.1,51.5h0.5c0,0.5-0.1,0.9-0.2,1.2l0.2,1.3c-0.1,0.9-0.4,1.4-0.7,1.4h-0.5v-0.9C236.5,52.5,236.7,51.5,237.1,51.5z
		"/>
	<path d="M266.2,60.3c-0.4-0.4-0.6-1.3-0.6-2.7v-1.1c0.2-1.1,0.5-1.6,0.9-1.6h0.2l-0.2,2.2l0.2,2.7c0.5,0,0.7-1,0.7-2.9l-0.2-1.6
		l0.2-1.1c0-0.1-0.1-0.6-0.2-1.3v-1.4h-0.7c-0.2,1.2-0.5,1.8-0.9,1.8c-0.4-0.3-0.6-0.5-0.7-0.5c0,0.1-0.1,0.2-0.2,0.2l0.2,1.1
		c-0.1,1.5-0.3,2.2-0.7,2.2H264c0-0.5-0.1-0.9-0.2-1.1c0.2-0.5,0.2-0.8,0.2-0.9c-0.2-2.2-0.2-3.7-0.2-4.5c0.3-1,0.5-1.6,0.5-2v-1.3
		h0.5c0-0.2-0.1-0.4-0.2-0.7c0.2-0.8,0.2-1.5,0.2-2c-0.3,0.1-0.5,0.2-0.7,0.2v1.6l-0.7,0.9V48c0,1.4-0.1,2.7-0.2,3.8
		c0.1,0.8,0.2,1.5,0.2,2.2l-0.2,2c0.1,0.8,0.2,1.5,0.2,2l-0.2,1.1l0.5,0.9c-0.2,1.9-0.3,3-0.5,3.2c0.1,0.2,0.2,0.5,0.2,0.9
		c-0.4,0.3-1.1,0.6-2,0.9l-0.2-0.5c1-2.2,1.5-3.7,1.5-4.7h-0.5l0.2-1.6c-0.2-1.3-0.2-2.3-0.2-3.1h-0.7V56h-0.2
		c-0.3,0-0.5-0.1-0.5-0.4c0.4-0.6,0.7-1.2,0.7-1.8l-0.4,0.2l-1.1-0.5c-0.2,1.7-0.5,2.8-0.9,3.1v0.9c0,1.8-0.2,3.5-0.7,4.9H258
		c0.3-4.8,0.7-7.5,1.1-8.3l-0.2-0.5c0.1-1.2,0.4-1.8,0.7-1.8h0.5c0,0.3,0.1,0.5,0.2,0.5c0.3-0.1,0.5-0.2,0.7-0.2
		c0,0.1,0.1,0.2,0.2,0.2c0-0.1,0.1-0.2,0.2-0.2c0.1,0.3,0.2,0.5,0.2,0.7h0.2c0-0.8,0.1-1.7,0.2-2.5v-0.2h-0.2v0.5h-0.5
		c-0.6-1.2-0.9-2.5-0.9-4H260c0,3.1-0.3,4.7-0.9,4.7l-0.5-0.9c0-0.4,0.2-1.4,0.5-3.1l-0.7,0.5H258v-0.2l6.1-29.3
		c0.3,0,0.9-2.5,1.8-7.6c1-4.8,1.6-7.3,2-7.6h0.5v0.2l0.5-0.2c0.3,0,0.5,0.3,0.5,0.9h0.4c0.3,0,0.5-0.2,0.5-0.7h0.2
		c0.3,0,0.4,0.3,0.4,0.9h0.9c0-0.7,0.2-1.1,0.5-1.1h1.6l0.7,0.5h0.7c0-0.7,0.2-1.1,0.5-1.1c0,0.2,0.2,0.4,0.7,0.7l1.1-0.2
		c0.1,0.3,0.2,0.5,0.5,0.5h1.3V2.6c1.8,0,2.7,0.4,2.7,1.1h0.7c0-0.6,0.2-0.9,0.5-0.9h1.5c0.6,0.8,1.3,1.3,2,1.6
		c0.7,1.2,1.1,2.5,1.1,3.8h-0.2c0.1,1,0.5,2.7,1.4,5.1l0.2,1.1c-0.1,1.6-0.4,2.9-0.7,4v0.9h0.7l0.2-2.2h0.4c0,0.6,0.1,1.2,0.2,1.8
		c0,0.1-0.1,0.4-0.2,0.9c0.3,1.7,0.7,3.2,1.4,4.5c0,0.1,0.1,0.4,0.2,0.7l-0.2,1.3v0.2c0.4,1.2,1,3.7,1.6,7.4c0,0.9-0.3,1.4-0.9,1.4
		c-0.1,1.9-0.2,3-0.2,3.4V39h0.2c0.6-1.2,0.9-2.7,0.9-4.2h0.2c0.2,0,0.4,0.2,0.7,0.7v0.7c0,0.9,0.1,2.1,0.2,3.6
		c0,0.6-0.4,0.9-1.1,0.9v1.4c0.6,0,0.9,0.8,0.9,2.4h0.2l0.2-1.1v-2.9h0.2c0.2,0,0.6,1.3,1.1,3.8c0.2,0,0.3,0.3,0.5,0.9l-0.2,1.3
		c0.1,0.9,0.2,1.6,0.2,2.2c-0.2,0-0.5,0.3-0.9,0.9l1.1,1.3c-0.1,0.9-0.3,1.4-0.9,1.4v0.7c0,0.1,0.1,0.2,0.2,0.2l-0.5,2l0.2,1.3
		c0,0.2-0.1,1.3-0.2,3.2h0.9v0.9c0,0.9-0.3,1.4-0.9,1.4v1.8c0,0.3-0.1,0.4-0.4,0.4H294l-0.5-0.2l0.5-2c-0.1-1.5-0.2-2.7-0.2-3.6
		c0.1-0.5,0.2-0.8,0.2-0.9c-0.2-1.1-0.4-1.6-0.7-1.6c-0.1,1.7-0.4,2.7-0.9,3.1c0,2.7-0.4,4.8-1.1,6.3c0,0.6-0.2,0.9-0.5,0.9h-0.7
		l-0.2-1.1v-2.7c0-0.3-0.1-0.6-0.2-0.9c0-0.2,0.1-0.2,0.2-0.2l-0.2-2.7v-2c-0.5,0-0.9,1.2-1.1,3.6h-0.5l-0.2-1.1
		c0-2.5,0.3-3.8,0.9-3.8v-1.4c0-0.6,0.1-1.5,0.2-2.4c0-0.1-0.1-0.2-0.2-0.2l0.2-1.1v-1.8c-0.5,0-0.9-0.1-1.1-0.2
		c-0.5,1.5-0.7,2.3-0.7,2.4l0.5-0.2h0.5c0,1.3-0.4,3.8-1.1,7.6c0.1,0.3,0.3,1,0.5,2.2c-0.3,2-0.5,3.4-0.5,4c-0.2,0-0.4-0.4-0.7-1.1
		l0.2-1.5V58c-0.3,0-0.4-0.3-0.4-0.9c-1.4,1.1-2.3,1.6-2.7,1.6l-1.6-0.5v-1.1c0-0.1,0.1-0.2,0.2-0.2c-0.3-0.6-0.4-1.4-0.4-2.4
		c-0.5,0-1-0.1-1.6-0.2c-0.1,0.6-0.4,0.9-0.9,0.9l-0.9-0.5c-2,0.8-3.5,1.9-4.5,3.3L266.2,60.3z M274.3,53.8c0,0.4-0.2,0.9-0.7,1.6
		c0.3,0.4,0.4,0.7,0.4,0.9h0.2c0.6-0.6,1-0.9,1.3-0.9v-0.5l-0.7,0.5l-0.2-0.5c0.3,0,0.5-0.1,0.5-0.4L274.3,53.8z M275.6,30.1
		c0.1,0,0.2,0.7,0.2,2.2h-0.4c0,1.2-0.2,2.4-0.5,3.6c0.1,1,0.2,1.8,0.2,2.4V41c0.1,0.3,0.2,0.5,0.5,0.5h0.5v-3.2l0.2-1.1h0.2
		c0,1.2,0.4,2.8,1.3,4.9c0.7,0,1-1.2,1.1-3.6v-4.3c0.3-0.4,0.5-0.6,0.5-0.7v-1.1H279l-0.2,2.2h-0.2c-0.4,0-0.6-1.2-0.9-3.6l-0.5-0.2
		c0.1-0.3,0.2-0.5,0.2-0.7c0-0.6-0.2-1.4-0.5-2.2C276.5,28.1,276,28.7,275.6,30.1z M276.3,54v0.5h0.7V54H276.3z M279,46.8v0.7
		c0.2,0,0.4-0.2,0.7-0.7v-0.2C279.4,46.8,279.2,46.8,279,46.8z M291.3,46.8c0,0.4-0.2,0.8-0.7,1.1c0,1.1-0.3,2.6-0.9,4.5l0.2,1.1
		c-0.1,1.1-0.2,1.6-0.2,1.8v0.9h0.2c0.4-3.9,0.8-5.8,1.4-5.8h0.2v0.2c0,2.7-0.3,4.2-0.9,4.7c0,1.4-0.1,2.7-0.2,3.8l0.2,1.6
		c-0.1,1-0.2,1.8-0.2,2.4v0.2h0.2c0.6-1,0.9-2,0.9-3.1c-0.2-1.1-0.4-1.6-0.7-1.6c0.5-3.4,0.9-5.1,1.1-5.1c0.4-1.4,0.7-2,0.9-2
		c0,0.2,0.1,0.2,0.2,0.2c0.6-2.7,0.9-4.3,0.9-4.7h-0.7v1.1c-0.6,0.4-0.9,0.7-0.9,1.1c-0.5,0.1-0.8,0.2-0.9,0.2v-2.7H291.3z"/>
	<path d="M311.4,65.8c0.1-0.5,0.2-1,0.3-1.6l-0.5-0.2H311c-0.4,1.7-1.1,2.5-2.1,2.5h-0.2c-0.3,0-0.5-0.6-0.6-1.7
		c0.3,0,0.4-0.1,0.4-0.4v-0.2c0-0.3-0.3-0.4-0.8-0.4v-0.9h0.6c0,0.4,0.1,0.7,0.4,0.7h0.2v-0.9l0.2-1c-0.5,0-0.8-0.6-0.9-1.7
		c-0.1,0-0.2-0.1-0.2-0.2v-0.2c0.4-1.1,0.8-2,1.3-2.7v-2.7c-0.9-0.6-1.3-2-1.3-4.2h-0.2l-0.2,1.5l0.2,1.9c-0.1,2-0.3,3-0.6,3H307
		v-0.7c0-0.7,0.1-1.4,0.2-2.1l-0.2-1.2l0.6-4.4v-1l0.2-0.5l-0.4-0.2c-0.3,0.1-0.4,0.2-0.4,0.5v3.2h-0.5v-1.9c0-0.6,0.1-1.2,0.2-1.7
		c-0.2-0.6-0.2-1.1-0.2-1.7v-1.9c0-0.3-0.1-0.4-0.4-0.4h-0.2c-0.4,0.8-0.6,1.4-0.6,1.7h-0.4v-0.6c0-1.4,0.6-2.1,1.7-2.1
		c-0.1-1-0.3-1.5-0.6-1.5l-0.6,0.8v1h-0.8v-0.2c0.3-0.5,0.4-0.9,0.4-1.2c-0.7-0.7-1.1-1.5-1.1-2.3V37c0.3,0,0.6-0.1,0.9-0.2l0.4,0.2
		c0.2-0.2,0.5-0.2,0.8-0.2v1.1c0,0.2,0.2,0.4,0.6,0.6h0.2v-1.7l-0.2-1.2c0.2-0.2,0.2-0.5,0.2-0.8c-0.3,0-0.5-0.2-0.5-0.5v-1.7
		l0.2-1.3c-0.1-0.2-0.2-0.5-0.2-0.8l0.2-1.1c-0.1-0.3-0.2-0.5-0.2-0.6l-0.8,0.6c-0.2,0-0.7-0.6-1.5-1.7c0.1-0.3,0.2-0.5,0.5-0.5
		c0.6,0.6,0.8,1.1,0.8,1.3h0.2v-0.2c0-1.3-0.5-1.9-1.5-1.9c0,0.3-0.1,0.4-0.4,0.4c-0.1-0.5-0.8-0.8-1.9-0.8v-0.6
		c0.7,0.1,1.2,0.2,1.3,0.2c0.6-0.3,1.2-0.8,1.9-1.3c0.2,0.1,0.5,0.2,0.6,0.2v0.4l-1.3,0.5v0.2l0.2,0.4l0.4-0.2h0.4
		c0,0.1,0.1,0.3,0.2,0.8h0.2c0.3,0,0.6-0.5,0.8-1.5c-0.1-0.6-0.2-0.9-0.4-0.9l0.4-4.4c-0.1-0.2-0.2-0.6-0.2-1l-1,0.2v-0.8
		c0-0.3,0.2-0.5,0.4-0.5l0.4,0.2l0.2-0.5c-0.4-0.7-0.7-1-0.8-1c0,0.4-0.2,0.6-0.6,0.6h-0.7c0,0.3-0.1,0.4-0.4,0.4
		c0-0.1-0.1-0.2-0.2-0.2v0.4h-0.2c-0.1,0-0.2-0.1-0.2-0.2l-0.4,0.2l-1.1-0.6c-0.2,0.7-0.4,1.1-0.6,1.1l-0.8-1.5h-0.4
		c0,0.4-0.2,0.6-0.5,0.6h-0.6c-1.3-1-1.9-2-1.9-3.2l-0.6,0.4l-0.2-0.4c0-1.5,0.1-2.6,0.2-3.2c-0.1-1.2-0.2-2.3-0.2-3.2
		c0-1,0.1-2.3,0.4-4h0.4v1h0.2c0.3,0,0.6-0.5,0.7-1.5h0.4c0.3,0,0.4,0.4,0.4,1.1h0.6c0-0.5,0.8-1,2.3-1.5c0.6,0.2,0.9,0.4,0.9,0.6
		v1.3h0.4l0.8-1.5c0.1,0,0.3,0.3,0.6,0.9c0.5,0,1-0.4,1.5-1.1h0.2c0.3,0,0.4,0.2,0.4,0.7c0.7,0,1.4-0.2,1.9-0.7h0.4
		c0.7,0,1.5,0.4,2.3,1.1c0-0.4,0.4-0.7,1.3-1.1c0.3,0,0.4,0.2,0.4,0.7c1.7-0.2,3.1-0.6,4.2-1.3c0.3,0,0.4,0.4,0.4,1.3h0.8
		c0-0.5,0.1-0.9,0.2-1.1c0.6,0.3,1.3,0.4,2.3,0.4l1.1-0.2c0,0.3,0.2,0.4,0.4,0.4h1.3l0.6-0.4c0.7,0.1,1,0.4,1,0.9h0.9
		c0-0.6,0.1-0.9,0.4-0.9h0.2c0.3,0,0.4,0.2,0.4,0.4l2.7-0.4v0.2c0.6-0.3,1.1-0.4,1.5-0.4c1,1.5,1.5,2.5,1.5,2.9v4.4
		c0,0.5-0.1,0.8-0.2,1.1l0.2,1.2v1.3c0,1.9-0.4,3.2-1.3,4l-1-0.2c0,0.3-0.2,0.5-0.5,0.5h-0.2l-0.6-0.5h-0.2c0,0.4-0.1,0.7-0.4,0.7
		l-1.9-0.5c-0.3,0.2-0.5,0.2-0.6,0.2c-0.2-0.7-0.4-1.1-0.7-1.1h-0.4c0,0.7-0.1,1.1-0.4,1.1h-0.2c-0.1,0-0.2-0.1-0.2-0.2l-0.4,0.2
		c-0.6-0.3-0.9-0.5-0.9-0.7c-0.3,0.1-0.5,0.2-0.6,0.2c-0.1,1.9-0.2,3.3-0.2,4.2V26l-0.2,1.2c0.1,0.2,0.2,0.5,0.2,0.9
		c-0.1,1.4-0.2,2.5-0.2,3.2c0.3,0,0.4,0.2,0.4,0.4v0.4l-0.2,1.3c0,0.1,0.1,0.2,0.2,0.2l-0.2,1.1v1.5c0,0.5,0.3,1,0.8,1.5v1
		c0,0.3-0.1,0.4-0.4,0.4l0.2,0.5V40c-0.4,0.5-0.6,1-0.6,1.5v1.1l0.2,1c-0.1,0-0.2,0.1-0.2,0.2l0.4,0.2c0-0.7,0.1-1,0.4-1h0.2v0.2
		c0,0.1-0.1,0.2-0.2,0.2c0.1,0.6,1,1.2,2.7,1.7v0.4l-0.2,0.4h0.2c0.4,0,1.1-0.6,2.1-1.9c0.2,0.2,0.5,0.2,0.7,0.2l0.4-0.9
		c1,0.1,1.5,0.3,1.5,0.6v0.2h-0.4l-0.4-0.2l-0.2,0.5l0.4,0.6v0.2c-0.8,0.5-1.2,0.9-1.2,1c0.1,0.2,0.2,0.5,0.2,0.7l-0.4,0.2h-0.2
		v-0.4h-0.2v0.2c0.1,0.2,0.2,0.5,0.2,0.8c-0.7,0.7-1.2,2.3-1.7,5.1h-0.4c0-0.5-0.1-0.8-0.2-1l-2.1,0.2H322v-0.4h-0.4l0.4,0.6
		c-0.3,0.4-0.5,0.9-0.6,1.5c0,0.1,0.4,1,1.2,2.7v0.2c-0.4,0.5-0.6,1.2-0.6,1.9v0.8l0.2,0.4c-0.3,0-0.4,0.2-0.4,0.4
		c0,1.3,0.2,1.9,0.6,1.9v0.6c0,0.2-0.2,0.4-0.6,0.7c-0.5-1-0.9-1.5-1.1-1.5h-0.2v0.6l0.5,0.7l-0.5,0.6l-0.4-0.2h-0.4
		c0.3,0.4,0.5,0.7,0.8,1l-2.2,0.9c0.1-0.2,0.1-0.4,0.1-0.7c-0.6-1.1-1-1.7-1.2-1.7c-0.5,0-1.1,0.2-1.7,0.6c0-0.1-0.1-0.2-0.2-0.2
		l0.2-0.4v-0.5l-0.4-0.6v-0.4c0-0.3,0.2-0.4,0.4-0.4c0.3,0,0.4,0.2,0.4,0.4l-0.2,0.4l0.4,0.2c0.3,0,0.5-0.4,0.7-1.2l-0.4,0.2
		c-0.6-0.2-0.9-0.4-0.9-0.6c0.1-0.9,0.3-1.5,0.6-1.9c0-0.3-0.1-0.4-0.4-0.4h-0.2v0.2c0,1.1-0.3,2.4-1,4H314l-0.7-1h-0.2
		c0,1.8-0.3,2.7-1,2.7c0.1,0.2,0.2,0.5,0.2,0.6h0.2L311.4,65.8z M322,49.9v0.8h0.6v-0.2l-0.2-1C322.1,49.5,322,49.6,322,49.9z
		 M322.2,46v0.7c0.2,0,0.5-0.3,0.8-0.9v-0.2h-0.4C322.3,45.7,322.2,45.8,322.2,46z M322.2,47.3v0.2c0.4,0,0.6,0.2,0.6,0.6h1.1v-0.4
		c-0.4-0.5-0.7-0.8-0.7-1h-0.4C322.6,46.7,322.4,46.9,322.2,47.3z M323.5,50.7l0.4,0.2h0.4c0.3-1.1,0.4-1.7,0.4-2.1
		c-0.1,0-0.2-0.1-0.2-0.2C323.8,48.6,323.5,49.3,323.5,50.7z"/>
	<path d="M352.5,65.8c0.1-0.5,0.2-1,0.3-1.6l-0.5-0.2h-0.2c-0.4,1.7-1.1,2.5-2.1,2.5h-0.2c-0.3,0-0.5-0.6-0.6-1.7
		c0.3,0,0.4-0.1,0.4-0.4v-0.2c0-0.3-0.3-0.4-0.8-0.4v-0.9h0.6c0,0.4,0.1,0.7,0.4,0.7h0.2v-0.9l0.2-1c-0.5,0-0.8-0.6-0.9-1.7
		c-0.1,0-0.2-0.1-0.2-0.2v-0.2c0.4-1.1,0.8-2,1.3-2.7v-2.7c-0.9-0.6-1.3-2-1.3-4.2H349l-0.2,1.5l0.2,1.9c-0.1,2-0.3,3-0.6,3h-0.2
		v-0.7c0-0.7,0.1-1.4,0.2-2.1l-0.2-1.2l0.6-4.4v-1l0.2-0.5l-0.4-0.2c-0.3,0.1-0.4,0.2-0.4,0.5v3.2h-0.5v-1.9c0-0.6,0.1-1.2,0.2-1.7
		c-0.2-0.6-0.2-1.1-0.2-1.7v-1.9c0-0.3-0.1-0.4-0.4-0.4h-0.2c-0.4,0.8-0.6,1.4-0.6,1.7h-0.4v-0.6c0-1.4,0.6-2.1,1.7-2.1
		c-0.1-1-0.3-1.5-0.6-1.5l-0.6,0.8v1h-0.8v-0.2c0.3-0.5,0.4-0.9,0.4-1.2c-0.7-0.7-1.1-1.5-1.1-2.3V37c0.3,0,0.6-0.1,0.9-0.2l0.4,0.2
		c0.2-0.2,0.5-0.2,0.8-0.2v1.1c0,0.2,0.2,0.4,0.6,0.6h0.2v-1.7l-0.2-1.2c0.2-0.2,0.2-0.5,0.2-0.8c-0.3,0-0.5-0.2-0.5-0.5v-1.7
		l0.2-1.3c-0.1-0.2-0.2-0.5-0.2-0.8l0.2-1.1c-0.1-0.3-0.2-0.5-0.2-0.6l-0.8,0.6c-0.2,0-0.7-0.6-1.5-1.7c0.1-0.3,0.2-0.5,0.5-0.5
		c0.6,0.6,0.8,1.1,0.8,1.3h0.2v-0.2c0-1.3-0.5-1.9-1.5-1.9c0,0.3-0.1,0.4-0.4,0.4c-0.1-0.5-0.8-0.8-1.9-0.8v-0.6
		c0.7,0.1,1.2,0.2,1.3,0.2c0.6-0.3,1.2-0.8,1.9-1.3c0.2,0.1,0.5,0.2,0.6,0.2v0.4l-1.3,0.5v0.2l0.2,0.4l0.4-0.2h0.4
		c0,0.1,0.1,0.3,0.2,0.8h0.2c0.3,0,0.6-0.5,0.8-1.5c-0.1-0.6-0.2-0.9-0.4-0.9l0.4-4.4c-0.1-0.2-0.2-0.6-0.2-1l-1,0.2v-0.8
		c0-0.3,0.2-0.5,0.4-0.5l0.4,0.2l0.2-0.5c-0.4-0.7-0.7-1-0.8-1c0,0.4-0.2,0.6-0.6,0.6h-0.7c0,0.3-0.1,0.4-0.4,0.4
		c0-0.1-0.1-0.2-0.2-0.2v0.4h-0.2c-0.1,0-0.2-0.1-0.2-0.2l-0.4,0.2l-1.1-0.6c-0.2,0.7-0.4,1.1-0.6,1.1l-0.8-1.5H341
		c0,0.4-0.2,0.6-0.5,0.6h-0.6c-1.3-1-1.9-2-1.9-3.2l-0.6,0.4l-0.2-0.4c0-1.5,0.1-2.6,0.2-3.2c-0.1-1.2-0.2-2.3-0.2-3.2
		c0-1,0.1-2.3,0.4-4h0.4v1h0.2c0.3,0,0.6-0.5,0.7-1.5h0.4c0.3,0,0.4,0.4,0.4,1.1h0.6c0-0.5,0.8-1,2.3-1.5c0.6,0.2,0.9,0.4,0.9,0.6
		v1.3h0.4l0.8-1.5c0.1,0,0.3,0.3,0.6,0.9c0.5,0,1-0.4,1.5-1.1h0.2c0.3,0,0.4,0.2,0.4,0.7c0.7,0,1.4-0.2,1.9-0.7h0.4
		c0.7,0,1.5,0.4,2.3,1.1c0-0.4,0.4-0.7,1.3-1.1c0.3,0,0.4,0.2,0.4,0.7c1.7-0.2,3.1-0.6,4.2-1.3c0.3,0,0.4,0.4,0.4,1.3h0.8
		c0-0.5,0.1-0.9,0.2-1.1c0.6,0.3,1.3,0.4,2.3,0.4l1.1-0.2c0,0.3,0.2,0.4,0.4,0.4h1.3l0.6-0.4c0.7,0.1,1,0.4,1,0.9h0.9
		c0-0.6,0.1-0.9,0.4-0.9h0.2c0.3,0,0.4,0.2,0.4,0.4l2.7-0.4v0.2c0.6-0.3,1.1-0.4,1.5-0.4c1,1.5,1.5,2.5,1.5,2.9v4.4
		c0,0.5-0.1,0.8-0.2,1.1l0.2,1.2v1.3c0,1.9-0.4,3.2-1.3,4l-1-0.2c0,0.3-0.2,0.5-0.5,0.5h-0.2l-0.6-0.5h-0.2c0,0.4-0.1,0.7-0.4,0.7
		l-1.9-0.5c-0.3,0.2-0.5,0.2-0.6,0.2c-0.2-0.7-0.4-1.1-0.7-1.1h-0.4c0,0.7-0.1,1.1-0.4,1.1h-0.2c-0.1,0-0.2-0.1-0.2-0.2l-0.4,0.2
		c-0.6-0.3-0.9-0.5-0.9-0.7c-0.3,0.1-0.5,0.2-0.6,0.2c-0.1,1.9-0.2,3.3-0.2,4.2V26l-0.2,1.2c0.1,0.2,0.2,0.5,0.2,0.9
		c-0.1,1.4-0.2,2.5-0.2,3.2c0.3,0,0.4,0.2,0.4,0.4v0.4l-0.2,1.3c0,0.1,0.1,0.2,0.2,0.2l-0.2,1.1v1.5c0,0.5,0.3,1,0.8,1.5v1
		c0,0.3-0.1,0.4-0.4,0.4l0.2,0.5V40c-0.4,0.5-0.6,1-0.6,1.5v1.1l0.2,1c-0.1,0-0.2,0.1-0.2,0.2l0.4,0.2c0-0.7,0.1-1,0.4-1h0.2v0.2
		c0,0.1-0.1,0.2-0.2,0.2c0.1,0.6,1,1.2,2.7,1.7v0.4l-0.2,0.4h0.2c0.4,0,1.1-0.6,2.1-1.9c0.2,0.2,0.5,0.2,0.7,0.2l0.4-0.9
		c1,0.1,1.5,0.3,1.5,0.6v0.2h-0.4l-0.4-0.2l-0.2,0.5l0.4,0.6v0.2c-0.8,0.5-1.2,0.9-1.2,1c0.1,0.2,0.2,0.5,0.2,0.7l-0.4,0.2H369v-0.4
		h-0.2v0.2c0.1,0.2,0.2,0.5,0.2,0.8c-0.7,0.7-1.2,2.3-1.7,5.1H367c0-0.5-0.1-0.8-0.2-1l-2.1,0.2h-1.5v-0.4h-0.4l0.4,0.6
		c-0.3,0.4-0.5,0.9-0.6,1.5c0,0.1,0.4,1,1.2,2.7v0.2c-0.4,0.5-0.6,1.2-0.6,1.9v0.8l0.2,0.4c-0.3,0-0.4,0.2-0.4,0.4
		c0,1.3,0.2,1.9,0.6,1.9v0.6c0,0.2-0.2,0.4-0.6,0.7c-0.5-1-0.9-1.5-1.1-1.5h-0.2v0.6l0.5,0.7l-0.5,0.6l-0.4-0.2h-0.4
		c0.3,0.4,0.5,0.7,0.8,1l-2.2,0.9c0.1-0.2,0.1-0.4,0.1-0.7c-0.6-1.1-1-1.7-1.2-1.7c-0.5,0-1.1,0.2-1.7,0.6c0-0.1-0.1-0.2-0.2-0.2
		l0.2-0.4v-0.5l-0.4-0.6v-0.4c0-0.3,0.2-0.4,0.4-0.4c0.3,0,0.4,0.2,0.4,0.4l-0.2,0.4l0.4,0.2c0.3,0,0.5-0.4,0.7-1.2l-0.4,0.2
		c-0.6-0.2-0.9-0.4-0.9-0.6c0.1-0.9,0.3-1.5,0.6-1.9c0-0.3-0.1-0.4-0.4-0.4h-0.2v0.2c0,1.1-0.3,2.4-1,4h-0.4l-0.7-1h-0.2
		c0,1.8-0.3,2.7-1,2.7c0.1,0.2,0.2,0.5,0.2,0.6h0.2L352.5,65.8z M363.1,49.9v0.8h0.6v-0.2l-0.2-1C363.3,49.5,363.1,49.6,363.1,49.9z
		 M363.4,46v0.7c0.2,0,0.5-0.3,0.8-0.9v-0.2h-0.4C363.5,45.7,363.4,45.8,363.4,46z M363.4,47.3v0.2c0.4,0,0.6,0.2,0.6,0.6h1.1v-0.4
		c-0.4-0.5-0.7-0.8-0.7-1H364C363.8,46.7,363.6,46.9,363.4,47.3z M364.6,50.7l0.4,0.2h0.4c0.3-1.1,0.4-1.7,0.4-2.1
		c-0.1,0-0.2-0.1-0.2-0.2C365,48.6,364.6,49.3,364.6,50.7z"/>
	<path d="M386.3,60.3c-0.4-0.4-0.6-1.3-0.6-2.7v-1.1c0.2-1.1,0.5-1.6,0.9-1.6h0.2l-0.2,2.2l0.2,2.7c0.5,0,0.7-1,0.7-2.9l-0.2-1.6
		l0.2-1.1c0-0.1-0.1-0.6-0.2-1.3v-1.4h-0.7c-0.2,1.2-0.5,1.8-0.9,1.8c-0.4-0.3-0.6-0.5-0.7-0.5c0,0.1-0.1,0.2-0.2,0.2l0.2,1.1
		c-0.1,1.5-0.3,2.2-0.7,2.2h-0.2c0-0.5-0.1-0.9-0.2-1.1c0.2-0.5,0.2-0.8,0.2-0.9c-0.2-2.2-0.2-3.7-0.2-4.5c0.3-1,0.5-1.6,0.5-2v-1.3
		h0.5c0-0.2-0.1-0.4-0.2-0.7c0.2-0.8,0.2-1.5,0.2-2c-0.3,0.1-0.5,0.2-0.7,0.2v1.6l-0.7,0.9V48c0,1.4-0.1,2.7-0.2,3.8
		c0.1,0.8,0.2,1.5,0.2,2.2l-0.2,2c0.1,0.8,0.2,1.5,0.2,2l-0.2,1.1l0.5,0.9c-0.2,1.9-0.3,3-0.5,3.2c0.1,0.2,0.2,0.5,0.2,0.9
		c-0.4,0.3-1.1,0.6-2,0.9l-0.2-0.5c1-2.2,1.5-3.7,1.5-4.7h-0.5l0.2-1.6c-0.2-1.3-0.2-2.3-0.2-3.1h-0.7V56h-0.2
		c-0.3,0-0.5-0.1-0.5-0.4c0.4-0.6,0.7-1.2,0.7-1.8l-0.4,0.2l-1.1-0.5c-0.2,1.7-0.5,2.8-0.9,3.1v0.9c0,1.8-0.2,3.5-0.7,4.9h-0.5
		c0.3-4.8,0.7-7.5,1.1-8.3l-0.2-0.5c0.1-1.2,0.4-1.8,0.7-1.8h0.5c0,0.3,0.1,0.5,0.2,0.5c0.3-0.1,0.5-0.2,0.7-0.2
		c0,0.1,0.1,0.2,0.2,0.2c0-0.1,0.1-0.2,0.2-0.2c0.1,0.3,0.2,0.5,0.2,0.7h0.2c0-0.8,0.1-1.7,0.2-2.5v-0.2h-0.2v0.5h-0.5
		c-0.6-1.2-0.9-2.5-0.9-4h-0.4c0,3.1-0.3,4.7-0.9,4.7l-0.5-0.9c0-0.4,0.2-1.4,0.5-3.1l-0.7,0.5h-0.5v-0.2l6.1-29.3
		c0.3,0,0.9-2.5,1.8-7.6c1-4.8,1.6-7.3,2-7.6h0.5v0.2l0.5-0.2c0.3,0,0.5,0.3,0.5,0.9h0.4c0.3,0,0.5-0.2,0.5-0.7h0.2
		c0.3,0,0.4,0.3,0.4,0.9h0.9c0-0.7,0.2-1.1,0.5-1.1h1.6l0.7,0.5h0.7c0-0.7,0.2-1.1,0.5-1.1c0,0.2,0.2,0.4,0.7,0.7l1.1-0.2
		c0.1,0.3,0.2,0.5,0.5,0.5h1.3V2.6c1.8,0,2.7,0.4,2.7,1.1h0.7c0-0.6,0.2-0.9,0.5-0.9h1.5c0.6,0.8,1.3,1.3,2,1.6
		c0.7,1.2,1.1,2.5,1.1,3.8h-0.2c0.1,1,0.5,2.7,1.4,5.1l0.2,1.1c-0.1,1.6-0.4,2.9-0.7,4v0.9h0.7l0.2-2.2h0.4c0,0.6,0.1,1.2,0.2,1.8
		c0,0.1-0.1,0.4-0.2,0.9c0.3,1.7,0.7,3.2,1.4,4.5c0,0.1,0.1,0.4,0.2,0.7l-0.2,1.3v0.2c0.4,1.2,1,3.7,1.6,7.4c0,0.9-0.3,1.4-0.9,1.4
		c-0.1,1.9-0.2,3-0.2,3.4V39h0.2c0.6-1.2,0.9-2.7,0.9-4.2h0.2c0.2,0,0.4,0.2,0.7,0.7v0.7c0,0.9,0.1,2.1,0.2,3.6
		c0,0.6-0.4,0.9-1.1,0.9v1.4c0.6,0,0.9,0.8,0.9,2.4h0.2l0.2-1.1v-2.9h0.2c0.2,0,0.6,1.3,1.1,3.8c0.2,0,0.3,0.3,0.5,0.9l-0.2,1.3
		c0.1,0.9,0.2,1.6,0.2,2.2c-0.2,0-0.5,0.3-0.9,0.9l1.1,1.3c-0.1,0.9-0.3,1.4-0.9,1.4v0.7c0,0.1,0.1,0.2,0.2,0.2l-0.5,2l0.2,1.3
		c0,0.2-0.1,1.3-0.2,3.2h0.9v0.9c0,0.9-0.3,1.4-0.9,1.4v1.8c0,0.3-0.1,0.4-0.4,0.4h-0.2l-0.5-0.2l0.5-2c-0.1-1.5-0.2-2.7-0.2-3.6
		c0.1-0.5,0.2-0.8,0.2-0.9c-0.2-1.1-0.4-1.6-0.7-1.6c-0.1,1.7-0.4,2.7-0.9,3.1c0,2.7-0.4,4.8-1.1,6.3c0,0.6-0.2,0.9-0.5,0.9h-0.7
		L410,65v-2.7c0-0.3-0.1-0.6-0.2-0.9c0-0.2,0.1-0.2,0.2-0.2l-0.2-2.7v-2c-0.5,0-0.9,1.2-1.1,3.6h-0.5l-0.2-1.1
		c0-2.5,0.3-3.8,0.9-3.8v-1.4c0-0.6,0.1-1.5,0.2-2.4c0-0.1-0.1-0.2-0.2-0.2l0.2-1.1v-1.8c-0.5,0-0.9-0.1-1.1-0.2
		c-0.5,1.5-0.7,2.3-0.7,2.4l0.5-0.2h0.5c0,1.3-0.4,3.8-1.1,7.6c0.1,0.3,0.3,1,0.5,2.2c-0.3,2-0.5,3.4-0.5,4c-0.2,0-0.4-0.4-0.7-1.1
		l0.2-1.5V58c-0.3,0-0.4-0.3-0.4-0.9c-1.4,1.1-2.3,1.6-2.7,1.6l-1.6-0.5v-1.1c0-0.1,0.1-0.2,0.2-0.2c-0.3-0.6-0.4-1.4-0.4-2.4
		c-0.5,0-1-0.1-1.6-0.2c-0.1,0.6-0.4,0.9-0.9,0.9l-0.9-0.5c-2,0.8-3.5,1.9-4.5,3.3L386.3,60.3z M394.4,53.8c0,0.4-0.2,0.9-0.7,1.6
		c0.3,0.4,0.4,0.7,0.4,0.9h0.2c0.6-0.6,1-0.9,1.3-0.9v-0.5l-0.7,0.5l-0.2-0.5c0.3,0,0.5-0.1,0.5-0.4L394.4,53.8z M395.7,30.1
		c0.1,0,0.2,0.7,0.2,2.2h-0.4c0,1.2-0.2,2.4-0.5,3.6c0.1,1,0.2,1.8,0.2,2.4V41c0.1,0.3,0.2,0.5,0.5,0.5h0.5v-3.2l0.2-1.1h0.2
		c0,1.2,0.4,2.8,1.3,4.9c0.7,0,1-1.2,1.1-3.6v-4.3c0.3-0.4,0.5-0.6,0.5-0.7v-1.1h-0.5l-0.2,2.2h-0.2c-0.4,0-0.6-1.2-0.9-3.6
		l-0.5-0.2c0.1-0.3,0.2-0.5,0.2-0.7c0-0.6-0.2-1.4-0.5-2.2C396.6,28.1,396.1,28.7,395.7,30.1z M396.4,54v0.5h0.7V54H396.4z
		 M399.1,46.8v0.7c0.2,0,0.4-0.2,0.7-0.7v-0.2C399.5,46.8,399.3,46.8,399.1,46.8z M411.4,46.8c0,0.4-0.2,0.8-0.7,1.1
		c0,1.1-0.3,2.6-0.9,4.5l0.2,1.1c-0.1,1.1-0.2,1.6-0.2,1.8v0.9h0.2c0.4-3.9,0.8-5.8,1.4-5.8h0.2v0.2c0,2.7-0.3,4.2-0.9,4.7
		c0,1.4-0.1,2.7-0.2,3.8l0.2,1.6c-0.1,1-0.2,1.8-0.2,2.4v0.2h0.2c0.6-1,0.9-2,0.9-3.1c-0.2-1.1-0.4-1.6-0.7-1.6
		c0.5-3.4,0.9-5.1,1.1-5.1c0.4-1.4,0.7-2,0.9-2c0,0.2,0.1,0.2,0.2,0.2c0.6-2.7,0.9-4.3,0.9-4.7h-0.7v1.1c-0.6,0.4-0.9,0.7-0.9,1.1
		c-0.5,0.1-0.8,0.2-0.9,0.2v-2.7H411.4z"/>
	<path d="M434.4,61v-0.2h-0.2c-0.3,0-0.4,0.2-0.4,0.4v0.2l-2.1,1.4l0.6-0.8v-0.6l-1.5-1.7l-1.2,0.7v-0.5h-2.3
		c-0.3,0.1-0.4,0.2-0.4,0.5v0.2h0.4v0.2l-0.4,0.6l1,0.2c0.2-0.8,0.4-1.2,0.6-1.2h1.1v0.2l-0.8,0.8l0.1,0.8l-3.1-1V61
		c0-0.4,0.1-0.8,0.4-1.3H426c-0.2,0.1-0.5,0.2-0.6,0.2v0.2c0,0.3,0.1,0.6,0.2,0.9c0,0.1-0.1,0.1-0.1,0.1l-1.8-0.5
		c-0.2-0.8-0.4-1.9-0.6-3.4h-0.4l-0.2,1c0.2,0,0.5,0.7,0.8,2.2l-0.8-0.2v-0.3l0.2-0.4c-0.2,0-0.6-1-1.2-3.1c-0.7-0.6-1-1.3-1-1.9
		h0.4v0.6h0.2v-1c0-0.3-0.1-0.4-0.4-0.4l-0.4,0.2v-0.2c0.1-4.3,0.4-6.5,0.8-6.5c0,0.1,0.1,0.2,0.2,0.2c0-1.7,0.3-2.5,1-2.5v-0.4
		c0-0.6-0.1-1.1-0.4-1.7c0.3-1.1,0.4-1.9,0.4-2.5v-0.9h-0.2c0,0.9-0.2,1.5-0.6,1.9v1.2c0,1.4-0.3,2.5-0.8,3.2v0.6h-0.4l1-8v-1
		c0-0.7-0.1-1.4-0.2-2.1l0.4-3.6l-0.6-0.4h-0.2v4.8c0,1.9-0.2,3.1-0.6,3.5v0.7c0,3-0.3,4.7-0.8,5.2h-0.4c0.3-2.5,0.4-4.5,0.4-6.1
		c-0.3,0.3-0.6,0.4-0.9,0.4l0.2,0.5c-0.2,0.7-0.7,1-1.3,1v0.2l0.2,1c-0.4,0-0.7,1.6-0.8,4.8H416v-5.2c0.6-0.7,0.8-1.6,0.8-2.7v-0.6
		h-0.2c0,0.7-0.1,1-0.4,1c-0.3,0-0.4-0.1-0.4-0.4v-2.5c0-0.7,0.1-1.4,0.2-1.9c-0.1-0.8-0.2-1.5-0.2-2.3c0-0.8,0.1-2.3,0.2-4.4
		c-0.1-0.3-0.2-0.5-0.2-0.6h0.2c-0.1-0.3-0.2-0.5-0.2-0.6c0-0.4,0.1-0.8,0.2-1c-0.1-0.8-0.2-1.4-0.2-1.9v-1.7l0.2-1.2l-0.2-0.4
		c0.2-3.6,0.7-5.4,1.2-5.4V15c0.5-2.3,1.5-4.4,3.2-6.5c0.7,0,1-0.1,1-0.4c0.2-1,0.4-1.5,0.6-1.5h0.4v1h0.4c0.5,0,1-0.7,1.3-2.1h0.2
		c0.3,0,0.4,0.2,0.4,0.6h0.6c0-1.2,0.3-1.9,0.8-1.9c0.6,0.4,1.1,0.6,1.7,0.6c0.1-0.3,0.2-0.4,0.4-0.4c0.1,0,0.2,0.1,0.2,0.2
		c0.3,0,0.8-0.4,1.3-1.1l1.9-0.2c0,0.3,0.2,0.4,0.6,0.4l0.8-0.4c0.1,0.2,0.2,0.6,0.2,1.1h0.4c0.2,0,0.7-0.4,1.5-1.3h0.6
		c0.1,0,0.3,0.3,0.6,0.8c0.1,0,0.5-0.1,1.2-0.2l1,0.7c0-0.4,0.2-0.7,0.5-0.7h0.6c0.4,0.4,1.3,0.7,2.7,0.9c0,0.3,0.8,0.6,2.3,0.8
		l1.5,1.2l0.4-0.2c0.3,0,0.4,0.2,0.4,0.4v1h0.8V7.7h0.4c0.4,0.6,0.7,0.8,1.1,0.8c0,0.8,0.8,1.9,2.3,3.2c0,0.3,0.1,0.6,0.2,0.8
		c-0.1,0.3-0.2,0.5-0.2,0.6l0.4-0.2c0.7,0.8,1.1,1.9,1.2,3.4l-0.2,1.2l0.4-0.2h0.2c0,0.7,0.1,1.4,0.2,1.9c-0.1,1.6-0.2,3-0.2,4.2V25
		c0,1.8-0.6,2.7-1.9,2.7c-1.4-0.4-2.1-1.1-2.1-2.1h-0.2c-0.1,1.7-0.4,2.5-0.9,2.5c-0.4-0.3-0.8-0.4-1-0.4v0.2l-0.4-0.2h-0.4
		c0,0.4-0.1,0.6-0.4,0.6l-0.2-0.4v-1h-0.4c-0.3,0-0.4,0.2-0.4,0.6h-0.8v-0.6c-0.1,0-0.5,0.4-1.1,1.2c-0.3,0-0.5-0.4-0.6-1.2h-0.4
		c0,0.8-0.7,1.2-2.1,1.2c-0.9,0-1.8-0.6-2.5-1.9l0.2-0.4l-0.2-0.4c0.3-0.4,0.5-2,0.6-4.8c-0.6,0-1.2-1.5-1.9-4.4v-0.4h-0.4
		c0,0.5-0.1,1.2-0.4,2.1h-0.4l-0.2-0.8h-0.2c-0.6,0.6-1.5,1-2.7,1.2c0,0.4-0.3,1.1-0.8,2.1l-0.2,1.9c0.1,1.7,0.2,2.8,0.2,3.2
		l-0.2,0.4c0,0.1,0.1,0.2,0.2,0.2l-0.2,1v2.3c0,1.6-0.1,2.7-0.2,3.4c0.1,1.3,0.2,2.7,0.2,4v4.4l0.2,2.1h0.8c0.3,0,0.4-0.1,0.4-0.4
		h-0.6v-0.6h0.4c0.1,0,0.3,0.3,0.6,0.8c2.2,0,3.4-0.7,3.4-2.1h0.6l0.6,0.4c0.4-0.3,0.7-0.4,1-0.4v-0.8c0-0.2-0.3-0.6-1-1.1l-0.8,0.6
		h-0.2v-0.2c0-0.8,0.5-1.2,1.5-1.2v-0.4c-0.6-0.4-0.9-1.2-1-2.5c-0.3,0-0.4-0.1-0.4-0.4v-0.5c0.1-0.3,0.2-0.4,0.4-0.4
		c0,0.1,0.1,0.2,0.2,0.2v-0.6l-0.4,0.2c0-0.2-0.3-0.4-0.8-0.6l0.2-0.4v-1.2c-0.4-0.5-0.6-1.2-0.6-1.9c0-0.7,0.3-1.3,1-1.7
		c0.3,0,0.4,0.2,0.4,0.4c-0.2,0-0.5,0.3-0.8,0.8v0.7c0,0.8,0.3,1.2,0.8,1.2l1-0.6h0.2v0.2c-0.3,0.8-0.6,1.2-0.8,1.2l-0.6-0.4v0.6
		l0.2,1h0.2c0-0.7,0.1-1,0.4-1c0,1.2,0.6,2.1,1.7,2.5v-0.8c0.3,0,0.4,0.2,0.4,0.6l1.5-0.2h1.2c1.4,1.5,2.1,2.5,2.1,2.9l-0.4,0.2
		c0-0.3-0.2-0.4-0.5-0.4h-0.2c0.4,0.4,0.7,0.8,0.7,1.2c0.2,0,0.5,0.4,1,1.2c0,0.1-0.1,0.4-0.2,0.9c0.1,0.3,0.2,0.5,0.2,0.6l0.8-1.5
		c0.3,0.4,0.4,0.7,0.4,1.1h0.2l0.8-1.1c0.3,0,0.4,0.4,0.4,1.1h0.8c0-0.7,0.2-1.1,0.5-1.1c0.3,0.1,0.4,0.2,0.4,0.4v1.1
		c0,0.4-0.1,0.8-0.2,1l0.2,1.2V44h0.6c0.5-2.3,1.1-3.5,1.9-3.5h0.8c0.2,0,0.5,0.5,0.8,1.5c0,0.3-0.1,0.8-0.4,1.5
		c0.3,0,0.4,0.2,0.4,0.4v6.1c0,2.2-0.3,3.4-0.8,3.4c-0.3,0-0.6,1-0.8,2.9h-0.4v-2.5h-0.8v-0.8l0.2-0.4c-0.3,0-0.5-0.9-0.6-2.7
		c0.4,0,0.7-0.8,0.8-2.5c0.3,0,0.5-0.6,0.6-1.9v-0.7h-0.2c0,0.9-0.2,1.3-0.6,1.3c0,0.1,0.1,0.2,0.2,0.2c-0.3,1-0.8,1.7-1.7,2.1
		c0,0.6-0.1,0.8-0.2,0.8c0,0.1,0.1,0.4,0.2,0.8c-0.1,1.7-0.2,2.7-0.2,2.9l0.2,1h-0.9c0-0.2-0.2-0.4-0.6-0.6l-0.8,1.2h-0.4l0.2-2.1
		v-0.8c-0.1,0-0.3-0.1-0.6-0.2c0,0.7-0.2,1.1-0.6,1.2h-0.2c-0.2,0-0.4-0.3-0.6-0.8c0.1,0,0.2-0.1,0.2-0.2h-0.6
		c0.2,2.5,0.5,3.8,1,3.8v0.2h-0.6c-0.1-0.2-0.2-0.6-0.2-1.1h-0.2v0.9H444v-0.9c0-0.4-0.2-0.8-0.5-1.2l0.9-2.7l0.4,0.2h0.4
		c0-0.3-0.1-0.6-0.2-0.9c0.1-0.7,0.2-1.4,0.2-1.9h-0.8v1l0.2,1.1h-0.4l-0.5-0.2c0,0.9-0.2,1.3-0.6,1.3c0-0.1-0.1-0.2-0.2-0.2
		c0,0.4-0.1,0.6-0.4,0.6h-0.4c0.1-1.4,0.2-2.5,0.2-3.2v-0.6c0.6,0,0.8-0.4,0.8-1.2v-0.2h-0.2l-0.4,1.2l-0.4-0.2
		c-0.6,2.7-0.8,4.7-0.8,6.1c0.1,0.2,0.2,0.5,0.2,0.8c-0.1,0.3-0.2,0.5-0.2,0.6h-0.2c-0.3,0-0.4-0.5-0.4-1.5c-0.4,0-0.6,1.3-0.6,3.8
		L434.4,61z M425.8,1.6h0.4v0.8h-0.4V1.6z M430,37.8v2.3c0.3,0,0.4-0.2,0.4-0.5v-1.9H430z M431.9,22.7h0.4v1.9h-0.4V22.7z"/>
	<path d="M475.1,53.6c0.6-0.7,0.9-1,0.9-1.1v-0.2c-1.2-1-1.7-1.9-1.7-2.4l0.5-0.2l1.1,1.1h0.2l-0.2-1.5v-1.1l0.2-1.1l-0.9,0.6
		l-0.6-0.9c0-0.3,0.2-0.4,0.6-0.4v-2.6l-0.9-0.2v0.2c0.2,0.6,0.2,1.1,0.2,1.5c-0.4,0.5-0.6,1.4-0.9,2.8h-0.2c0-0.3-0.2-0.5-0.5-0.5
		h-0.2v0.7c0.4,0,0.7,0.1,0.7,0.4c-0.4,0.4-0.9,1.8-1.3,4.1l-0.6,0.4l-0.2-0.4v-1.3c0-0.3,0.2-0.4,0.7-0.4v-4.8l0.2-1.3
		c-0.4-0.8-0.6-1.5-0.6-1.9h-0.2v3.6c0,2.6-0.3,3.9-0.9,3.9v1.3h-0.4c0-0.6,0.1-2.3,0.4-5.2c-0.1-1-0.2-1.8-0.2-2.4
		c0-1.1,0.3-2.4,0.9-3.7l-0.4-0.2h-0.2c-0.4,1-0.7,2.4-0.8,4.3l0.2,1.1c-0.1,1.2-0.2,2.3-0.2,3.3v1.7c-0.6,0.5-1,1.1-1.1,1.9
		c-0.5,0.1-0.8,0.2-0.9,0.2c-0.3-0.6-0.5-1.1-0.5-1.7c0-1.3,0.4-2.2,1.3-2.6c0.3-0.9,0.4-1.5,0.4-1.7c0-0.5-0.1-1.8-0.4-3.9
		c0.1,0,0.2-0.1,0.2-0.2h-0.7c0,0.2,0.1,0.2,0.2,0.2c-0.3,0.6-0.7,2.5-1.3,5.8c-0.1,0-0.5,0.5-1.1,1.5l-0.2-0.4v-0.7
		c0.4-0.6,0.6-1.3,0.6-2.2h-0.6c0,0.9-0.4,2.2-1.1,3.9c0,1-0.1,1.5-0.2,1.5c0.2,0.2,0.3,1,0.5,2.2c0,0.3-0.2,1.4-0.5,3.2h-0.4
		c0-0.5,0.1-2,0.2-4.6l-0.2-1.9c0-0.7,0.6-3.1,1.7-7.1v-1.9c0.4,0,0.6-0.2,0.6-0.5v-1.1l-0.4,0.2c-0.3,0-0.5-0.2-0.5-0.5v-5.4
		c0-0.7,0.1-1.4,0.2-2.2c-0.2-0.6-0.2-1.1-0.2-1.7c0.2-1.3,0.2-2.1,0.2-2.4l-0.5-0.2h-0.2l-0.4,0.2l0.2,1.1v0.5
		c0,0.1-0.1,0.2-0.2,0.2c0,0.1,0.1,0.2,0.2,0.2c0,0.1-0.1,0.4-0.2,0.7l0.2,1.5c0,0.7-0.2,1.3-0.7,1.9v1.9l-0.2,1.5
		c0.6,0,0.9,0.2,0.9,0.7c0,0.4-0.1,0.9-0.2,1.7c0.1,1.5,0.2,2.4,0.2,2.6c0,1.1-0.5,3.1-1.5,6.3c0,1.1-0.2,1.6-0.6,1.7h-0.5v-0.9
		c0-2.6,0.2-3.9,0.7-3.9c0,0.2,0.1,0.2,0.2,0.2c0-1.7,0.4-2.6,1.1-2.6v-0.5c0-0.6-0.1-1.2-0.4-1.7c0.3-1.2,0.4-2,0.4-2.6v-0.9h-0.2
		c0,0.9-0.2,1.6-0.7,1.9v1.5c0,1.6-0.2,2.4-0.6,2.4h-0.5l0.9-6.9v-1.1c0-0.7-0.1-1.4-0.2-2.2l0.4-3.7l-0.6-0.4h-0.2v5
		c0,1.9-0.2,3.2-0.6,3.6v0.7c0,3.1-0.3,4.9-0.9,5.4h-0.5c0.3-2.6,0.5-4.7,0.5-6.3c-0.3,0.3-0.6,0.5-0.9,0.5l0.2,0.4
		c-0.2,0.7-0.7,1.1-1.3,1.1v0.2l0.2,1.1c-0.4,0-0.7,1.7-1.1,5.2h-0.2c-0.2-0.3-0.3-1-0.5-1.9c0.1-1,0.2-1.9,0.2-2.8v-0.9
		c0.6-0.7,0.9-1.7,0.9-2.8v-0.7h-0.2c0,0.7-0.1,1.1-0.4,1.1l-0.2-0.5v-1.5c0-0.6-0.1-1.2-0.2-1.7c0.1-0.6,0.2-1.1,0.2-1.5
		c0-1.1-0.1-2.1-0.2-3c0.1-1.2,0.2-2.2,0.2-3c0-0.8-0.1-1.9-0.4-3.2c0.2-2.8,0.4-4.4,0.4-4.6l-0.2-1.3v-0.2c0-1.3,0.1-2.7,0.2-4.4
		l-0.2-1.3h0.2l-0.2-0.5V6.2c0-0.6,0.5-1.5,1.5-2.8l0.2,0.4v1.3h0.7c0.1-0.9,0.3-1.3,0.6-1.3h0.5c0,0.6,0.1,0.9,0.2,0.9
		c1.3-0.4,2.2-0.8,2.6-1.3c0.7,0.2,1.1,0.7,1.1,1.5v0.2h0.4l0.9-1.5c0.3,0,0.5,0.4,0.5,1.1h0.6c0-0.4,0.4-0.9,1.3-1.5
		c0.3,0,0.4,0.2,0.4,0.6h0.7l0.6-0.4h1.3c0.2,0,0.6,0.4,1.3,1.3v0.9c0.3,2,0.4,3.1,0.4,3.2c0,2.1-0.1,4.5-0.2,7.2
		c0.1,1.3,0.2,2.7,0.2,4.3h-0.2l0.2,0.5v1.1h0.2c0.6-0.6,1.3-2.4,2.2-5.6c0.3,0,0.7-0.5,1.3-1.5h0.2v-1.3c2.3-6.2,4.1-9.6,5.4-10.2
		l1.1,0.2l1.1-0.2c0.1,0.3,0.2,0.4,0.5,0.4h1.3l0.7-0.4c0.7,0.4,1.1,0.8,1.1,1.1h0.9c0-0.7,0.1-1.1,0.4-1.1c0.1,0.2,0.2,0.5,0.2,0.6
		h0.5c0.3-0.2,1.1-0.5,2.4-0.6c0-0.2,0.2-0.4,0.7-0.7c0.9,0.4,1.5,0.7,1.7,1.1l1.1-0.2c0.3,0.6,0.6,1,0.8,1.1c0,2.8-0.8,5.5-2.4,8.2
		c-1.1,1.1-2.7,4.2-5,9.3l-2.8,5.2c-0.5,1.7-0.9,2.6-1.3,2.6v1.7c0.4,1.1,0.7,1.7,0.9,1.7h0.6v-0.2c-0.1-0.3-0.2-0.5-0.2-0.6
		l0.5-0.2c1.6,0.1,2.4,0.3,2.4,0.7v0.2h-1.3c-1,0-1.5,0.4-1.5,1.3l1.5,3.6v0.9c0.7,0,1.1,0.4,1.1,1.1h0.6v0.7
		c-0.3,0.4-0.6,1.2-0.8,2.6v1.9c0.2,0,0.5-0.4,0.8-1.3l0.9,0.5c-0.3,1-0.4,1.8-0.4,2.6c1.2,0.3,1.7,0.6,1.7,0.9h-0.5
		c0.3,0.7,0.5,1.2,0.5,1.5c0.2,0,0.5-0.5,1.1-1.5c1,1.1,1.5,1.8,1.5,2.2h-0.2c-0.1,0-0.4-0.4-1.1-1.1h-0.2c0,0.8-0.2,1.4-0.7,1.7
		v0.5c0.4,0,0.7,0.3,0.9,0.8c0.4,0,0.7,0.2,0.7,0.5v0.2c0,0.2-0.7,0.8-2.2,1.5l-1.1-0.2h-0.4c0,0.6-0.2,0.9-0.7,0.9h-0.2
		c0-1-0.6-1.5-1.7-1.5v-1.1c-0.3-0.4-0.4-0.7-0.4-1.1H487v2.6h-0.2v0.5c0.5,0,0.8,0.4,1.1,1.3h0.2v0.2h-0.7v0.2
		c0.3,0,0.4,0.2,0.4,0.7l1.1-0.2v0.4c0,1.1-0.1,2.7-0.2,4.6c0.2,0.2,0.2,0.5,0.2,0.7c-0.3,0-0.5,0.1-0.5,0.4h-0.4v-0.4
		c-0.4,0-0.6,0.3-0.7,0.8l0.2,0.5c-0.4,1-0.6,1.5-0.6,1.7l0.4,0.2c0.9-1.7,1.4-2.8,1.7-3l-0.2-1.9c0.6,0,1.1-1.7,1.7-5h0.7v0.6h0.2
		v-0.6h0.5v1.5c-0.6,0.3-0.9,0.8-0.9,1.3c-0.6,0.5-0.9,1-0.9,1.5v0.2h0.4c0-0.2,0.8-1.4,2.4-3.4c0.3,0,0.4,0.2,0.4,0.7
		c-0.5,1-1.3,2.2-2.6,3.6c-0.6,2-1.2,3.2-1.7,3.5c-2.1,1.9-3.5,2.8-4.4,2.8l-0.9-0.5v0.2c0,0.4,0.3,0.7,0.9,0.7v0.5h-1.3v0.4
		c1,0,1.5,0.9,1.5,2.8c0.7,1,1.1,1.9,1.1,2.6c0,0.3-0.2,0.4-0.5,0.4c-0.4-0.7-0.7-1.7-1.1-2.8l-0.4-0.2c-0.4,0.3-0.6,0.4-0.7,0.4
		l0.2,1.1c0,0.3-0.1,0.5-0.4,0.5c-0.2,0-0.6-1-1.1-3c0.6-1.7,0.9-3,0.9-3.9c-0.1,0-0.5,0.4-1.1,1.1h-0.4c-0.3,0-0.6-0.5-0.7-1.5h0.7
		v0.9c0.4,0,0.8-0.6,1.3-1.7c1.2-0.7,1.7-1.2,1.7-1.3l1.5,0.7c0.3-0.1,0.5-0.2,0.6-0.2V63c0-0.4,0.2-1.4,0.7-3l-0.4-0.2
		c0,0.9-0.6,1.8-1.9,2.8v0.2h-0.5c0-0.7,0.6-1.6,1.7-2.6v-0.5c-0.1,0-0.5,0.4-1.3,1.3h-0.5v-0.7c0.3-0.4,0.5-0.6,0.5-0.7
		c0-0.3-0.2-0.4-0.5-0.4h-0.7v1.3c0,2-0.4,3.2-1.3,3.5c-0.4,0.7-0.7,1.1-0.9,1.1h-1.1L475.1,53.6z"/>
</g>
</svg>
